<?xml version="1.0" standalone="no"?>
<!DOCTYPE svg PUBLIC "-//W3C//DTD SVG 1.1//EN" "http://www.w3.org/Graphics/SVG/1.1/DTD/svg11.dtd" >
<svg xmlns="http://www.w3.org/2000/svg" xmlns:xlink="http://www.w3.org/1999/xlink" version="1.1">
<metadata>
Created by FontForge 20201107 at Wed Apr  9 14:49:15 2025
 By 
Copyright 2022 The Figtree Project Authors (https://github.com/erikdkennedy/figtree)
</metadata>
<defs>
<font id="Figtree-Medium" horiz-adv-x="561" >
  <font-face 
    font-family="Figtree Medium"
    font-weight="500"
    font-stretch="normal"
    units-per-em="1000"
    panose-1="0 0 0 0 0 0 0 0 0 0"
    ascent="800"
    descent="-200"
    x-height="500"
    cap-height="700"
    bbox="-174 -220 1100 927"
    underline-thickness="50"
    underline-position="-125"
    unicode-range="U+000D-2265"
  />
<missing-glyph horiz-adv-x="708" 
d="M100 -170v960h508v-960h-508zM158 -112h392v844h-392v-844z" />
    <glyph glyph-name=".notdef" horiz-adv-x="708" 
d="M100 -170v960h508v-960h-508zM158 -112h392v844h-392v-844z" />
    <glyph glyph-name=".null" horiz-adv-x="0" 
 />
    <glyph glyph-name="nonmarkingreturn" horiz-adv-x="333" 
 />
    <glyph glyph-name="CR" unicode="&#xd;" horiz-adv-x="600" 
 />
    <glyph glyph-name="space" unicode=" " horiz-adv-x="244" 
 />
    <glyph glyph-name="exclam" unicode="!" horiz-adv-x="302" 
d="M104 210l-5 490h103l-4 -490h-94zM151 -15q-26 0 -44 18.5t-18 44.5q0 25 18 43.5t44 18.5q25 0 43.5 -18.5t18.5 -43.5q0 -26 -18.5 -44.5t-43.5 -18.5z" />
    <glyph glyph-name="quotedbl" unicode="&#x22;" horiz-adv-x="345" 
d="M69 476l-9 240h92l-9 -240h-74zM202 476l-9 240h92l-9 -240h-74z" />
    <glyph glyph-name="numbersign" unicode="#" horiz-adv-x="629" 
d="M335 0l110 700h74l-110 -700h-74zM10 191l9 66h562l-9 -66h-562zM112 0l110 700h74l-110 -700h-74zM47 434l10 66h562l-10 -66h-562z" />
    <glyph glyph-name="dollar" unicode="$" 
d="M289 23q-67 0 -117.5 20t-81.5 53t-42 70l87 28q14 -35 51 -61.5t92 -26.5q64 -1 101.5 25.5t37.5 68.5q0 39 -33 64.5t-86 38.5l-72 18q-44 12 -79.5 34.5t-55.5 56.5t-20 81q0 86 56.5 135t162.5 49q61 0 106 -19.5t74 -51.5t41 -69l-88 -30q-14 38 -51 62.5t-89 24.5
q-55 0 -86.5 -26t-31.5 -70q0 -40 25 -61t65 -31l74 -18q88 -21 136 -72t48 -111q0 -52 -26 -93t-75.5 -65t-122.5 -24zM249 -103v883h83v-883h-83z" />
    <glyph glyph-name="percent" unicode="%" horiz-adv-x="793" 
d="M95 0l497 700h104l-500 -700h-101zM590 -16q-46 0 -82 22t-56 60t-20 86q0 50 20 87.5t56 59t82 21.5t81.5 -21.5t55.5 -59t20 -87.5q0 -48 -20 -86t-55.5 -60t-81.5 -22zM590 55q36 0 58.5 27.5t22.5 69.5t-22.5 70t-58.5 28t-59 -28t-23 -70t23 -69.5t59 -27.5z
M203 380q-46 0 -81.5 21.5t-55.5 60t-20 86.5q0 50 20 87.5t55.5 59t81.5 21.5q47 0 82.5 -21.5t55.5 -59t20 -87.5q0 -48 -20 -86.5t-55.5 -60t-82.5 -21.5zM203 451q36 0 59 27.5t23 69.5t-23 69.5t-59 27.5q-35 0 -58 -27.5t-23 -69.5t23 -69.5t58 -27.5z" />
    <glyph glyph-name="ampersand" unicode="&#x26;" horiz-adv-x="645" 
d="M258 -14q-60 0 -106.5 23.5t-73.5 65.5t-27 95q0 43 16.5 77t44 62.5t60.5 51.5l102 70q23 16 46 33.5t39.5 40t16.5 50.5q0 36 -25.5 57t-64.5 21q-34 0 -58 -22t-24 -55q0 -28 17.5 -50.5t42.5 -53.5l126 -151l248 -301h-116l-207 249l-126 152q-24 31 -42 56
t-27.5 49.5t-9.5 50.5q0 45 23 80.5t62.5 56t87.5 20.5q53 0 95 -20t66 -56t24 -84q0 -40 -21 -74.5t-58 -66.5t-85 -65l-73 -51q-21 -14 -39.5 -31.5t-30 -39.5t-11.5 -54q0 -45 31 -73.5t81 -28.5q49 0 93 16.5t77.5 47t52.5 74.5t19 98h92q0 -93 -43.5 -165.5
t-119.5 -113.5t-175 -41z" />
    <glyph glyph-name="quotesingle" unicode="'" horiz-adv-x="212" 
d="M69 476l-9 240h92l-9 -240h-74z" />
    <glyph glyph-name="parenleft" unicode="(" horiz-adv-x="360" 
d="M220 -100q-46 61 -84 132.5t-60 151.5t-22 166q0 87 22 166.5t60 151t84 132.5h96q-46 -64 -84 -137t-60 -151.5t-22 -161.5q0 -82 22 -161t60 -151.5t84 -137.5h-96z" />
    <glyph glyph-name="parenright" unicode=")" horiz-adv-x="360" 
d="M140 -100h-96q47 65 84.5 137.5t59.5 151.5t22 161q0 83 -22 161.5t-59.5 151.5t-84.5 137h96q47 -61 84.5 -132.5t59.5 -151t22 -166.5q0 -86 -22 -166t-59.5 -151.5t-84.5 -132.5z" />
    <glyph glyph-name="asterisk" unicode="*" horiz-adv-x="483" 
d="M316 376l-95 149l47 34l111 -138zM169 374l-62 45l112 137l46 -34zM232 513l-171 45l25 74l164 -65zM213 539l-10 177h77l-10 -177h-57zM250 512l-17 55l165 63l23 -73z" />
    <glyph glyph-name="plus" unicode="+" horiz-adv-x="626" 
d="M273 70v456h81v-456h-81zM85 257v81h456v-81h-456z" />
    <glyph glyph-name="comma" unicode="," horiz-adv-x="235" 
d="M37 -115l58 218h103l-84 -218h-77z" />
    <glyph glyph-name="hyphen" unicode="-" horiz-adv-x="414" 
d="M57 256v83h300v-83h-300z" />
    <glyph glyph-name="period" unicode="." horiz-adv-x="219" 
d="M109 -14q-25 0 -43.5 18t-18.5 44t18.5 44t43.5 18q26 0 44.5 -18t18.5 -44t-18.5 -44t-44.5 -18z" />
    <glyph glyph-name="slash" unicode="/" horiz-adv-x="401" 
d="M15 -84l276 831h95l-274 -831h-97z" />
    <glyph glyph-name="zero" unicode="0" horiz-adv-x="643" 
d="M321 -12q-81 0 -144 46.5t-98.5 128t-35.5 187.5t35.5 187.5t98 128t144.5 46.5t144.5 -46.5t98.5 -128t36 -187.5t-35.5 -187.5t-98.5 -128t-145 -46.5zM321 78q53 0 94.5 35t64.5 96t23 141t-23 141.5t-64.5 96.5t-94.5 35t-94 -35t-64 -96.5t-23 -141.5t23 -141.5
t64 -96t94 -34.5z" />
    <glyph glyph-name="one" unicode="1" horiz-adv-x="416" 
d="M211 0v573q-37 -30 -76 -47.5t-79 -16.5v89q22 -1 51.5 14t59.5 39t53 49h87v-700h-96z" />
    <glyph glyph-name="two" unicode="2" horiz-adv-x="564" 
d="M56 0v79q0 31 14.5 64.5t42 66.5t65.5 61l135 100q24 17 43.5 39.5t31 47t11.5 48.5q0 32 -16 58.5t-45 42t-69 15.5q-38 0 -66.5 -14.5t-47.5 -38.5t-27 -51l-101 19q11 46 43 86t82 64.5t113 24.5q72 0 124.5 -26.5t81.5 -73t29 -106.5q0 -58 -31.5 -107t-90.5 -95
l-125 -94q-37 -28 -58.5 -58t-26.5 -64h341v-88h-453z" />
    <glyph glyph-name="three" unicode="3" horiz-adv-x="547" 
d="M272 -12q-54 0 -98 16t-74 44t-46 61l85 39q10 -14 25 -31.5t40 -29.5t62 -12q63 0 100.5 36t37.5 91q0 41 -22 69.5t-64.5 43.5t-103.5 15h-25v83h25q82 0 128 28t46 79q0 29 -15.5 52.5t-43 38t-65.5 14.5q-24 0 -46.5 -7.5t-41.5 -22t-33 -37.5l-82 37q17 37 48 63
t72 40t87 14q63 0 112 -24t77.5 -66t28.5 -95q0 -54 -30 -92.5t-82 -61.5q60 -26 94.5 -71t34.5 -109q0 -62 -31.5 -108.5t-84 -71.5t-115.5 -25z" />
    <glyph glyph-name="four" unicode="4" horiz-adv-x="624" 
d="M362 0v161h-323v77l316 462h102v-452h137v-87h-137v-161h-95zM147 248h215v315z" />
    <glyph glyph-name="five" unicode="5" horiz-adv-x="576" 
d="M291 -12q-44 0 -89.5 13.5t-84.5 41t-62 70.5l83 38q32 -40 70 -58.5t79 -18.5q65 0 105 39t40 104q0 63 -39 103t-102 40q-36 0 -69 -15.5t-51 -38.5l-89 20l36 374h379v-90h-293l-21 -207q28 16 62 26t69 10q63 0 112 -28t77.5 -77.5t28.5 -113.5q0 -69 -31 -121
t-85 -81.5t-125 -29.5z" />
    <glyph glyph-name="six" unicode="6" horiz-adv-x="569" 
d="M298 -12q-72 0 -121 27t-78.5 73.5t-42.5 107.5t-13 130q0 87 18 158t53 122t86 78.5t117 27.5q53 0 105 -16.5t93 -45.5l-53 -71q-32 22 -69 33.5t-69 11.5q-95 0 -146 -80.5t-46 -247.5l-20 17q24 59 75.5 94.5t121.5 35.5q68 0 120 -30t81 -81.5t29 -118.5
q0 -65 -30 -116t-84.5 -80t-126.5 -29zM299 74q41 0 73 18t50.5 50.5t18.5 73.5q0 42 -18.5 74.5t-50.5 50.5t-73 18q-42 0 -74.5 -18t-51 -50.5t-18.5 -74.5q0 -41 18.5 -73.5t51 -50.5t74.5 -18z" />
    <glyph glyph-name="seven" unicode="7" horiz-adv-x="542" 
d="M85 0l318 610h-364v90h473v-79l-318 -621h-109z" />
    <glyph glyph-name="eight" unicode="8" horiz-adv-x="614" 
d="M306 -12q-78 0 -135 24.5t-88.5 68t-31.5 101.5q0 62 33.5 109.5t92.5 72.5q-47 23 -74 64t-27 94q0 56 28.5 99t80.5 67t121 24q70 0 122 -24t80.5 -67t28.5 -99q0 -53 -26.5 -94t-74.5 -64q59 -25 92.5 -72.5t33.5 -109.5q0 -58 -31.5 -101.5t-88.5 -68t-136 -24.5z
M306 73q69 0 112.5 33.5t43.5 86.5q0 55 -43.5 89t-112.5 34q-45 0 -80 -15t-54.5 -43.5t-19.5 -64.5q0 -35 19.5 -62.5t54.5 -42.5t80 -15zM306 403q59 0 96.5 30.5t37.5 78.5q0 52 -37.5 84.5t-96.5 32.5q-58 0 -95 -32.5t-37 -84.5q0 -48 37 -78.5t95 -30.5z" />
    <glyph glyph-name="nine" unicode="9" horiz-adv-x="569" 
d="M271 712q73 0 121.5 -27t78.5 -73.5t43 -107.5t13 -130q0 -87 -18.5 -158.5t-53 -122t-85.5 -78t-118 -27.5q-53 0 -104.5 16t-92.5 46l53 71q31 -22 68 -34t70 -12q95 0 146 81t45 248l21 -17q-24 -59 -75.5 -94.5t-122.5 -35.5q-67 0 -119 30t-81.5 81.5t-29.5 117.5
q0 67 30 117.5t84.5 79.5t126.5 29zM271 626q-41 0 -73.5 -18t-51 -50t-18.5 -74t18.5 -74.5t51 -51t73.5 -18.5q42 0 74.5 18.5t51 51t18.5 74.5t-18.5 74t-51 50t-74.5 18z" />
    <glyph glyph-name="colon" unicode=":" horiz-adv-x="266" 
d="M132 377q-25 0 -43.5 18t-18.5 44t18.5 44t43.5 18q26 0 44.5 -18t18.5 -44t-18.5 -44t-44.5 -18zM134 -2q-26 0 -44.5 18.5t-18.5 44.5q0 25 18.5 43.5t44.5 18.5q25 0 43.5 -18.5t18.5 -43.5q0 -26 -18.5 -44.5t-43.5 -18.5z" />
    <glyph glyph-name="semicolon" unicode=";" horiz-adv-x="271" 
d="M130 376q-26 0 -44.5 18t-18.5 44t18.5 44t44.5 18q25 0 43.5 -18t18.5 -44t-18.5 -44t-43.5 -18zM40 -115l58 218h103l-84 -218h-77z" />
    <glyph glyph-name="less" unicode="&#x3c;" horiz-adv-x="626" 
d="M484 503v-89l-251 -116l251 -114v-90l-351 160v87z" />
    <glyph glyph-name="equal" unicode="=" horiz-adv-x="626" 
d="M113 357v81h400v-81h-400zM113 157v81h400v-81h-400z" />
    <glyph glyph-name="greater" unicode="&#x3e;" horiz-adv-x="626" 
d="M141 94v89l252 116l-252 114v89l351 -159v-88z" />
    <glyph glyph-name="question" unicode="?" horiz-adv-x="506" 
d="M172 192l-2 177l58 3q62 1 101.5 35t39.5 94q0 54 -37 89t-97 35q-42 0 -74.5 -20.5t-43.5 -50.5l-88 26q20 59 74 95.5t132 36.5q67 0 118.5 -27t80.5 -74.5t29 -109.5q0 -56 -24.5 -99.5t-69 -69.5t-103.5 -32v-108h-94zM219 -14q-27 0 -45 18t-18 44t18 44t45 18
q26 0 44 -18t18 -44t-18 -44t-44 -18z" />
    <glyph glyph-name="at" unicode="@" horiz-adv-x="990" 
d="M515 -212q-104 0 -190.5 34t-149.5 96.5t-97.5 147t-34.5 186.5t34.5 186.5t97.5 146.5t149.5 96t190.5 34q95 0 174 -34t137 -96t89.5 -146.5t31.5 -186.5q0 -78 -25 -138t-69 -94.5t-101 -34.5q-50 -1 -82.5 27t-36.5 92q-28 -41 -72.5 -65t-99.5 -24
q-64 0 -113.5 30.5t-77.5 84.5t-28 123q0 70 28 123t77.5 83.5t113.5 30.5q53 0 96.5 -22.5t70.5 -62.5v74h87v-370q0 -25 12 -38.5t31 -13.5q32 0 56.5 25t38.5 69t14 101q0 85 -26 156t-73 123t-111.5 80t-141.5 28q-86 0 -158 -28t-124.5 -80t-81 -123t-28.5 -156
t28.5 -156t81 -123t124.5 -80.5t158 -28.5q38 0 82.5 10.5t74.5 26.5l40 -61q-42 -23 -97.5 -37.5t-99.5 -14.5zM485 97q58 0 97.5 36.5t47.5 94.5l-1 51q-7 57 -47.5 92.5t-98.5 35.5q-44 0 -77 -19.5t-52 -54t-19 -80.5q0 -45 19.5 -80.5t53 -55.5t77.5 -20z" />
    <glyph glyph-name="A" unicode="A" horiz-adv-x="687" 
d="M9 0l282 700h105l282 -700h-105l-75 187h-309l-75 -187h-105zM223 275h241l-120 301z" />
    <glyph glyph-name="B" unicode="B" horiz-adv-x="611" 
d="M89 0v700h225q72 0 123.5 -22t80 -65t28.5 -106q0 -48 -22.5 -85.5t-62.5 -61.5q52 -25 79.5 -67t27.5 -100q0 -61 -27.5 -104.5t-77.5 -66t-120 -22.5h-254zM186 89h151q62 0 96.5 29.5t34.5 79.5q0 56 -39.5 86.5t-110.5 30.5h-132v-226zM186 399h144q54 0 85.5 29
t31.5 80q0 53 -36 81.5t-101 28.5h-124v-219z" />
    <glyph glyph-name="C" unicode="C" horiz-adv-x="722" 
d="M387 -12q-100 0 -178 46.5t-122 128t-44 187.5t44 187.5t121 128t177 46.5q65 0 124 -23.5t105.5 -65t71.5 -96.5l-88 -40q-19 41 -52 71t-74.5 47t-86.5 17q-70 0 -125 -35t-86 -96t-31 -141t31.5 -142t87 -96.5t126.5 -34.5q46 0 87 18.5t73.5 51t52.5 74.5l88 -39
q-25 -57 -71 -101t-105.5 -68.5t-125.5 -24.5z" />
    <glyph glyph-name="D" unicode="D" horiz-adv-x="691" 
d="M89 0v700h216q100 0 177.5 -44.5t121.5 -123.5t44 -182q0 -102 -44 -181t-121.5 -124t-177.5 -45h-216zM187 92h118q51 0 95 19.5t77.5 55t52 82.5t18.5 101t-18.5 101t-52 82.5t-77.5 55t-95 19.5h-118v-516z" />
    <glyph glyph-name="E" unicode="E" horiz-adv-x="591" 
d="M89 0v700h421v-90h-323v-208h291v-88h-291v-224h325v-90h-423z" />
    <glyph glyph-name="F" unicode="F" horiz-adv-x="546" 
d="M89 0v700h424v-90h-326v-220h284v-90h-284v-300h-98z" />
    <glyph glyph-name="G" unicode="G" horiz-adv-x="756" 
d="M407 -12q-106 0 -188.5 46.5t-129 128t-46.5 186.5q0 107 46.5 188.5t129 128t188.5 46.5q58 0 111.5 -18.5t97 -51t70.5 -74.5l-79 -52q-20 31 -52 55t-70.5 37.5t-77.5 13.5q-77 0 -136.5 -35t-93.5 -96t-34 -142q0 -79 33.5 -140t94 -96t138.5 -35q62 0 111 25.5
t77.5 71t29.5 105.5h-169v82h265v-72q-1 -91 -41.5 -159t-111.5 -105.5t-163 -37.5z" />
    <glyph glyph-name="H" unicode="H" horiz-adv-x="751" 
d="M89 0v700h98v-295h377v295h98v-700h-98v315h-377v-315h-98z" />
    <glyph glyph-name="I" unicode="I" horiz-adv-x="276" 
d="M89 0v700h98v-700h-98z" />
    <glyph glyph-name="J" unicode="J" horiz-adv-x="525" 
d="M207 -12q-41 0 -73.5 12t-57.5 31.5t-42 44t-27 49.5l79 40q19 -39 48.5 -63t72.5 -24q35 0 67 16t53 53.5t21 98.5v454h98v-489q0 -55 -19.5 -96.5t-53 -70t-76.5 -42.5t-90 -14z" />
    <glyph glyph-name="K" unicode="K" horiz-adv-x="625" 
d="M89 0v700h95v-310l297 310h125l-299 -315l312 -385h-121l-256 317l-58 -61v-256h-95z" />
    <glyph glyph-name="L" unicode="L" horiz-adv-x="524" 
d="M89 0v700h98v-610h325v-90h-423z" />
    <glyph glyph-name="M" unicode="M" horiz-adv-x="849" 
d="M89 0v700h104l232 -343l231 343h104v-700h-98v542l-238 -351l-237 350v-541h-98z" />
    <glyph glyph-name="N" unicode="N" horiz-adv-x="774" 
d="M89 0v700h101l396 -536v536h99v-700h-99l-399 541v-541h-98z" />
    <glyph glyph-name="O" unicode="O" horiz-adv-x="779" 
d="M392 -12q-102 0 -181 46t-123.5 128t-44.5 188t44.5 187.5t122.5 128t180 46.5t180 -46.5t122 -128t44 -187.5t-44 -188t-121.5 -128t-178.5 -46zM392 78q72 0 127 35t86 96t31 141q0 79 -31.5 140.5t-87 96.5t-127.5 35t-128 -35t-87.5 -96.5t-31.5 -140.5
q0 -80 32 -141t88.5 -96t128.5 -35z" />
    <glyph glyph-name="P" unicode="P" horiz-adv-x="586" 
d="M89 0v700h236q70 0 123.5 -28.5t84 -79t30.5 -117.5q0 -65 -28 -116t-77.5 -80t-113.5 -29h-157v-250h-98zM187 341h156q53 0 87 37.5t34 96.5q0 61 -39.5 98t-100.5 37h-137v-269z" />
    <glyph glyph-name="Q" unicode="Q" horiz-adv-x="782" 
d="M672 -40l-85 86q-40 -28 -89.5 -43t-105.5 -15q-102 0 -181 46t-123.5 128t-44.5 188q0 80 25.5 146t71.5 114.5t109.5 75t139.5 26.5q103 0 181 -46.5t122 -128t44 -187.5q0 -73 -21.5 -136t-60.5 -109l81 -82zM392 78q36 0 67 10.5t58 28.5l-97 98l64 62l100 -101
q25 35 38.5 78.5t13.5 95.5q0 80 -31.5 141t-87 96t-128.5 35q-71 0 -127 -35t-87.5 -96t-31.5 -141t32 -141t88.5 -96t128.5 -35z" />
    <glyph glyph-name="R" unicode="R" horiz-adv-x="631" 
d="M89 0v700h236q70 0 123.5 -27.5t84 -76t30.5 -112.5q0 -69 -39 -121t-102 -76l169 -287h-111l-156 268h-13h-14h-110v-268h-98zM187 358h147q36 0 64.5 16.5t46 45t17.5 64.5q0 56 -39 91t-101 35h-135v-252z" />
    <glyph glyph-name="S" unicode="S" horiz-adv-x="612" 
d="M315 -12q-56 0 -101.5 13t-79 35.5t-55.5 50.5t-31 59l95 31q15 -41 57 -71t103 -31q74 0 116.5 29.5t42.5 78.5q0 45 -37 73.5t-98 43.5l-81 21q-48 13 -87.5 37t-62.5 61t-23 89q0 96 62.5 150t180.5 54q68 0 118 -21.5t82.5 -56.5t46.5 -77l-95 -32q-17 45 -58 72.5
t-101 27.5q-63 0 -99.5 -30t-36.5 -82q0 -44 28.5 -67.5t76.5 -35.5l81 -20q98 -24 151.5 -79.5t53.5 -121.5q0 -57 -28.5 -102.5t-84 -72t-136.5 -26.5z" />
    <glyph glyph-name="T" unicode="T" 
d="M231 0v610h-219v90h537v-90h-219v-610h-99z" />
    <glyph glyph-name="U" unicode="U" horiz-adv-x="706" 
d="M351 -15q-81 0 -142.5 33.5t-95.5 94t-34 139.5v448h98v-448q0 -52 22.5 -92t62 -62t91.5 -22t92 22t62 62t22 92v448h99v-448q0 -79 -34.5 -139.5t-97 -94t-145.5 -33.5z" />
    <glyph glyph-name="V" unicode="V" horiz-adv-x="701" 
d="M296 0l-287 700h105l236 -586l237 586h105l-287 -700h-109z" />
    <glyph glyph-name="W" unicode="W" horiz-adv-x="967" 
d="M221 0l-212 700h100l165 -548l160 548h99l157 -545l168 545h99l-215 -700h-105l-154 542l-157 -542h-105z" />
    <glyph glyph-name="X" unicode="X" horiz-adv-x="632" 
d="M10 0l251 356l-249 344h118l187 -265l185 265h118l-248 -344l250 -356h-120l-185 276l-187 -276h-120z" />
    <glyph glyph-name="Y" unicode="Y" horiz-adv-x="616" 
d="M259 0v293l-250 407h113l186 -306l186 306h114l-250 -406v-294h-99z" />
    <glyph glyph-name="Z" unicode="Z" horiz-adv-x="638" 
d="M44 0v92l424 516h-421v92h547v-92l-424 -516h421v-92h-547z" />
    <glyph glyph-name="bracketleft" unicode="[" horiz-adv-x="329" 
d="M89 -100v900h172v-87h-84v-726h84v-87h-172z" />
    <glyph glyph-name="backslash" unicode="\" horiz-adv-x="401" 
d="M386 -84h-97l-274 831h95z" />
    <glyph glyph-name="bracketright" unicode="]" horiz-adv-x="329" 
d="M241 -100h-172v87h83v726h-83v87h172v-900z" />
    <glyph glyph-name="asciicircum" unicode="^" horiz-adv-x="559" 
d="M394 373l-162 327h93l157 -327h-88zM77 373l155 327h92l-158 -327h-89z" />
    <glyph glyph-name="underscore" unicode="_" horiz-adv-x="437" 
d="M19 -84v84h400v-84h-400z" />
    <glyph glyph-name="grave" unicode="`" horiz-adv-x="233" 
d="M131 568l-131 133h115l119 -133h-103z" />
    <glyph glyph-name="a" unicode="a" horiz-adv-x="516" 
d="M226 -12q-89 0 -138.5 40.5t-49.5 112.5q0 77 51.5 117.5t143.5 40.5h134q-6 64 -33.5 96.5t-82.5 32.5q-39 0 -67.5 -16t-47.5 -50l-84 32q18 34 45 60.5t65 42t89 15.5q71 0 118 -28t70.5 -81t22.5 -131l-1 -272h-88l-3 64q-22 -36 -58 -56t-86 -20zM234 69
q41 0 71 17.5t47 49t17 72.5v16h-110q-69 0 -97 -21.5t-28 -59.5q0 -35 26.5 -54.5t73.5 -19.5z" />
    <glyph glyph-name="b" unicode="b" horiz-adv-x="589" 
d="M325 -12q-54 0 -96 24.5t-69 68.5l-4 -81h-90v700h95v-280q27 44 68.5 68t95.5 24q67 0 118 -33t79.5 -91.5t28.5 -137.5q0 -78 -28.5 -137t-79.5 -92t-118 -33zM302 74q45 0 79 22.5t53.5 62t19.5 91.5t-19 91.5t-53 62t-79 22.5q-41 0 -73.5 -22.5t-50.5 -62.5t-18 -91
q0 -52 18 -91.5t50 -62t73 -22.5z" />
    <glyph glyph-name="c" unicode="c" horiz-adv-x="542" 
d="M294 -12q-75 0 -133 33.5t-90.5 92.5t-32.5 136t32.5 136t90 92.5t131.5 33.5q73 0 131.5 -34t87.5 -97l-86 -36q-19 37 -54.5 58t-81.5 21q-45 0 -80 -22t-55 -61.5t-20 -90.5t20 -90t56 -61.5t81 -22.5q46 0 82 23.5t54 63.5l87 -35q-29 -66 -87.5 -103t-132.5 -37z
" />
    <glyph glyph-name="d" unicode="d" horiz-adv-x="588" 
d="M264 -12q-68 0 -118.5 33t-79 92t-28.5 137q0 79 28.5 137.5t79 91.5t118.5 33q53 0 95 -24t69 -68v280h94v-700h-90l-3 81q-27 -44 -69 -68.5t-96 -24.5zM286 74q41 0 72.5 22t50 60.5t19.5 88.5v10q-1 50 -19.5 88.5t-50 60.5t-73.5 22q-44 0 -78 -22.5t-53 -62
t-19 -91.5t19.5 -91.5t53.5 -62t78 -22.5z" />
    <glyph glyph-name="e" unicode="e" horiz-adv-x="548" 
d="M287 -12q-73 0 -129 33.5t-88 92.5t-32 136t32 136t88.5 92.5t129.5 33.5q69 0 121 -34.5t81.5 -98t29.5 -149.5h-385q5 -74 49.5 -115.5t109.5 -41.5q50 0 83.5 23.5t52.5 59.5l82 -38q-20 -39 -52 -68.5t-75.5 -45.5t-97.5 -16zM141 305h277q-3 40 -21.5 67.5t-47 42.5
t-63.5 15q-34 0 -66 -14.5t-53.5 -42.5t-25.5 -68z" />
    <glyph glyph-name="f" unicode="f" horiz-adv-x="376" 
d="M116 0v421h-89v79h89v55q0 79 38 119.5t115 40.5q23 0 50 -7.5t55 -20.5l-35 -73q-21 10 -36.5 14.5t-26.5 4.5q-33 0 -49 -21.5t-16 -66.5v-45h138v-79h-138v-421h-95z" />
    <glyph glyph-name="g" unicode="g" horiz-adv-x="591" 
d="M273 -213q-50 0 -91 9.5t-69 21.5t-42 21l36 77q13 -8 37 -18.5t56 -18t71 -7.5q46 0 82 18.5t56.5 57.5t20.5 100v52q-26 -44 -69 -68.5t-97 -24.5q-68 0 -118.5 31.5t-79 88t-28.5 130.5q0 77 28.5 134t79 89t118.5 32q54 0 97 -24.5t69 -70.5v83h95v-450
q0 -86 -32.5 -144.5t-89 -88.5t-130.5 -30zM288 87q42 0 73 22.5t49 61t18 88.5t-18 88t-49.5 59.5t-73.5 21.5q-44 0 -77.5 -21.5t-52.5 -59.5t-19 -88t19.5 -88.5t53 -61t77.5 -22.5z" />
    <glyph glyph-name="h" unicode="h" 
d="M67 0v700h94v-271q25 40 64 61.5t90 21.5q59 0 102 -24t67 -74.5t23 -132.5v-281h-94v256q0 68 -16 103.5t-43.5 49.5t-62.5 15q-62 0 -96 -43t-34 -121v-260h-94z" />
    <glyph glyph-name="i" unicode="i" horiz-adv-x="240" 
d="M72 0v500h95v-500h-95zM120 606q-23 0 -40 17.5t-17 40.5q0 24 17 40.5t40 16.5q24 0 40.5 -16.5t16.5 -40.5q0 -23 -16.5 -40.5t-40.5 -17.5z" />
    <glyph glyph-name="j" unicode="j" horiz-adv-x="275" 
d="M154 606q-24 0 -41 17.5t-17 40.5q0 24 17 41t41 17t41 -17t17 -41q0 -23 -17 -40.5t-41 -17.5zM43 -215q-43 0 -99 27l37 79q21 -9 37 -14t26 -5q63 0 63 81v547h94v-551q0 -80 -40 -122t-118 -42z" />
    <glyph glyph-name="k" unicode="k" horiz-adv-x="500" 
d="M66 0v700h95v-415l201 215h116l-186 -203l205 -297h-114l-153 229l-69 -74v-155h-95z" />
    <glyph glyph-name="l" unicode="l" horiz-adv-x="227" 
d="M66 0v700h95v-700h-95z" />
    <glyph glyph-name="m" unicode="m" horiz-adv-x="857" 
d="M66 0v500h89l4 -69q24 40 60 60.5t83 20.5q60 0 102 -27.5t61 -83.5q22 54 62 82.5t95 28.5q85 0 133 -55.5t47 -170.5v-286h-94v256q0 68 -14.5 103.5t-38.5 49.5t-56 15q-56 0 -86.5 -43t-30.5 -121v-260h-95v256q0 68 -14 103.5t-38.5 49.5t-56.5 15q-56 0 -86.5 -43
t-30.5 -121v-260h-95z" />
    <glyph glyph-name="n" unicode="n" 
d="M66 0v500h89l4 -73q25 41 64.5 63t90.5 22q59 0 102.5 -24t67 -74.5t23.5 -132.5v-281h-95v256q0 68 -15.5 103.5t-43 49.5t-63.5 15q-61 0 -95 -43t-34 -121v-260h-95z" />
    <glyph glyph-name="o" unicode="o" horiz-adv-x="580" 
d="M292 -12q-75 0 -132 33.5t-89.5 92.5t-32.5 136t32 136t89 92.5t131 33.5t131 -33.5t89 -92.5t32 -136t-32 -136t-88.5 -92.5t-129.5 -33.5zM292 75q45 0 80 22.5t54.5 61.5t19.5 91t-19.5 91t-55.5 61.5t-81 22.5q-46 0 -81 -22.5t-55 -61.5t-20 -91t20 -91t56 -61.5
t82 -22.5z" />
    <glyph glyph-name="p" unicode="p" horiz-adv-x="594" 
d="M71 -200v700h89l5 -81q27 44 69 68.5t96 24.5q67 0 118 -33t79.5 -91.5t28.5 -137.5q0 -78 -28.5 -137t-79.5 -92t-118 -33q-54 0 -95.5 24.5t-68.5 67.5v-280h-95zM307 74q45 0 79 22.5t53.5 62t19.5 91.5t-19 91.5t-53 62t-79 22.5q-41 0 -73.5 -22.5t-50.5 -62.5
t-18 -91q0 -52 18 -91.5t50 -62t73 -22.5z" />
    <glyph glyph-name="q" unicode="q" horiz-adv-x="581" 
d="M428 -200v280q-26 -43 -68.5 -67.5t-95.5 -24.5q-68 0 -118.5 33t-79 92t-28.5 137q0 79 28.5 137.5t79 91.5t118.5 33q54 0 96.5 -25t68.5 -69l4 82h89v-700h-94zM286 74q42 0 74 22.5t50 62t18 91.5t-18 91.5t-50 62t-75 22.5q-44 0 -78 -22.5t-53 -62t-19 -91.5
t19.5 -91.5t53.5 -62t78 -22.5z" />
    <glyph glyph-name="r" unicode="r" horiz-adv-x="349" 
d="M66 0v500h95v-90q30 47 77.5 69.5t99.5 22.5v-90q-45 0 -85.5 -13.5t-66 -44t-25.5 -82.5v-272h-95z" />
    <glyph glyph-name="s" unicode="s" horiz-adv-x="466" 
d="M245 -12q-53 0 -94.5 16t-70 43t-42.5 61l82 36q16 -31 48 -51t71 -20q43 0 71 16t28 45q0 28 -21 44t-61 26l-47 12q-70 19 -108.5 57t-38.5 86q0 73 47 113t139 40q45 0 82.5 -13t64 -37t37.5 -57l-80 -36q-12 30 -41 44.5t-68 14.5q-40 0 -63 -17.5t-23 -48.5
q0 -17 19.5 -32.5t57.5 -25.5l54 -13q49 -12 81 -36.5t48 -55t16 -63.5q0 -45 -24.5 -78.5t-67 -51.5t-96.5 -18z" />
    <glyph glyph-name="t" unicode="t" horiz-adv-x="384" 
d="M259 -12q-75 0 -116 38.5t-41 110.5v281h-85v82h85v156h95v-156h142v-82h-142v-267q0 -37 18.5 -56.5t53.5 -19.5q10 0 22 4t29 16l36 -74q-26 -17 -49.5 -25t-47.5 -8z" />
    <glyph glyph-name="u" unicode="u" 
d="M246 -12q-58 0 -101 24t-67 75t-24 132v281h95v-256q0 -67 15.5 -103t43.5 -50t63 -15q61 0 95 43t34 121v260h94v-500h-88l-4 73q-25 -41 -64.5 -63t-91.5 -22z" />
    <glyph glyph-name="v" unicode="v" horiz-adv-x="530" 
d="M217 0l-208 500h97l159 -391l158 391h99l-209 -500h-96z" />
    <glyph glyph-name="w" unicode="w" horiz-adv-x="798" 
d="M180 0l-170 500h96l123 -370l124 370h94l122 -366l124 366h95l-170 -500h-94l-124 376l-125 -376h-95z" />
    <glyph glyph-name="x" unicode="x" horiz-adv-x="492" 
d="M10 0l185 259l-172 241h112l112 -165l111 165h112l-170 -242l182 -258h-113l-122 182l-123 -182h-114z" />
    <glyph glyph-name="y" unicode="y" horiz-adv-x="540" 
d="M127 -212q-22 0 -48.5 8t-54.5 21l35 78q22 -10 38.5 -15t26.5 -5q25 0 42.5 14t28.5 39l31 75l-218 497h101l162 -388l160 388h102l-237 -562q-19 -46 -40 -80t-51.5 -52t-77.5 -18z" />
    <glyph glyph-name="z" unicode="z" horiz-adv-x="488" 
d="M41 0v73l282 346h-282v81h403v-71l-283 -348h285v-81h-405z" />
    <glyph glyph-name="braceleft" unicode="{" horiz-adv-x="388" 
d="M57 339v47q39 0 60 11t29 38t8 77q0 86 8 142t27.5 88t53.5 45t88 13v-81q-35 -1 -54 -18.5t-26.5 -61.5t-7.5 -126q0 -69 -15.5 -107t-55.5 -52.5t-115 -14.5zM331 -100q-54 0 -88 13t-53.5 45t-27.5 88t-8 142q0 50 -8 77t-29 38t-60 11v47q75 0 115 -14.5t55.5 -52
t15.5 -107.5q0 -81 7.5 -125.5t26.5 -62t54 -18.5v-81z" />
    <glyph glyph-name="bar" unicode="|" horiz-adv-x="257" 
d="M89 -220v1010h80v-1010h-80z" />
    <glyph glyph-name="braceright" unicode="}" horiz-adv-x="388" 
d="M331 339q-74 0 -114.5 14.5t-56 52.5t-15.5 107q0 82 -7 126t-26.5 61.5t-54.5 18.5v81q53 0 87.5 -13t54 -45t27 -88t7.5 -142q0 -50 8.5 -77t29.5 -38t60 -11v-47zM57 -100v81q35 1 54 18.5t26.5 62t7.5 125.5q0 70 15 107.5t56 52t115 14.5v-47q-39 0 -60 -11
t-29.5 -38t-8.5 -77q0 -86 -7.5 -142t-27 -88t-54 -45t-87.5 -13z" />
    <glyph glyph-name="asciitilde" unicode="~" horiz-adv-x="595" 
d="M397 211q-31 0 -54.5 9t-41 24.5t-31.5 34.5q-21 25 -37 39t-34 14q-27 0 -42 -20t-21 -53h-79q2 46 20 83t49.5 58.5t71.5 21.5q43 0 76 -17.5t55 -51.5q13 -16 30.5 -34t36.5 -18q27 0 42 19.5t20 53.5h80q-3 -46 -21.5 -83t-48.5 -58.5t-71 -21.5z" />
    <glyph glyph-name="uni00A0" unicode="&#xa0;" horiz-adv-x="244" 
 />
    <glyph glyph-name="exclamdown" unicode="&#xa1;" horiz-adv-x="296" 
d="M198 288l4 -491h-103l5 491h94zM151 512q25 0 43.5 -18.5t18.5 -43.5q0 -26 -18.5 -44.5t-43.5 -18.5q-26 0 -44 18.5t-18 44.5q0 25 18 43.5t44 18.5z" />
    <glyph glyph-name="cent" unicode="&#xa2;" horiz-adv-x="537" 
d="M257 0v700h63v-700h-63zM294 98q-75 0 -133 33.5t-90.5 92.5t-32.5 136t32.5 136t90 92.5t131.5 33.5q73 0 131.5 -34t87.5 -97l-86 -36q-19 37 -54.5 58t-81.5 21q-45 0 -80 -22t-55 -61.5t-20 -90.5t20 -90t56 -61.5t81 -22.5q46 0 82 23.5t54 63.5l87 -35
q-29 -66 -87.5 -103t-132.5 -37z" />
    <glyph glyph-name="sterling" unicode="&#xa3;" horiz-adv-x="582" 
d="M47 0v90h24q21 0 36 18t15 44v134h-75v82h75v139q0 64 26.5 110t74 70.5t109.5 24.5q60 0 106 -24t72.5 -69.5t26.5 -112.5l-96 10q0 51 -31 81t-79 30q-49 0 -80.5 -33t-31.5 -87v-139h202v-82h-202v-121q0 -43 -19 -75h337v-90h-490z" />
    <glyph glyph-name="currency" unicode="&#xa4;" horiz-adv-x="567" 
d="M286 172q-51 0 -92 24.5t-64.5 64.5t-23.5 89q0 48 23.5 87.5t64.5 63t91 23.5q52 0 92.5 -23.5t64.5 -63t24 -87.5q0 -49 -24 -89t-64.5 -64.5t-91.5 -24.5zM130 142l-55 55l91 92l58 -54zM286 254q42 0 66.5 26t24.5 70q0 42 -25 67.5t-67 25.5q-40 0 -65 -25.5
t-25 -67.5q0 -44 25 -70t66 -26zM171 409l-97 94l56 57l98 -96zM436 142l-84 85l57 55l83 -85zM401 416l-58 54l93 90l56 -57z" />
    <glyph glyph-name="yen" unicode="&#xa5;" horiz-adv-x="558" 
d="M326 293l-85 32l197 384h111zM230 0v336h98v-336h-98zM89 185v64h379v-64h-379zM89 293v63h379v-63h-379zM231 293l-222 416h110l198 -384z" />
    <glyph glyph-name="brokenbar" unicode="&#xa6;" horiz-adv-x="280" 
d="M100 350v440h80v-440h-80zM100 -220v440h80v-440h-80z" />
    <glyph glyph-name="section" unicode="&#xa7;" horiz-adv-x="558" 
d="M285 -90q-56 0 -99 17t-70 45t-36 59l80 27q11 -31 42 -53t75 -23q53 0 83.5 21.5t30.5 57.5q0 32 -26 53t-70 31l-65 16q-56 15 -94 51t-38 95q0 74 49 115.5t139 41.5q50 0 86.5 -16.5t60.5 -44t35 -60.5l-71 -24q-13 32 -47.5 52t-74.5 20q-43 0 -68 -22t-25 -59
q0 -31 21 -48.5t55 -26.5l65 -16q73 -18 113 -60.5t40 -93.5q0 -67 -48.5 -111t-142.5 -44zM283 158q-50 0 -88 18t-62 47t-32 61l56 22q8 -19 27 -36t45 -27t54 -10q48 0 76.5 21t28.5 55q0 32 -26 52.5t-70 31.5l-64 17q-57 15 -95 50.5t-38 94.5q0 74 49 115.5t139 41.5
q52 0 90.5 -16t63.5 -43t36 -60l-79 -26q-12 32 -41.5 52t-74.5 20q-46 0 -72.5 -21.5t-26.5 -59.5q0 -31 21.5 -48.5t55.5 -25.5l64 -16q74 -18 114 -61t40 -94q0 -67 -49 -111t-142 -44z" />
    <glyph glyph-name="dieresis" unicode="&#xa8;" horiz-adv-x="452" 
d="M351 613q-22 0 -38 16t-16 37q0 22 16 38t38 16t37.5 -16t15.5 -38q0 -21 -15.5 -37t-37.5 -16zM101 613q-22 0 -38 16t-16 37q0 23 16 38.5t38 15.5t37.5 -15.5t15.5 -38.5q0 -21 -15.5 -37t-37.5 -16z" />
    <glyph glyph-name="copyright" unicode="&#xa9;" horiz-adv-x="809" 
d="M405 -11q-76 0 -142 27.5t-115.5 77t-77 115t-27.5 141.5t27.5 142t77 115.5t115.5 77t142 27.5t141.5 -27.5t115 -77t77 -115.5t27.5 -142t-27.5 -141.5t-77 -115t-115 -77t-141.5 -27.5zM404 152q-55 0 -97 25t-65.5 69.5t-23.5 103.5t23.5 103.5t65 69.5t96.5 25
q48 0 91.5 -25.5t65.5 -68.5l13 -26l-67 -26l-13 21q-13 23 -38 37.5t-52 14.5q-49 0 -79.5 -34.5t-30.5 -90.5q0 -55 31 -90t80 -35q27 0 52.5 17t40.5 43l9 18l70 -25l-12 -24q-23 -46 -67 -74t-93 -28zM405 60q83 0 147 37t100.5 103t36.5 150q0 85 -37 151t-101 103
t-146 37t-146.5 -37t-101.5 -103t-37 -151q0 -84 37 -150t101.5 -103t146.5 -37z" />
    <glyph glyph-name="ordfeminine" unicode="&#xaa;" horiz-adv-x="333" 
d="M224 400l-4 153q-1 29 -6 49t-18.5 30.5t-40.5 10.5q-21 0 -34.5 -8t-24.5 -24l-68 23q20 35 52 54t76 19q68 0 103.5 -37.5t35.5 -104.5v-165h-71zM138 393q-53 0 -82.5 24t-29.5 68q0 45 29.5 68.5t82.5 23.5h98v-49h-73q-60 0 -60 -42q0 -17 13 -26.5t35 -9.5
q31 0 49.5 20t18.5 52l31 6q0 -63 -29.5 -99t-82.5 -36z" />
    <glyph glyph-name="guillemotleft" unicode="&#xab;" horiz-adv-x="573" 
d="M406 96l-152 202l152 202h112l-150 -202l150 -202h-112zM201 96l-152 202l152 202h112l-150 -202l150 -202h-112z" />
    <glyph glyph-name="logicalnot" unicode="&#xac;" horiz-adv-x="626" 
d="M130 289v82h363v-82h-363zM411 182v189h82v-189h-82z" />
    <glyph glyph-name="registered" unicode="&#xae;" horiz-adv-x="621" 
d="M310 167q-56 0 -105.5 21t-87 58.5t-58.5 87t-21 105.5q0 57 21 106.5t58.5 86.5t87 58.5t105.5 21.5q57 0 106.5 -21.5t86.5 -58.5t58.5 -86.5t21.5 -106.5q0 -56 -21.5 -105.5t-58.5 -87t-86.5 -58.5t-106.5 -21zM310 226q63 0 110.5 27t74.5 75.5t27 110.5
q0 64 -27 112t-74.5 75t-110.5 27q-62 0 -109.5 -27t-74.5 -75t-27 -112q0 -62 27 -110.5t74.5 -75.5t109.5 -27zM208 298v292h107q46 0 75 -26t29 -68q0 -28 -15 -50t-41 -34l68 -114h-63l-59 104h-46v-104h-55zM263 454h53q20 0 33 11.5t13 30.5q0 20 -13.5 31.5
t-35.5 11.5h-50v-85z" />
    <glyph glyph-name="macron" unicode="&#xaf;" horiz-adv-x="300" 
d="M-6 571v84h312v-84h-312z" />
    <glyph glyph-name="degree" unicode="&#xb0;" horiz-adv-x="371" 
d="M185 437q-38 0 -70 19t-51.5 51.5t-19.5 70.5t19.5 69t51.5 49.5t70 18.5t70.5 -18t52 -49.5t19.5 -69.5t-19.5 -70.5t-51.5 -51.5t-71 -19zM185 507q27 0 46 21.5t19 49.5t-19 47.5t-46 19.5q-25 0 -44.5 -19.5t-19.5 -47.5t19.5 -49.5t44.5 -21.5z" />
    <glyph glyph-name="plusminus" unicode="&#xb1;" horiz-adv-x="626" 
d="M85 318v78h456v-78h-456zM85 9v70h456v-70h-456zM273 150v414h81v-414h-81z" />
    <glyph glyph-name="uni00B2" unicode="&#xb2;" horiz-adv-x="363" 
d="M114 429l-79 10q0 18 11 38.5t30 42t44 38.5l65 47q19 14 35.5 33.5t16.5 38.5q0 25 -17.5 41t-49.5 16q-28 0 -45.5 -16t-23.5 -37l-82 14q6 30 26.5 55.5t52 41t71.5 15.5q69 0 109 -36t40 -93q0 -39 -21 -68.5t-58 -56.5l-63 -46q-15 -10 -28.5 -24t-22.5 -28t-11 -26
zM35 380v59l60 12h229v-71h-289z" />
    <glyph glyph-name="uni00B3" unicode="&#xb3;" horiz-adv-x="354" 
d="M181 373q-56 0 -94 25t-49 65l73 22q9 -16 23.5 -29.5t41.5 -13.5q31 0 49 17.5t18 44.5q0 18 -9.5 32t-29.5 22t-53 8h-25v54h22q48 0 88 -15t63.5 -43t23.5 -67t-19.5 -66t-52 -41.5t-70.5 -14.5zM126 580v52h25q41 0 62.5 14t21.5 40q0 21 -16 36.5t-43 15.5
q-19 0 -36 -9.5t-27 -31.5l-72 21q9 29 29.5 49t48.5 30t59 10q39 0 70 -14.5t49 -40t18 -59.5q0 -37 -23.5 -62.5t-62 -38t-81.5 -12.5h-22z" />
    <glyph glyph-name="acute" unicode="&#xb4;" horiz-adv-x="233" 
d="M1 568l117 132h115l-129 -132h-103z" />
    <glyph glyph-name="uni00B5" unicode="&#xb5;" 
d="M265 -12q-75 0 -120 56t-44 170l48 30q0 -67 15.5 -103t43.5 -50t63 -15q61 0 95 43t34 121h41q0 -119 -45 -185.5t-131 -66.5zM54 -200v700h95v-419l-6 -1v-280h-89zM406 0l-6 92v408h94v-500h-88z" />
    <glyph glyph-name="paragraph" unicode="&#xb6;" horiz-adv-x="557" 
d="M241 250q-64 0 -113 29t-77 80t-28 116q0 67 28 117.5t77 79t113 28.5h54v-450h-54zM261 -84v784h80v-784h-80zM389 -84v784h79v-784h-79zM337 610v90h62v-90h-62z" />
    <glyph glyph-name="periodcentered" unicode="&#xb7;" horiz-adv-x="256" 
d="M128 267q-25 0 -43.5 18t-18.5 44t18.5 44t43.5 18q26 0 44.5 -18t18.5 -44t-18.5 -44t-44.5 -18z" />
    <glyph glyph-name="cedilla" unicode="&#xb8;" horiz-adv-x="220" 
d="M105 -210q-20 0 -43 5.5t-52 21.5l19 53q16 -8 32.5 -14.5t29.5 -6.5q18 0 32 7t14 27q0 24 -18 35.5t-55 16.5l29 71l60 -10l-12 -27q37 -13 52.5 -36t15.5 -50q0 -40 -25 -66.5t-79 -26.5z" />
    <glyph glyph-name="uni00B9" unicode="&#xb9;" horiz-adv-x="281" 
d="M128 380v378l8 42h69v-420h-77zM39 669v72q21 -1 48 17t49 42l51 -50q-37 -39 -73 -61.5t-75 -19.5z" />
    <glyph glyph-name="ordmasculine" unicode="&#xba;" horiz-adv-x="364" 
d="M183 393q-46 0 -81.5 20t-55.5 55.5t-20 81.5t20 81.5t55.5 55.5t80.5 20q69 0 112.5 -44t43.5 -113q0 -46 -20 -81.5t-55 -55.5t-80 -20zM183 464q34 0 55 24t21 62t-21.5 62t-55.5 24t-55.5 -24t-21.5 -62t22 -62t56 -24z" />
    <glyph glyph-name="guillemotright" unicode="&#xbb;" horiz-adv-x="573" 
d="M168 96h-112l150 202l-150 202h112l152 -202zM372 96h-112l150 202l-150 202h112l153 -202z" />
    <glyph glyph-name="onequarter" unicode="&#xbc;" horiz-adv-x="831" 
d="M128 280v378l8 42h69v-420h-77zM39 569v72q21 -1 48 17t49 42l51 -50q-37 -39 -73 -61.5t-75 -19.5zM107 0l481 700h86l-481 -700h-86zM523 116l-58 32l186 272l48 -44zM465 83v65l45 4h300v-69h-345zM660 0v376l-9 44h85v-420h-76z" />
    <glyph glyph-name="onehalf" unicode="&#xbd;" horiz-adv-x="863" 
d="M128 280v378l8 42h69v-420h-77zM39 569v72q21 -1 48 17t49 42l51 -50q-37 -39 -73 -61.5t-75 -19.5zM107 0l481 700h86l-481 -700h-86zM614 49l-79 10q0 18 11 38.5t30 42t44 38.5l65 47q19 14 35.5 33.5t16.5 38.5q0 25 -17.5 41t-49.5 16q-28 0 -45.5 -16t-23.5 -37
l-82 14q6 30 26.5 55.5t52 41t71.5 15.5q69 0 109 -36t40 -93q0 -39 -21 -68.5t-58 -56.5l-63 -46q-15 -10 -28.5 -24t-22.5 -28t-11 -26zM535 0v59l60 12h229v-71h-289z" />
    <glyph glyph-name="threequarters" unicode="&#xbe;" horiz-adv-x="904" 
d="M181 273q-56 0 -94 25t-49 65l73 22q9 -16 23.5 -29.5t41.5 -13.5q31 0 49 17.5t18 44.5q0 18 -9.5 32t-29.5 22t-53 8h-25v54h22q48 0 88 -15t63.5 -43t23.5 -67t-19.5 -66t-52 -41.5t-70.5 -14.5zM126 480v52h25q41 0 62.5 14t21.5 40q0 21 -16 36.5t-43 15.5
q-19 0 -36 -9.5t-27 -31.5l-72 21q9 29 29.5 49t48.5 30t59 10q39 0 70 -14.5t49 -40t18 -59.5q0 -37 -23.5 -62.5t-62 -38t-81.5 -12.5h-22zM180 0l481 700h86l-481 -700h-86zM596 116l-58 32l186 272l48 -44zM538 83v65l45 4h300v-69h-345zM733 0v376l-9 44h85v-420h-76z
" />
    <glyph glyph-name="questiondown" unicode="&#xbf;" horiz-adv-x="465" 
d="M306 307l2 -178l-58 -2q-62 -1 -102 -35.5t-40 -93.5q0 -55 38 -89.5t96 -34.5q43 0 75 20t44 51l87 -27q-19 -59 -73.5 -95.5t-132.5 -36.5q-67 0 -118 27.5t-80.5 75t-29.5 109.5q0 56 24.5 99t69 69.5t103.5 31.5l1 109h94zM259 513q26 0 44 -18t18 -45q0 -26 -18 -44
t-44 -18t-44 18t-18 44q0 27 18 45t44 18z" />
    <glyph glyph-name="Agrave" unicode="&#xc0;" horiz-adv-x="687" 
d="M9 0l282 700h105l282 -700h-105l-75 187h-309l-75 -187h-105zM223 275h241l-120 301zM347 747l-131 133h115l119 -133h-103z" />
    <glyph glyph-name="Aacute" unicode="&#xc1;" horiz-adv-x="687" 
d="M9 0l282 700h105l282 -700h-105l-75 187h-309l-75 -187h-105zM223 275h241l-120 301zM271 743l116 126h116l-129 -126h-103z" />
    <glyph glyph-name="Acircumflex" unicode="&#xc2;" horiz-adv-x="687" 
d="M9 0l282 700h105l282 -700h-105l-75 187h-309l-75 -187h-105zM223 275h241l-120 301zM421 759l-133 128v4h109l122 -132h-98zM165 759l122 132h109v-4l-134 -128h-97z" />
    <glyph glyph-name="Atilde" unicode="&#xc3;" horiz-adv-x="687" 
d="M9 0l282 700h105l282 -700h-105l-75 187h-309l-75 -187h-105zM223 275h241l-120 301zM425 740q-30 0 -48.5 11t-29.5 25t-21 25t-24 11q-15 0 -23.5 -8t-13.5 -29h-71q3 30 16.5 54.5t36.5 38.5t54 14q29 0 47 -11t30 -25t22.5 -25t24.5 -11q17 0 24.5 10.5t10.5 28.5h71
q-6 -45 -32 -77t-74 -32z" />
    <glyph glyph-name="Adieresis" unicode="&#xc4;" horiz-adv-x="687" 
d="M9 0l282 700h105l282 -700h-105l-75 187h-309l-75 -187h-105zM223 275h241l-120 301zM469 792q-22 0 -38 16t-16 37q0 22 16 38t38 16t37.5 -16t15.5 -38q0 -21 -15.5 -37t-37.5 -16zM219 792q-22 0 -38 16t-16 37q0 23 16 38.5t38 15.5t37.5 -15.5t15.5 -38.5
q0 -21 -15.5 -37t-37.5 -16z" />
    <glyph glyph-name="Aring" unicode="&#xc5;" horiz-adv-x="687" 
d="M9 0l282 700h105l282 -700h-105l-75 187h-309l-75 -187h-105zM223 275h241l-120 301zM343 730q-27 0 -50.5 13.5t-37.5 35.5t-14 49q0 28 14 50t37.5 35.5t50.5 13.5q28 0 51.5 -13.5t37 -35.5t13.5 -50q0 -27 -13.5 -49t-37 -35.5t-51.5 -13.5zM343 791q36 0 36 37
q0 38 -36 38t-36 -38q0 -37 36 -37z" />
    <glyph glyph-name="AE" unicode="&#xc6;" horiz-adv-x="1006" 
d="M9 0l418 700h498v-90h-321v-208h289v-88h-289v-224h323v-90h-424v187h-270l-112 -187h-112zM282 275h221v335h-21z" />
    <glyph glyph-name="Ccedilla" unicode="&#xc7;" horiz-adv-x="722" 
d="M387 -12q-100 0 -178 46.5t-122 128t-44 187.5t44 187.5t121 128t177 46.5q65 0 124 -23.5t105.5 -65t71.5 -96.5l-88 -40q-19 41 -52 71t-74.5 47t-86.5 17q-70 0 -125 -35t-86 -96t-31 -141t31.5 -142t87 -96.5t126.5 -34.5q46 0 87 18.5t73.5 51t52.5 74.5l88 -39
q-25 -57 -71 -101t-105.5 -68.5t-125.5 -24.5zM353 -210q-20 0 -43 5.5t-52 21.5l19 53q16 -8 32.5 -14.5t29.5 -6.5q18 0 32 7t14 27q0 24 -18 35.5t-55 16.5l29 71l60 -10l-12 -27q37 -13 52.5 -36t15.5 -50q0 -40 -25 -66.5t-79 -26.5z" />
    <glyph glyph-name="Egrave" unicode="&#xc8;" horiz-adv-x="591" 
d="M89 0v700h421v-90h-323v-208h291v-88h-291v-224h325v-90h-423zM305 747l-131 133h115l119 -133h-103z" />
    <glyph glyph-name="Eacute" unicode="&#xc9;" horiz-adv-x="591" 
d="M89 0v700h421v-90h-323v-208h291v-88h-291v-224h325v-90h-423zM230 743l116 126h115l-128 -126h-103z" />
    <glyph glyph-name="Ecircumflex" unicode="&#xca;" horiz-adv-x="591" 
d="M89 0v700h421v-90h-323v-208h291v-88h-291v-224h325v-90h-423zM380 759l-133 128v4h109l122 -132h-98zM124 759l122 132h109v-4l-134 -128h-97z" />
    <glyph glyph-name="Edieresis" unicode="&#xcb;" horiz-adv-x="591" 
d="M89 0v700h421v-90h-323v-208h291v-88h-291v-224h325v-90h-423zM428 792q-22 0 -38 16t-16 37q0 22 16 38t38 16t37.5 -16t15.5 -38q0 -21 -15.5 -37t-37.5 -16zM178 792q-22 0 -38 16t-16 37q0 23 16 38.5t38 15.5t37.5 -15.5t15.5 -38.5q0 -21 -15.5 -37t-37.5 -16z" />
    <glyph glyph-name="Igrave" unicode="&#xcc;" horiz-adv-x="276" 
d="M89 0v700h98v-700h-98zM142 747l-131 133h115l119 -133h-103z" />
    <glyph glyph-name="Iacute" unicode="&#xcd;" horiz-adv-x="276" 
d="M89 0v700h98v-700h-98zM66 743l116 126h116l-129 -126h-103z" />
    <glyph glyph-name="Icircumflex" unicode="&#xce;" horiz-adv-x="276" 
d="M89 0v700h98v-700h-98zM216 759l-133 128v4h109l122 -132h-98zM-40 759l122 132h109v-4l-134 -128h-97z" />
    <glyph glyph-name="Idieresis" unicode="&#xcf;" horiz-adv-x="283" 
d="M214 791q-22 0 -38 16t-16 38t16 38t38 16t37.5 -16t15.5 -38t-15.5 -38t-37.5 -16zM70 791q-22 0 -38 16t-16 38t16 38t38 16t38 -16t16 -38t-16 -38t-38 -16zM89 0v700h98v-700h-98z" />
    <glyph glyph-name="Eth" unicode="&#xd0;" horiz-adv-x="750" 
d="M69 311v77h321v-77h-321zM147 0v700h216q101 0 178.5 -44.5t121.5 -123.5t44 -182q0 -102 -44 -181t-121.5 -124t-178.5 -45h-216zM246 92h117q51 0 95.5 19.5t77.5 55t52 82.5t19 101t-19 101t-52 82.5t-77.5 55t-95.5 19.5h-117v-516z" />
    <glyph glyph-name="Ntilde" unicode="&#xd1;" horiz-adv-x="774" 
d="M89 0v700h101l396 -536v536h99v-700h-99l-399 541v-541h-98zM464 734q-30 0 -48.5 11t-29.5 25t-21 25t-24 11q-15 0 -23.5 -8t-13.5 -29h-71q3 30 16.5 54.5t36.5 38.5t54 14q29 0 47 -11t30 -25t22.5 -25t24.5 -11q17 0 24.5 10.5t10.5 28.5h71q-6 -45 -32 -77t-74 -32
z" />
    <glyph glyph-name="Ograve" unicode="&#xd2;" horiz-adv-x="779" 
d="M392 -12q-102 0 -181 46t-123.5 128t-44.5 188t44.5 187.5t122.5 128t180 46.5t180 -46.5t122 -128t44 -187.5t-44 -188t-121.5 -128t-178.5 -46zM392 78q72 0 127 35t86 96t31 141q0 79 -31.5 140.5t-87 96.5t-127.5 35t-128 -35t-87.5 -96.5t-31.5 -140.5
q0 -80 32 -141t88.5 -96t128.5 -35zM393 747l-131 133h115l119 -133h-103z" />
    <glyph glyph-name="Oacute" unicode="&#xd3;" horiz-adv-x="779" 
d="M392 -12q-102 0 -181 46t-123.5 128t-44.5 188t44.5 187.5t122.5 128t180 46.5t180 -46.5t122 -128t44 -187.5t-44 -188t-121.5 -128t-178.5 -46zM392 78q72 0 127 35t86 96t31 141q0 79 -31.5 140.5t-87 96.5t-127.5 35t-128 -35t-87.5 -96.5t-31.5 -140.5
q0 -80 32 -141t88.5 -96t128.5 -35zM315 743l121 126h118l-133 -126h-106z" />
    <glyph glyph-name="Ocircumflex" unicode="&#xd4;" horiz-adv-x="779" 
d="M392 -12q-102 0 -181 46t-123.5 128t-44.5 188t44.5 187.5t122.5 128t180 46.5t180 -46.5t122 -128t44 -187.5t-44 -188t-121.5 -128t-178.5 -46zM392 78q72 0 127 35t86 96t31 141q0 79 -31.5 140.5t-87 96.5t-127.5 35t-128 -35t-87.5 -96.5t-31.5 -140.5
q0 -80 32 -141t88.5 -96t128.5 -35zM467 759l-133 128v4h109l122 -132h-98zM211 759l122 132h109v-4l-134 -128h-97z" />
    <glyph glyph-name="Otilde" unicode="&#xd5;" horiz-adv-x="779" 
d="M392 -12q-102 0 -181 46t-123.5 128t-44.5 188t44.5 187.5t122.5 128t180 46.5t180 -46.5t122 -128t44 -187.5t-44 -188t-121.5 -128t-178.5 -46zM392 78q72 0 127 35t86 96t31 141q0 79 -31.5 140.5t-87 96.5t-127.5 35t-128 -35t-87.5 -96.5t-31.5 -140.5
q0 -80 32 -141t88.5 -96t128.5 -35zM471 740q-30 0 -48.5 11t-29.5 25t-21 25t-24 11q-15 0 -23.5 -8t-13.5 -29h-71q3 30 16.5 54.5t36.5 38.5t54 14q29 0 47 -11t30 -25t22.5 -25t24.5 -11q17 0 24.5 10.5t10.5 28.5h71q-6 -45 -32 -77t-74 -32z" />
    <glyph glyph-name="Odieresis" unicode="&#xd6;" horiz-adv-x="779" 
d="M392 -12q-102 0 -181 46t-123.5 128t-44.5 188t44.5 187.5t122.5 128t180 46.5t180 -46.5t122 -128t44 -187.5t-44 -188t-121.5 -128t-178.5 -46zM392 78q72 0 127 35t86 96t31 141q0 79 -31.5 140.5t-87 96.5t-127.5 35t-128 -35t-87.5 -96.5t-31.5 -140.5
q0 -80 32 -141t88.5 -96t128.5 -35zM515 792q-22 0 -38 16t-16 37q0 22 16 38t38 16t37.5 -16t15.5 -38q0 -21 -15.5 -37t-37.5 -16zM265 792q-22 0 -38 16t-16 37q0 23 16 38.5t38 15.5t37.5 -15.5t15.5 -38.5q0 -21 -15.5 -37t-37.5 -16z" />
    <glyph glyph-name="multiply" unicode="&#xd7;" horiz-adv-x="626" 
d="M454 100l-339 339l56 57l339 -340zM171 100l-56 56l339 340l56 -57z" />
    <glyph glyph-name="Oslash" unicode="&#xd8;" horiz-adv-x="785" 
d="M38 0l610 700h99l-610 -700h-99zM394 -12q-102 0 -180.5 46t-123.5 128t-45 188t44.5 187.5t122.5 128t180 46.5t180 -46.5t122 -128t44 -187.5t-43.5 -188t-121 -128t-179.5 -46zM394 78q72 0 127 35t86 96t31 141q0 79 -31.5 140.5t-87 96.5t-127.5 35t-127.5 -35
t-87.5 -96.5t-32 -140.5q0 -80 32 -141t88.5 -96t128.5 -35z" />
    <glyph glyph-name="Ugrave" unicode="&#xd9;" horiz-adv-x="706" 
d="M351 -15q-81 0 -142.5 33.5t-95.5 94t-34 139.5v448h98v-448q0 -52 22.5 -92t62 -62t91.5 -22t92 22t62 62t22 92v448h99v-448q0 -79 -34.5 -139.5t-97 -94t-145.5 -33.5zM357 747l-131 133h115l119 -133h-103z" />
    <glyph glyph-name="Uacute" unicode="&#xda;" horiz-adv-x="706" 
d="M351 -15q-81 0 -142.5 33.5t-95.5 94t-34 139.5v448h98v-448q0 -52 22.5 -92t62 -62t91.5 -22t92 22t62 62t22 92v448h99v-448q0 -79 -34.5 -139.5t-97 -94t-145.5 -33.5zM281 746l116 130h115l-128 -130h-103z" />
    <glyph glyph-name="Ucircumflex" unicode="&#xdb;" horiz-adv-x="706" 
d="M351 -15q-81 0 -142.5 33.5t-95.5 94t-34 139.5v448h98v-448q0 -52 22.5 -92t62 -62t91.5 -22t92 22t62 62t22 92v448h99v-448q0 -79 -34.5 -139.5t-97 -94t-145.5 -33.5zM431 759l-133 128v4h109l122 -132h-98zM175 759l122 132h109v-4l-134 -128h-97z" />
    <glyph glyph-name="Udieresis" unicode="&#xdc;" horiz-adv-x="706" 
d="M351 -15q-81 0 -142.5 33.5t-95.5 94t-34 139.5v448h98v-448q0 -52 22.5 -92t62 -62t91.5 -22t92 22t62 62t22 92v448h99v-448q0 -79 -34.5 -139.5t-97 -94t-145.5 -33.5zM479 792q-22 0 -38 16t-16 37q0 22 16 38t38 16t37.5 -16t15.5 -38q0 -21 -15.5 -37t-37.5 -16z
M229 792q-22 0 -38 16t-16 37q0 23 16 38.5t38 15.5t37.5 -15.5t15.5 -38.5q0 -21 -15.5 -37t-37.5 -16z" />
    <glyph glyph-name="Yacute" unicode="&#xdd;" horiz-adv-x="616" 
d="M259 0v293l-250 407h113l186 -306l186 306h114l-250 -406v-294h-99zM235 738l117 132h115l-129 -132h-103z" />
    <glyph glyph-name="Thorn" unicode="&#xde;" horiz-adv-x="592" 
d="M91 1v700h101v-116h137q70 0 124 -28.5t84 -79t30 -116.5t-28 -117t-77 -80t-113 -29h-157v-134h-101zM192 226h154q53 0 86.5 37.5t33.5 97.5t-39 97t-101 37h-134v-269z" />
    <glyph glyph-name="germandbls" unicode="&#xdf;" horiz-adv-x="570" 
d="M66 0v507q0 64 28.5 110t78.5 70.5t115 24.5q64 0 113.5 -24t77 -68t27.5 -105q0 -53 -21 -93t-60 -64q51 -23 77 -66t26 -104q0 -60 -27 -101.5t-77 -64t-118 -22.5h-51v89h44q62 0 97 28.5t35 76.5q0 53 -35 82.5t-95 29.5h-43v96h7q54 0 86 14t45.5 39t13.5 61
q0 50 -34.5 80.5t-87.5 30.5q-55 0 -89.5 -33t-34.5 -87v-507h-98z" />
    <glyph glyph-name="agrave" unicode="&#xe0;" horiz-adv-x="514" 
d="M226 -12q-89 0 -138.5 40.5t-49.5 112.5q0 77 51.5 117.5t143.5 40.5h134q-6 64 -33.5 96.5t-82.5 32.5q-39 0 -67.5 -16t-47.5 -50l-84 32q18 34 45 60.5t65 42t89 15.5q71 0 118 -28t70.5 -81t22.5 -131l-1 -272h-88l-3 64q-22 -36 -58 -56t-86 -20zM234 69
q41 0 71 17.5t47 49t17 72.5v16h-110q-69 0 -97 -21.5t-28 -59.5q0 -35 26.5 -54.5t73.5 -19.5zM255 568l-131 133h115l119 -133h-103z" />
    <glyph glyph-name="aacute" unicode="&#xe1;" horiz-adv-x="514" 
d="M226 -12q-89 0 -138.5 40.5t-49.5 112.5q0 77 51.5 117.5t143.5 40.5h134q-6 64 -33.5 96.5t-82.5 32.5q-39 0 -67.5 -16t-47.5 -50l-84 32q18 34 45 60.5t65 42t89 15.5q71 0 118 -28t70.5 -81t22.5 -131l-1 -272h-88l-3 64q-22 -36 -58 -56t-86 -20zM234 69
q41 0 71 17.5t47 49t17 72.5v16h-110q-69 0 -97 -21.5t-28 -59.5q0 -35 26.5 -54.5t73.5 -19.5zM179 568l117 132h115l-129 -132h-103z" />
    <glyph glyph-name="acircumflex" unicode="&#xe2;" horiz-adv-x="514" 
d="M226 -12q-89 0 -138.5 40.5t-49.5 112.5q0 77 51.5 117.5t143.5 40.5h134q-6 64 -33.5 96.5t-82.5 32.5q-39 0 -67.5 -16t-47.5 -50l-84 32q18 34 45 60.5t65 42t89 15.5q71 0 118 -28t70.5 -81t22.5 -131l-1 -272h-88l-3 64q-22 -36 -58 -56t-86 -20zM234 69
q41 0 71 17.5t47 49t17 72.5v16h-110q-69 0 -97 -21.5t-28 -59.5q0 -35 26.5 -54.5t73.5 -19.5zM329 580l-133 128v4h109l122 -132h-98zM73 580l122 132h109v-4l-134 -128h-97z" />
    <glyph glyph-name="atilde" unicode="&#xe3;" horiz-adv-x="514" 
d="M226 -12q-89 0 -138.5 40.5t-49.5 112.5q0 77 51.5 117.5t143.5 40.5h134q-6 64 -33.5 96.5t-82.5 32.5q-39 0 -67.5 -16t-47.5 -50l-84 32q18 34 45 60.5t65 42t89 15.5q71 0 118 -28t70.5 -81t22.5 -131l-1 -272h-88l-3 64q-22 -36 -58 -56t-86 -20zM234 69
q41 0 71 17.5t47 49t17 72.5v16h-110q-69 0 -97 -21.5t-28 -59.5q0 -35 26.5 -54.5t73.5 -19.5zM333 561q-30 0 -48.5 11t-29.5 25t-21 25t-24 11q-15 0 -23.5 -8t-13.5 -29h-71q3 30 16.5 54.5t36.5 38.5t54 14q29 0 47 -11t30 -25t22.5 -25t24.5 -11q17 0 24.5 10.5
t10.5 28.5h71q-6 -45 -32 -77t-74 -32z" />
    <glyph glyph-name="adieresis" unicode="&#xe4;" horiz-adv-x="514" 
d="M226 -12q-89 0 -138.5 40.5t-49.5 112.5q0 77 51.5 117.5t143.5 40.5h134q-6 64 -33.5 96.5t-82.5 32.5q-39 0 -67.5 -16t-47.5 -50l-84 32q18 34 45 60.5t65 42t89 15.5q71 0 118 -28t70.5 -81t22.5 -131l-1 -272h-88l-3 64q-22 -36 -58 -56t-86 -20zM234 69
q41 0 71 17.5t47 49t17 72.5v16h-110q-69 0 -97 -21.5t-28 -59.5q0 -35 26.5 -54.5t73.5 -19.5zM377 613q-22 0 -38 16t-16 37q0 22 16 38t38 16t37.5 -16t15.5 -38q0 -21 -15.5 -37t-37.5 -16zM127 613q-22 0 -38 16t-16 37q0 23 16 38.5t38 15.5t37.5 -15.5t15.5 -38.5
q0 -21 -15.5 -37t-37.5 -16z" />
    <glyph glyph-name="aring" unicode="&#xe5;" horiz-adv-x="514" 
d="M226 -12q-89 0 -138.5 40.5t-49.5 112.5q0 77 51.5 117.5t143.5 40.5h134q-6 64 -33.5 96.5t-82.5 32.5q-39 0 -67.5 -16t-47.5 -50l-84 32q18 34 45 60.5t65 42t89 15.5q71 0 118 -28t70.5 -81t22.5 -131l-1 -272h-88l-3 64q-22 -36 -58 -56t-86 -20zM234 69
q41 0 71 17.5t47 49t17 72.5v16h-110q-69 0 -97 -21.5t-28 -59.5q0 -35 26.5 -54.5t73.5 -19.5zM252 551q-27 0 -50.5 13.5t-37.5 35.5t-14 49q0 28 14 50t37.5 35.5t50.5 13.5q28 0 51.5 -13.5t37 -35.5t13.5 -50q0 -27 -13.5 -49t-37 -35.5t-51.5 -13.5zM252 612
q36 0 36 37q0 38 -36 38t-36 -38q0 -37 36 -37z" />
    <glyph glyph-name="ae" unicode="&#xe6;" horiz-adv-x="877" 
d="M374 174l-7 87q-5 56 -16 94t-36 57.5t-71 19.5q-41 0 -70 -16.5t-48 -49.5l-84 31q33 56 83.5 85.5t119.5 29.5q101 0 152 -61.5t51 -178.5v-98h-74zM224 -12q-88 0 -137 40.5t-49 112.5q0 75 49 115t137 40h176v-69h-150q-62 0 -90 -22t-28 -63q0 -37 27 -57.5
t74 -20.5q62 0 97.5 45t35.5 120l78 5q0 -113 -58 -179.5t-162 -66.5zM615 -12q-73 0 -129.5 33.5t-88.5 92.5t-32 136t32.5 136t88.5 92.5t129 33.5q69 0 121.5 -34.5t82 -98t29.5 -149.5h-386q5 -74 49.5 -115.5t109.5 -41.5q50 0 83.5 23.5t52.5 59.5l82 -38
q-19 -39 -51 -68.5t-75.5 -45.5t-97.5 -16zM468 305h278q-3 40 -22 67.5t-47.5 42.5t-63.5 15q-33 0 -65 -14.5t-54 -42.5t-26 -68z" />
    <glyph glyph-name="ccedilla" unicode="&#xe7;" horiz-adv-x="542" 
d="M294 -12q-75 0 -133 33.5t-90.5 92.5t-32.5 136t32.5 136t90 92.5t131.5 33.5q73 0 131.5 -34t87.5 -97l-86 -36q-19 37 -54.5 58t-81.5 21q-45 0 -80 -22t-55 -61.5t-20 -90.5t20 -90t56 -61.5t81 -22.5q46 0 82 23.5t54 63.5l87 -35q-29 -66 -87.5 -103t-132.5 -37z
M259 -210q-20 0 -43 5.5t-52 21.5l19 53q16 -8 32.5 -14.5t29.5 -6.5q18 0 32 7t14 27q0 24 -18 35.5t-55 16.5l29 71l60 -10l-12 -27q37 -13 52.5 -36t15.5 -50q0 -40 -25 -66.5t-79 -26.5z" />
    <glyph glyph-name="egrave" unicode="&#xe8;" horiz-adv-x="550" 
d="M287 -12q-73 0 -129 33.5t-88 92.5t-32 136t32 136t88.5 92.5t129.5 33.5q69 0 121 -34.5t81.5 -98t29.5 -149.5h-385q5 -74 49.5 -115.5t109.5 -41.5q50 0 83.5 23.5t52.5 59.5l82 -38q-20 -39 -52 -68.5t-75.5 -45.5t-97.5 -16zM141 305h277q-3 40 -21.5 67.5t-47 42.5
t-63.5 15q-34 0 -66 -14.5t-53.5 -42.5t-25.5 -68zM292 568l-131 133h115l119 -133h-103z" />
    <glyph glyph-name="eacute" unicode="&#xe9;" horiz-adv-x="550" 
d="M287 -12q-73 0 -129 33.5t-88 92.5t-32 136t32 136t88.5 92.5t129.5 33.5q69 0 121 -34.5t81.5 -98t29.5 -149.5h-385q5 -74 49.5 -115.5t109.5 -41.5q50 0 83.5 23.5t52.5 59.5l82 -38q-20 -39 -52 -68.5t-75.5 -45.5t-97.5 -16zM141 305h277q-3 40 -21.5 67.5t-47 42.5
t-63.5 15q-34 0 -66 -14.5t-53.5 -42.5t-25.5 -68zM216 568l117 132h115l-129 -132h-103z" />
    <glyph glyph-name="ecircumflex" unicode="&#xea;" horiz-adv-x="550" 
d="M287 -12q-73 0 -129 33.5t-88 92.5t-32 136t32 136t88.5 92.5t129.5 33.5q69 0 121 -34.5t81.5 -98t29.5 -149.5h-385q5 -74 49.5 -115.5t109.5 -41.5q50 0 83.5 23.5t52.5 59.5l82 -38q-20 -39 -52 -68.5t-75.5 -45.5t-97.5 -16zM141 305h277q-3 40 -21.5 67.5t-47 42.5
t-63.5 15q-34 0 -66 -14.5t-53.5 -42.5t-25.5 -68zM366 580l-133 128v4h109l122 -132h-98zM110 580l122 132h109v-4l-134 -128h-97z" />
    <glyph glyph-name="edieresis" unicode="&#xeb;" horiz-adv-x="550" 
d="M287 -12q-73 0 -129 33.5t-88 92.5t-32 136t32 136t88.5 92.5t129.5 33.5q69 0 121 -34.5t81.5 -98t29.5 -149.5h-385q5 -74 49.5 -115.5t109.5 -41.5q50 0 83.5 23.5t52.5 59.5l82 -38q-20 -39 -52 -68.5t-75.5 -45.5t-97.5 -16zM141 305h277q-3 40 -21.5 67.5t-47 42.5
t-63.5 15q-34 0 -66 -14.5t-53.5 -42.5t-25.5 -68zM414 613q-22 0 -38 16t-16 37q0 22 16 38t38 16t37.5 -16t15.5 -38q0 -21 -15.5 -37t-37.5 -16zM164 613q-22 0 -38 16t-16 37q0 23 16 38.5t38 15.5t37.5 -15.5t15.5 -38.5q0 -21 -15.5 -37t-37.5 -16z" />
    <glyph glyph-name="igrave" unicode="&#xec;" horiz-adv-x="240" 
d="M72 0v500h95v-500h-95zM123 568l-131 133h115l119 -133h-103z" />
    <glyph glyph-name="iacute" unicode="&#xed;" horiz-adv-x="240" 
d="M72 0v500h95v-500h-95zM47 568l117 132h115l-129 -132h-103z" />
    <glyph glyph-name="icircumflex" unicode="&#xee;" horiz-adv-x="240" 
d="M72 0v500h95v-500h-95zM197 580l-133 128v4h109l122 -132h-98zM-59 580l122 132h109v-4l-134 -128h-97z" />
    <glyph glyph-name="idieresis" unicode="&#xef;" horiz-adv-x="240" 
d="M192 613q-21 0 -37.5 16t-16.5 37q0 22 16.5 38t37.5 16q22 0 38 -16t16 -38q0 -21 -16 -37t-38 -16zM49 613q-22 0 -38 16t-16 37q0 23 16 38.5t38 15.5t37.5 -15.5t15.5 -38.5q0 -21 -15.5 -37t-37.5 -16zM72 0v500h95v-500h-95z" />
    <glyph glyph-name="eth" unicode="&#xf0;" horiz-adv-x="581" 
d="M286 -12q-72 0 -128.5 32t-88 89t-31.5 131t30 131t84.5 89.5t125.5 32.5q83 0 142 -60q-11 38 -30 69.5t-45 56.5l-72 -48l-32 48l55 36q-59 37 -148 57l18 83q66 -12 117.5 -34t92.5 -53l69 45l31 -47l-57 -38q41 -44 66.5 -100.5t36.5 -122t11 -139.5
q0 -76 -31.5 -134t-87.5 -91t-128 -33zM286 74q45 0 78.5 21t52.5 58.5t19 86.5t-19 86.5t-53.5 59t-79.5 21.5q-44 0 -78 -21.5t-53 -59t-19 -86.5t19.5 -86.5t54 -58.5t78.5 -21z" />
    <glyph glyph-name="ntilde" unicode="&#xf1;" 
d="M66 0v500h89l4 -73q25 41 64.5 63t90.5 22q59 0 102.5 -24t67 -74.5t23.5 -132.5v-281h-95v256q0 68 -15.5 103.5t-43 49.5t-63.5 15q-61 0 -95 -43t-34 -121v-260h-95zM360 561q-30 0 -48.5 11t-29.5 25t-21 25t-24 11q-15 0 -23.5 -8t-13.5 -29h-71q3 30 16.5 54.5
t36.5 38.5t54 14q29 0 47 -11t30 -25t22.5 -25t24.5 -11q17 0 24.5 10.5t10.5 28.5h71q-6 -45 -32 -77t-74 -32z" />
    <glyph glyph-name="ograve" unicode="&#xf2;" horiz-adv-x="580" 
d="M292 -12q-75 0 -132 33.5t-89.5 92.5t-32.5 136t32 136t89 92.5t131 33.5t131 -33.5t89 -92.5t32 -136t-32 -136t-88.5 -92.5t-129.5 -33.5zM292 75q45 0 80 22.5t54.5 61.5t19.5 91t-19.5 91t-55.5 61.5t-81 22.5q-46 0 -81 -22.5t-55 -61.5t-20 -91t20 -91t56 -61.5
t82 -22.5zM292 568l-131 133h115l119 -133h-103z" />
    <glyph glyph-name="oacute" unicode="&#xf3;" horiz-adv-x="580" 
d="M292 -12q-75 0 -132 33.5t-89.5 92.5t-32.5 136t32 136t89 92.5t131 33.5t131 -33.5t89 -92.5t32 -136t-32 -136t-88.5 -92.5t-129.5 -33.5zM292 75q45 0 80 22.5t54.5 61.5t19.5 91t-19.5 91t-55.5 61.5t-81 22.5q-46 0 -81 -22.5t-55 -61.5t-20 -91t20 -91t56 -61.5
t82 -22.5zM216 568l117 132h115l-129 -132h-103z" />
    <glyph glyph-name="ocircumflex" unicode="&#xf4;" horiz-adv-x="580" 
d="M292 -12q-75 0 -132 33.5t-89.5 92.5t-32.5 136t32 136t89 92.5t131 33.5t131 -33.5t89 -92.5t32 -136t-32 -136t-88.5 -92.5t-129.5 -33.5zM292 75q45 0 80 22.5t54.5 61.5t19.5 91t-19.5 91t-55.5 61.5t-81 22.5q-46 0 -81 -22.5t-55 -61.5t-20 -91t20 -91t56 -61.5
t82 -22.5zM366 580l-133 128v4h109l122 -132h-98zM110 580l122 132h109v-4l-134 -128h-97z" />
    <glyph glyph-name="otilde" unicode="&#xf5;" horiz-adv-x="580" 
d="M292 -12q-75 0 -132 33.5t-89.5 92.5t-32.5 136t32 136t89 92.5t131 33.5t131 -33.5t89 -92.5t32 -136t-32 -136t-88.5 -92.5t-129.5 -33.5zM292 75q45 0 80 22.5t54.5 61.5t19.5 91t-19.5 91t-55.5 61.5t-81 22.5q-46 0 -81 -22.5t-55 -61.5t-20 -91t20 -91t56 -61.5
t82 -22.5zM370 561q-30 0 -48.5 11t-29.5 25t-21 25t-24 11q-15 0 -23.5 -8t-13.5 -29h-71q3 30 16.5 54.5t36.5 38.5t54 14q29 0 47 -11t30 -25t22.5 -25t24.5 -11q17 0 24.5 10.5t10.5 28.5h71q-6 -45 -32 -77t-74 -32z" />
    <glyph glyph-name="odieresis" unicode="&#xf6;" horiz-adv-x="580" 
d="M292 -12q-75 0 -132 33.5t-89.5 92.5t-32.5 136t32 136t89 92.5t131 33.5t131 -33.5t89 -92.5t32 -136t-32 -136t-88.5 -92.5t-129.5 -33.5zM292 75q45 0 80 22.5t54.5 61.5t19.5 91t-19.5 91t-55.5 61.5t-81 22.5q-46 0 -81 -22.5t-55 -61.5t-20 -91t20 -91t56 -61.5
t82 -22.5zM414 613q-22 0 -38 16t-16 37q0 22 16 38t38 16t37.5 -16t15.5 -38q0 -21 -15.5 -37t-37.5 -16zM164 613q-22 0 -38 16t-16 37q0 23 16 38.5t38 15.5t37.5 -15.5t15.5 -38.5q0 -21 -15.5 -37t-37.5 -16z" />
    <glyph glyph-name="divide" unicode="&#xf7;" horiz-adv-x="626" 
d="M116 257v82h394v-82h-394zM313 92q-20 0 -34.5 15t-14.5 35t14.5 34.5t34.5 14.5t34.5 -14.5t14.5 -34.5t-14.5 -35t-34.5 -15zM313 404q-20 0 -35 15t-15 34q0 21 15 35.5t35 14.5t34.5 -14.5t14.5 -35.5q0 -19 -14.5 -34t-34.5 -15z" />
    <glyph glyph-name="oslash" unicode="&#xf8;" horiz-adv-x="579" 
d="M25 0l434 500h95l-435 -500h-94zM289 -12q-74 0 -131 33.5t-89.5 92.5t-32.5 136t32 136t89 92.5t130 33.5q75 0 132 -33.5t89 -92.5t32 -136t-32 -136t-88.5 -92.5t-130.5 -33.5zM289 75q46 0 81 22.5t54.5 61.5t19.5 91t-20 91t-55.5 61.5t-80.5 22.5
q-46 0 -81.5 -22.5t-55 -61.5t-19.5 -91t20 -91t56 -61.5t81 -22.5z" />
    <glyph glyph-name="ugrave" unicode="&#xf9;" 
d="M246 -12q-58 0 -101 24t-67 75t-24 132v281h95v-256q0 -67 15.5 -103t43.5 -50t63 -15q61 0 95 43t34 121v260h94v-500h-88l-4 73q-25 -41 -64.5 -63t-91.5 -22zM283 568l-131 133h115l119 -133h-103z" />
    <glyph glyph-name="uacute" unicode="&#xfa;" 
d="M246 -12q-58 0 -101 24t-67 75t-24 132v281h95v-256q0 -67 15.5 -103t43.5 -50t63 -15q61 0 95 43t34 121v260h94v-500h-88l-4 73q-25 -41 -64.5 -63t-91.5 -22zM207 568l117 132h115l-129 -132h-103z" />
    <glyph glyph-name="ucircumflex" unicode="&#xfb;" 
d="M246 -12q-58 0 -101 24t-67 75t-24 132v281h95v-256q0 -67 15.5 -103t43.5 -50t63 -15q61 0 95 43t34 121v260h94v-500h-88l-4 73q-25 -41 -64.5 -63t-91.5 -22zM357 580l-133 128v4h109l122 -132h-98zM101 580l122 132h109v-4l-134 -128h-97z" />
    <glyph glyph-name="udieresis" unicode="&#xfc;" 
d="M246 -12q-58 0 -101 24t-67 75t-24 132v281h95v-256q0 -67 15.5 -103t43.5 -50t63 -15q61 0 95 43t34 121v260h94v-500h-88l-4 73q-25 -41 -64.5 -63t-91.5 -22zM405 613q-22 0 -38 16t-16 37q0 22 16 38t38 16t37.5 -16t15.5 -38q0 -21 -15.5 -37t-37.5 -16zM155 613
q-22 0 -38 16t-16 37q0 23 16 38.5t38 15.5t37.5 -15.5t15.5 -38.5q0 -21 -15.5 -37t-37.5 -16z" />
    <glyph glyph-name="yacute" unicode="&#xfd;" horiz-adv-x="540" 
d="M127 -212q-22 0 -48.5 8t-54.5 21l35 78q22 -10 38.5 -15t26.5 -5q25 0 42.5 14t28.5 39l31 75l-218 497h101l162 -388l160 388h102l-237 -562q-19 -46 -40 -80t-51.5 -52t-77.5 -18zM197 568l117 132h115l-129 -132h-103z" />
    <glyph glyph-name="thorn" unicode="&#xfe;" horiz-adv-x="589" 
d="M66 -200v900h95v-280q27 44 68.5 68t95.5 24q67 0 118 -33t79.5 -91.5t28.5 -137.5q0 -78 -28.5 -137t-79.5 -92t-118 -33q-54 0 -95.5 24.5t-68.5 67.5v-280h-95zM302 74q45 0 79 22.5t53.5 62t19.5 91.5t-19 91.5t-53 62t-79 22.5q-41 0 -73.5 -22.5t-50.5 -62.5
t-18 -91q0 -52 18 -91.5t50 -62t73 -22.5z" />
    <glyph glyph-name="ydieresis" unicode="&#xff;" horiz-adv-x="540" 
d="M127 -212q-22 0 -48.5 8t-54.5 21l35 78q22 -10 38.5 -15t26.5 -5q25 0 42.5 14t28.5 39l31 75l-218 497h101l162 -388l160 388h102l-237 -562q-19 -46 -40 -80t-51.5 -52t-77.5 -18zM395 613q-22 0 -38 16t-16 37q0 22 16 38t38 16t37.5 -16t15.5 -38q0 -21 -15.5 -37
t-37.5 -16zM145 613q-22 0 -38 16t-16 37q0 23 16 38.5t38 15.5t37.5 -15.5t15.5 -38.5q0 -21 -15.5 -37t-37.5 -16z" />
    <glyph glyph-name="Amacron" unicode="&#x100;" horiz-adv-x="687" 
d="M9 0l282 700h105l282 -700h-105l-75 187h-309l-75 -187h-105zM223 275h241l-120 301zM188 750v84h312v-84h-312z" />
    <glyph glyph-name="amacron" unicode="&#x101;" horiz-adv-x="514" 
d="M226 -12q-89 0 -138.5 40.5t-49.5 112.5q0 77 51.5 117.5t143.5 40.5h134q-6 64 -33.5 96.5t-82.5 32.5q-39 0 -67.5 -16t-47.5 -50l-84 32q18 34 45 60.5t65 42t89 15.5q71 0 118 -28t70.5 -81t22.5 -131l-1 -272h-88l-3 64q-22 -36 -58 -56t-86 -20zM234 69
q41 0 71 17.5t47 49t17 72.5v16h-110q-69 0 -97 -21.5t-28 -59.5q0 -35 26.5 -54.5t73.5 -19.5zM96 571v84h312v-84h-312z" />
    <glyph glyph-name="Abreve" unicode="&#x102;" horiz-adv-x="687" 
d="M9 0l282 700h105l282 -700h-105l-75 187h-309l-75 -187h-105zM223 275h241l-120 301zM343 740q-50 0 -89.5 17.5t-62 49.5t-22.5 72h90q0 -29 23.5 -47.5t60.5 -18.5t60.5 18.5t23.5 47.5h90q0 -40 -22 -72t-61 -49.5t-91 -17.5z" />
    <glyph glyph-name="abreve" unicode="&#x103;" horiz-adv-x="514" 
d="M226 -12q-89 0 -138.5 40.5t-49.5 112.5q0 77 51.5 117.5t143.5 40.5h134q-6 64 -33.5 96.5t-82.5 32.5q-39 0 -67.5 -16t-47.5 -50l-84 32q18 34 45 60.5t65 42t89 15.5q71 0 118 -28t70.5 -81t22.5 -131l-1 -272h-88l-3 64q-22 -36 -58 -56t-86 -20zM234 69
q41 0 71 17.5t47 49t17 72.5v16h-110q-69 0 -97 -21.5t-28 -59.5q0 -35 26.5 -54.5t73.5 -19.5zM252 561q-50 0 -89.5 17.5t-62 49.5t-22.5 72h90q0 -29 23.5 -47.5t60.5 -18.5t60.5 18.5t23.5 47.5h90q0 -40 -22 -72t-61 -49.5t-91 -17.5z" />
    <glyph glyph-name="Aogonek" unicode="&#x104;" horiz-adv-x="687" 
d="M9 0l282 700h105l282 -700h-105l-75 187h-309l-75 -187h-105zM223 275h241l-120 301zM631 -212q-36 0 -63.5 11t-42.5 33t-15 54q0 36 28 67t64 56l75 -9q-32 -23 -58 -51t-26 -59q0 -14 9 -21.5t25 -7.5q15 0 27.5 3.5t17.5 6.5l29 -64q-14 -9 -31.5 -14t-38.5 -5z" />
    <glyph glyph-name="aogonek" unicode="&#x105;" horiz-adv-x="514" 
d="M226 -12q-89 0 -138.5 40.5t-49.5 112.5q0 77 51.5 117.5t143.5 40.5h134q-6 64 -33.5 96.5t-82.5 32.5q-39 0 -67.5 -16t-47.5 -50l-84 32q18 34 45 60.5t65 42t89 15.5q71 0 118 -28t70.5 -81t22.5 -131l-1 -272h-88l-3 64q-22 -36 -58 -56t-86 -20zM234 69
q41 0 71 17.5t47 49t17 72.5v16h-110q-69 0 -97 -21.5t-28 -59.5q0 -35 26.5 -54.5t73.5 -19.5zM413 -212q-36 0 -63.5 11t-42.5 33t-15 54q0 36 28 67t64 56l75 -9q-32 -23 -58 -51t-26 -59q0 -14 9 -21.5t25 -7.5q15 0 27.5 3.5t17.5 6.5l29 -64q-14 -9 -31.5 -14
t-38.5 -5z" />
    <glyph glyph-name="Cacute" unicode="&#x106;" horiz-adv-x="722" 
d="M387 -12q-100 0 -178 46.5t-122 128t-44 187.5t44 187.5t121 128t177 46.5q65 0 124 -23.5t105.5 -65t71.5 -96.5l-88 -40q-19 41 -52 71t-74.5 47t-86.5 17q-70 0 -125 -35t-86 -96t-31 -141t31.5 -142t87 -96.5t126.5 -34.5q46 0 87 18.5t73.5 51t52.5 74.5l88 -39
q-25 -57 -71 -101t-105.5 -68.5t-125.5 -24.5zM312 747l117 132h115l-129 -132h-103z" />
    <glyph glyph-name="cacute" unicode="&#x107;" horiz-adv-x="542" 
d="M294 -12q-75 0 -133 33.5t-90.5 92.5t-32.5 136t32.5 136t90 92.5t131.5 33.5q73 0 131.5 -34t87.5 -97l-86 -36q-19 37 -54.5 58t-81.5 21q-45 0 -80 -22t-55 -61.5t-20 -90.5t20 -90t56 -61.5t81 -22.5q46 0 82 23.5t54 63.5l87 -35q-29 -66 -87.5 -103t-132.5 -37z
M219 568l117 132h115l-129 -132h-103z" />
    <glyph glyph-name="Ccircumflex" unicode="&#x108;" horiz-adv-x="722" 
d="M387 -12q-100 0 -178 46.5t-122 128t-44 187.5t44 187.5t121 128t177 46.5q65 0 124 -23.5t105.5 -65t71.5 -96.5l-88 -40q-19 41 -52 71t-74.5 47t-86.5 17q-70 0 -125 -35t-86 -96t-31 -141t31.5 -142t87 -96.5t126.5 -34.5q46 0 87 18.5t73.5 51t52.5 74.5l88 -39
q-25 -57 -71 -101t-105.5 -68.5t-125.5 -24.5zM463 759l-133 128v4h109l122 -132h-98zM207 759l122 132h109v-4l-134 -128h-97z" />
    <glyph glyph-name="ccircumflex" unicode="&#x109;" horiz-adv-x="542" 
d="M294 -12q-75 0 -133 33.5t-90.5 92.5t-32.5 136t32.5 136t90 92.5t131.5 33.5q73 0 131.5 -34t87.5 -97l-86 -36q-19 37 -54.5 58t-81.5 21q-45 0 -80 -22t-55 -61.5t-20 -90.5t20 -90t56 -61.5t81 -22.5q46 0 82 23.5t54 63.5l87 -35q-29 -66 -87.5 -103t-132.5 -37z
M370 580l-133 128v4h109l122 -132h-98zM114 580l122 132h109v-4l-134 -128h-97z" />
    <glyph glyph-name="Cdotaccent" unicode="&#x10a;" horiz-adv-x="722" 
d="M387 -12q-100 0 -178 46.5t-122 128t-44 187.5t44 187.5t121 128t177 46.5q65 0 124 -23.5t105.5 -65t71.5 -96.5l-88 -40q-19 41 -52 71t-74.5 47t-86.5 17q-70 0 -125 -35t-86 -96t-31 -141t31.5 -142t87 -96.5t126.5 -34.5q46 0 87 18.5t73.5 51t52.5 74.5l88 -39
q-25 -57 -71 -101t-105.5 -68.5t-125.5 -24.5zM385 785q-23 0 -40 17.5t-17 40.5q0 24 17 40.5t40 16.5q24 0 40.5 -16.5t16.5 -40.5q0 -23 -16.5 -40.5t-40.5 -17.5z" />
    <glyph glyph-name="cdotaccent" unicode="&#x10b;" horiz-adv-x="542" 
d="M294 -12q-75 0 -133 33.5t-90.5 92.5t-32.5 136t32.5 136t90 92.5t131.5 33.5q73 0 131.5 -34t87.5 -97l-86 -36q-19 37 -54.5 58t-81.5 21q-45 0 -80 -22t-55 -61.5t-20 -90.5t20 -90t56 -61.5t81 -22.5q46 0 82 23.5t54 63.5l87 -35q-29 -66 -87.5 -103t-132.5 -37z
M292 606q-23 0 -40 17.5t-17 40.5q0 24 17 40.5t40 16.5q24 0 40.5 -16.5t16.5 -40.5q0 -23 -16.5 -40.5t-40.5 -17.5z" />
    <glyph glyph-name="Ccaron" unicode="&#x10c;" horiz-adv-x="722" 
d="M387 -12q-100 0 -178 46.5t-122 128t-44 187.5t44 187.5t121 128t177 46.5q65 0 124 -23.5t105.5 -65t71.5 -96.5l-88 -40q-19 41 -52 71t-74.5 47t-86.5 17q-70 0 -125 -35t-86 -96t-31 -141t31.5 -142t87 -96.5t126.5 -34.5q46 0 87 18.5t73.5 51t52.5 74.5l88 -39
q-25 -57 -71 -101t-105.5 -68.5t-125.5 -24.5zM335 747v2l126 130h99l-122 -132h-103zM328 747l-122 132h99l126 -130v-2h-103z" />
    <glyph glyph-name="ccaron" unicode="&#x10d;" horiz-adv-x="542" 
d="M294 -12q-75 0 -133 33.5t-90.5 92.5t-32.5 136t32.5 136t90 92.5t131.5 33.5q73 0 131.5 -34t87.5 -97l-86 -36q-19 37 -54.5 58t-81.5 21q-45 0 -80 -22t-55 -61.5t-20 -90.5t20 -90t56 -61.5t81 -22.5q46 0 82 23.5t54 63.5l87 -35q-29 -66 -87.5 -103t-132.5 -37z
M242 568v2l126 130h99l-122 -132h-103zM235 568l-122 132h99l126 -130v-2h-103z" />
    <glyph glyph-name="Dcaron" unicode="&#x10e;" horiz-adv-x="691" 
d="M89 0v700h216q100 0 177.5 -44.5t121.5 -123.5t44 -182q0 -102 -44 -181t-121.5 -124t-177.5 -45h-216zM187 92h118q51 0 95 19.5t77.5 55t52 82.5t18.5 101t-18.5 101t-52 82.5t-77.5 55t-95 19.5h-118v-516zM257 747v2l126 130h99l-122 -132h-103zM250 747l-122 132h99
l126 -130v-2h-103z" />
    <glyph glyph-name="dcaron" unicode="&#x10f;" horiz-adv-x="588" 
d="M264 -12q-68 0 -118.5 33t-79 92t-28.5 137q0 79 28.5 137.5t79 91.5t118.5 33q53 0 95 -24t69 -68v280h94v-700h-90l-3 81q-27 -44 -69 -68.5t-96 -24.5zM286 74q41 0 72.5 22t50 60.5t19.5 88.5v10q-1 50 -19.5 88.5t-50 60.5t-73.5 22q-44 0 -78 -22.5t-53 -62
t-19 -91.5t19.5 -91.5t53.5 -62t78 -22.5zM544 534l46 165h93l-62 -165h-77z" />
    <glyph glyph-name="Dcroat" unicode="&#x110;" horiz-adv-x="750" 
d="M69 311v77h321v-77h-321zM147 0v700h216q101 0 178.5 -44.5t121.5 -123.5t44 -182q0 -102 -44 -181t-121.5 -124t-178.5 -45h-216zM246 92h117q51 0 95.5 19.5t77.5 55t52 82.5t19 101t-19 101t-52 82.5t-77.5 55t-95.5 19.5h-117v-516z" />
    <glyph glyph-name="dcroat" unicode="&#x111;" horiz-adv-x="588" 
d="M274 564v69h321v-69h-321zM264 -12q-68 0 -118.5 33t-79 92t-28.5 137q0 79 28.5 137.5t79 91.5t118.5 33q53 0 95 -24t69 -68v280h94v-700h-90l-3 81q-27 -44 -69 -68.5t-96 -24.5zM286 74q41 0 72.5 22t50 60.5t19.5 88.5v10q-1 50 -19.5 88.5t-50 60.5t-73.5 22
q-44 0 -78 -22.5t-53 -62t-19 -91.5t19.5 -91.5t53.5 -62t78 -22.5z" />
    <glyph glyph-name="Emacron" unicode="&#x112;" horiz-adv-x="591" 
d="M89 0v700h421v-90h-323v-208h291v-88h-291v-224h325v-90h-423zM146 750v84h312v-84h-312z" />
    <glyph glyph-name="emacron" unicode="&#x113;" horiz-adv-x="550" 
d="M287 -12q-73 0 -129 33.5t-88 92.5t-32 136t32 136t88.5 92.5t129.5 33.5q69 0 121 -34.5t81.5 -98t29.5 -149.5h-385q5 -74 49.5 -115.5t109.5 -41.5q50 0 83.5 23.5t52.5 59.5l82 -38q-20 -39 -52 -68.5t-75.5 -45.5t-97.5 -16zM141 305h277q-3 40 -21.5 67.5t-47 42.5
t-63.5 15q-34 0 -66 -14.5t-53.5 -42.5t-25.5 -68zM133 571v84h312v-84h-312z" />
    <glyph glyph-name="Edotaccent" unicode="&#x116;" horiz-adv-x="591" 
d="M89 0v700h421v-90h-323v-208h291v-88h-291v-224h325v-90h-423zM302 785q-23 0 -40 17.5t-17 40.5q0 24 17 40.5t40 16.5q24 0 40.5 -16.5t16.5 -40.5q0 -23 -16.5 -40.5t-40.5 -17.5z" />
    <glyph glyph-name="edotaccent" unicode="&#x117;" horiz-adv-x="550" 
d="M287 -12q-73 0 -129 33.5t-88 92.5t-32 136t32 136t88.5 92.5t129.5 33.5q69 0 121 -34.5t81.5 -98t29.5 -149.5h-385q5 -74 49.5 -115.5t109.5 -41.5q50 0 83.5 23.5t52.5 59.5l82 -38q-20 -39 -52 -68.5t-75.5 -45.5t-97.5 -16zM141 305h277q-3 40 -21.5 67.5t-47 42.5
t-63.5 15q-34 0 -66 -14.5t-53.5 -42.5t-25.5 -68zM288 606q-23 0 -40 17.5t-17 40.5q0 24 17 40.5t40 16.5q24 0 40.5 -16.5t16.5 -40.5q0 -23 -16.5 -40.5t-40.5 -17.5z" />
    <glyph glyph-name="Eogonek" unicode="&#x118;" horiz-adv-x="591" 
d="M89 0v700h421v-90h-323v-208h291v-88h-291v-224h325v-90h-423zM466 -212q-36 0 -63.5 11t-42.5 33t-15 54q0 36 28 67t64 56l75 -9q-32 -23 -58 -51t-26 -59q0 -14 9 -21.5t25 -7.5q15 0 27.5 3.5t17.5 6.5l29 -64q-14 -9 -31.5 -14t-38.5 -5z" />
    <glyph glyph-name="eogonek" unicode="&#x119;" horiz-adv-x="550" 
d="M287 -12q-73 0 -129 33.5t-88 92.5t-32 136t32 136t88.5 92.5t129.5 33.5q69 0 121 -34.5t81.5 -98t29.5 -149.5h-385q5 -74 49.5 -115.5t109.5 -41.5q50 0 83.5 23.5t52.5 59.5l82 -38q-20 -39 -52 -68.5t-75.5 -45.5t-97.5 -16zM141 305h277q-3 40 -21.5 67.5t-47 42.5
t-63.5 15q-34 0 -66 -14.5t-53.5 -42.5t-25.5 -68zM454 -200q-40 0 -70.5 11t-47.5 31.5t-17 50.5q0 33 16 61.5t45 53.5t67 45h20q-26 -23 -41 -46t-21 -45.5t-6 -43.5t12.5 -33.5t33.5 -12.5q17 0 32 3t27 7l28 -63q-17 -10 -37 -14.5t-41 -4.5z" />
    <glyph glyph-name="Ecaron" unicode="&#x11a;" horiz-adv-x="591" 
d="M89 0v700h421v-90h-323v-208h291v-88h-291v-224h325v-90h-423zM252 747v2l126 130h99l-122 -132h-103zM245 747l-122 132h99l126 -130v-2h-103z" />
    <glyph glyph-name="ecaron" unicode="&#x11b;" horiz-adv-x="550" 
d="M287 -12q-73 0 -129 33.5t-88 92.5t-32 136t32 136t88.5 92.5t129.5 33.5q69 0 121 -34.5t81.5 -98t29.5 -149.5h-385q5 -74 49.5 -115.5t109.5 -41.5q50 0 83.5 23.5t52.5 59.5l82 -38q-20 -39 -52 -68.5t-75.5 -45.5t-97.5 -16zM141 305h277q-3 40 -21.5 67.5t-47 42.5
t-63.5 15q-34 0 -66 -14.5t-53.5 -42.5t-25.5 -68zM239 568v2l126 130h99l-122 -132h-103zM232 568l-122 132h99l126 -130v-2h-103z" />
    <glyph glyph-name="Gcircumflex" unicode="&#x11c;" horiz-adv-x="756" 
d="M407 -12q-106 0 -188.5 46.5t-129 128t-46.5 186.5q0 107 46.5 188.5t129 128t188.5 46.5q58 0 111.5 -18.5t97 -51t70.5 -74.5l-79 -52q-20 31 -52 55t-70.5 37.5t-77.5 13.5q-77 0 -136.5 -35t-93.5 -96t-34 -142q0 -79 33.5 -140t94 -96t138.5 -35q62 0 111 25.5
t77.5 71t29.5 105.5h-169v82h265v-72q-1 -91 -41.5 -159t-111.5 -105.5t-163 -37.5zM468 759l-133 128v4h109l122 -132h-98zM212 759l122 132h109v-4l-134 -128h-97z" />
    <glyph glyph-name="gcircumflex" unicode="&#x11d;" horiz-adv-x="591" 
d="M273 -213q-50 0 -91 9.5t-69 21.5t-42 21l36 77q13 -8 37 -18.5t56 -18t71 -7.5q46 0 82 18.5t56.5 57.5t20.5 100v52q-26 -44 -69 -68.5t-97 -24.5q-68 0 -118.5 31.5t-79 88t-28.5 130.5q0 77 28.5 134t79 89t118.5 32q54 0 97 -24.5t69 -70.5v83h95v-450
q0 -86 -32.5 -144.5t-89 -88.5t-130.5 -30zM288 87q42 0 73 22.5t49 61t18 88.5t-18 88t-49.5 59.5t-73.5 21.5q-44 0 -77.5 -21.5t-52.5 -59.5t-19 -88t19.5 -88.5t53 -61t77.5 -22.5zM358 580l-133 128v4h109l122 -132h-98zM102 580l122 132h109v-4l-134 -128h-97z" />
    <glyph glyph-name="Gbreve" unicode="&#x11e;" horiz-adv-x="756" 
d="M407 -12q-106 0 -188.5 46.5t-129 128t-46.5 186.5q0 107 46.5 188.5t129 128t188.5 46.5q58 0 111.5 -18.5t97 -51t70.5 -74.5l-79 -52q-20 31 -52 55t-70.5 37.5t-77.5 13.5q-77 0 -136.5 -35t-93.5 -96t-34 -142q0 -79 33.5 -140t94 -96t138.5 -35q62 0 111 25.5
t77.5 71t29.5 105.5h-169v82h265v-72q-1 -91 -41.5 -159t-111.5 -105.5t-163 -37.5zM386 761q-50 0 -89.5 17.5t-62 49.5t-22.5 72h90q0 -29 23.5 -47.5t60.5 -18.5t60.5 18.5t23.5 47.5h90q0 -40 -22 -72t-61 -49.5t-91 -17.5z" />
    <glyph glyph-name="gbreve" unicode="&#x11f;" horiz-adv-x="591" 
d="M273 -213q-50 0 -91 9.5t-69 21.5t-42 21l36 77q13 -8 37 -18.5t56 -18t71 -7.5q46 0 82 18.5t56.5 57.5t20.5 100v52q-26 -44 -69 -68.5t-97 -24.5q-68 0 -118.5 31.5t-79 88t-28.5 130.5q0 77 28.5 134t79 89t118.5 32q54 0 97 -24.5t69 -70.5v83h95v-450
q0 -86 -32.5 -144.5t-89 -88.5t-130.5 -30zM288 87q42 0 73 22.5t49 61t18 88.5t-18 88t-49.5 59.5t-73.5 21.5q-44 0 -77.5 -21.5t-52.5 -59.5t-19 -88t19.5 -88.5t53 -61t77.5 -22.5zM281 561q-50 0 -89.5 17.5t-62 49.5t-22.5 72h90q0 -29 23.5 -47.5t60.5 -18.5
t60.5 18.5t23.5 47.5h90q0 -40 -22 -72t-61 -49.5t-91 -17.5z" />
    <glyph glyph-name="Gdotaccent" unicode="&#x120;" horiz-adv-x="756" 
d="M407 -12q-106 0 -188.5 46.5t-129 128t-46.5 186.5q0 107 46.5 188.5t129 128t188.5 46.5q58 0 111.5 -18.5t97 -51t70.5 -74.5l-79 -52q-20 31 -52 55t-70.5 37.5t-77.5 13.5q-77 0 -136.5 -35t-93.5 -96t-34 -142q0 -79 33.5 -140t94 -96t138.5 -35q62 0 111 25.5
t77.5 71t29.5 105.5h-169v82h265v-72q-1 -91 -41.5 -159t-111.5 -105.5t-163 -37.5zM386 806q-23 0 -40 17.5t-17 40.5q0 24 17 40.5t40 16.5q24 0 40.5 -16.5t16.5 -40.5q0 -23 -16.5 -40.5t-40.5 -17.5z" />
    <glyph glyph-name="gdotaccent" unicode="&#x121;" horiz-adv-x="591" 
d="M273 -213q-50 0 -91 9.5t-69 21.5t-42 21l36 77q13 -8 37 -18.5t56 -18t71 -7.5q46 0 82 18.5t56.5 57.5t20.5 100v52q-26 -44 -69 -68.5t-97 -24.5q-68 0 -118.5 31.5t-79 88t-28.5 130.5q0 77 28.5 134t79 89t118.5 32q54 0 97 -24.5t69 -70.5v83h95v-450
q0 -86 -32.5 -144.5t-89 -88.5t-130.5 -30zM288 87q42 0 73 22.5t49 61t18 88.5t-18 88t-49.5 59.5t-73.5 21.5q-44 0 -77.5 -21.5t-52.5 -59.5t-19 -88t19.5 -88.5t53 -61t77.5 -22.5zM281 606q-23 0 -40 17.5t-17 40.5q0 24 17 40.5t40 16.5q24 0 40.5 -16.5t16.5 -40.5
q0 -23 -16.5 -40.5t-40.5 -17.5z" />
    <glyph glyph-name="uni0122" unicode="&#x122;" horiz-adv-x="756" 
d="M407 -12q-106 0 -188.5 46.5t-129 128t-46.5 186.5q0 107 46.5 188.5t129 128t188.5 46.5q58 0 111.5 -18.5t97 -51t70.5 -74.5l-79 -52q-20 31 -52 55t-70.5 37.5t-77.5 13.5q-77 0 -136.5 -35t-93.5 -96t-34 -142q0 -79 33.5 -140t94 -96t138.5 -35q62 0 111 25.5
t77.5 71t29.5 105.5h-169v82h265v-72q-1 -91 -41.5 -159t-111.5 -105.5t-163 -37.5zM318 -200l46 143h99l-68 -143h-77z" />
    <glyph glyph-name="uni0123" unicode="&#x123;" horiz-adv-x="591" 
d="M273 -213q-50 0 -91 9.5t-69 21.5t-42 21l36 77q13 -8 37 -18.5t56 -18t71 -7.5q46 0 82 18.5t56.5 57.5t20.5 100v52q-26 -44 -69 -68.5t-97 -24.5q-68 0 -118.5 31.5t-79 88t-28.5 130.5q0 77 28.5 134t79 89t118.5 32q54 0 97 -24.5t69 -70.5v83h95v-450
q0 -86 -32.5 -144.5t-89 -88.5t-130.5 -30zM288 87q42 0 73 22.5t49 61t18 88.5t-18 88t-49.5 59.5t-73.5 21.5q-44 0 -77.5 -21.5t-52.5 -59.5t-19 -88t19.5 -88.5t53 -61t77.5 -22.5zM388 713l-58 -135h-102l83 135h77z" />
    <glyph glyph-name="Hcircumflex" unicode="&#x124;" horiz-adv-x="751" 
d="M89 0v700h98v-295h377v295h98v-700h-98v315h-377v-315h-98zM455 759l-133 128v4h109l122 -132h-98zM199 759l122 132h109v-4l-134 -128h-97z" />
    <glyph glyph-name="hcircumflex" unicode="&#x125;" 
d="M67 0v700h94v-271q25 40 64 61.5t90 21.5q59 0 102 -24t67 -74.5t23 -132.5v-281h-94v256q0 68 -16 103.5t-43.5 49.5t-62.5 15q-62 0 -96 -43t-34 -121v-260h-94zM191 780l-133 128v4h109l122 -132h-98zM-65 780l122 132h109v-4l-134 -128h-97z" />
    <glyph glyph-name="Hbar" unicode="&#x126;" horiz-adv-x="751" 
d="M5 501v78h741v-78h-741zM89 0v700h98v-295h377v295h98v-700h-98v315h-377v-315h-98z" />
    <glyph glyph-name="hbar" unicode="&#x127;" 
d="M0 564v69h321v-69h-321zM67 0v700h94v-271q25 40 64 61.5t90 21.5q59 0 102 -24t67 -74.5t23 -132.5v-281h-94v256q0 68 -16 103.5t-43.5 49.5t-62.5 15q-62 0 -96 -43t-34 -121v-260h-94z" />
    <glyph glyph-name="Imacron" unicode="&#x12a;" horiz-adv-x="276" 
d="M89 0v700h98v-700h-98zM-17 750v84h312v-84h-312z" />
    <glyph glyph-name="imacron" unicode="&#x12b;" horiz-adv-x="240" 
d="M72 0v500h95v-500h-95zM-12 571v84h264v-84h-264z" />
    <glyph glyph-name="Iogonek" unicode="&#x12e;" horiz-adv-x="276" 
d="M89 0v700h98v-700h-98zM141 -212q-36 0 -63.5 11t-42.5 33t-15 54q0 36 28 67t64 56l75 -9q-32 -23 -58 -51t-26 -59q0 -14 9 -21.5t25 -7.5q15 0 27.5 3.5t17.5 6.5l29 -64q-14 -9 -31.5 -14t-38.5 -5z" />
    <glyph glyph-name="iogonek" unicode="&#x12f;" horiz-adv-x="240" 
d="M72 0v500h95v-500h-95zM120 606q-23 0 -40 17.5t-17 40.5q0 24 17 40.5t40 16.5q24 0 40.5 -16.5t16.5 -40.5q0 -23 -16.5 -40.5t-40.5 -17.5zM120 -212q-36 0 -63.5 11t-42.5 33t-15 54q0 36 28 67t64 56l75 -9q-32 -23 -58 -51t-26 -59q0 -14 9 -21.5t25 -7.5
q15 0 27.5 3.5t17.5 6.5l29 -64q-14 -9 -31.5 -14t-38.5 -5z" />
    <glyph glyph-name="Idotaccent" unicode="&#x130;" horiz-adv-x="276" 
d="M89 0v700h98v-700h-98zM138 785q-23 0 -40 17.5t-17 40.5q0 24 17 40.5t40 16.5q24 0 40.5 -16.5t16.5 -40.5q0 -23 -16.5 -40.5t-40.5 -17.5z" />
    <glyph glyph-name="dotlessi" unicode="&#x131;" horiz-adv-x="240" 
d="M72 0v500h95v-500h-95z" />
    <glyph glyph-name="IJ" unicode="&#x132;" horiz-adv-x="801" 
d="M89 0v700h98v-700h-98zM483 -12q-41 0 -73.5 12t-57.5 31.5t-42 44t-27 49.5l79 40q19 -39 48.5 -63t72.5 -24q35 0 67 16t53 53.5t21 98.5v454h98v-489q0 -55 -19.5 -96.5t-53 -70t-76.5 -42.5t-90 -14z" />
    <glyph glyph-name="ij" unicode="&#x133;" horiz-adv-x="515" 
d="M72 0v500h95v-500h-95zM120 606q-23 0 -40 17.5t-17 40.5q0 24 17 40.5t40 16.5q24 0 40.5 -16.5t16.5 -40.5q0 -23 -16.5 -40.5t-40.5 -17.5zM394 606q-24 0 -41 17.5t-17 40.5q0 24 17 41t41 17t41 -17t17 -41q0 -23 -17 -40.5t-41 -17.5zM283 -215q-43 0 -99 27l37 79
q21 -9 37 -14t26 -5q63 0 63 81v547h94v-551q0 -80 -40 -122t-118 -42z" />
    <glyph glyph-name="Jcircumflex" unicode="&#x134;" horiz-adv-x="525" 
d="M207 -12q-41 0 -73.5 12t-57.5 31.5t-42 44t-27 49.5l79 40q19 -39 48.5 -63t72.5 -24q35 0 67 16t53 53.5t21 98.5v454h98v-489q0 -55 -19.5 -96.5t-53 -70t-76.5 -42.5t-90 -14zM470 759l-133 128v4h109l122 -132h-98zM214 759l122 132h109v-4l-134 -128h-97z" />
    <glyph glyph-name="jcircumflex" unicode="&#x135;" horiz-adv-x="264" 
d="M43 -215q-43 0 -99 27l37 79q21 -9 37 -14t26 -5q63 0 63 81v547h94v-551q0 -80 -40 -122t-118 -42zM231 580l-133 128v4h109l122 -132h-98zM-25 580l122 132h109v-4l-134 -128h-97z" />
    <glyph glyph-name="uni0136" unicode="&#x136;" horiz-adv-x="625" 
d="M89 0v700h95v-310l297 310h125l-299 -315l312 -385h-121l-256 317l-58 -61v-256h-95zM224 -200l46 143h99l-68 -143h-77z" />
    <glyph glyph-name="uni0137" unicode="&#x137;" horiz-adv-x="500" 
d="M66 0v700h95v-415l201 215h116l-186 -203l205 -297h-114l-153 229l-69 -74v-155h-95zM165 -200l46 143h99l-68 -143h-77z" />
    <glyph glyph-name="Lacute" unicode="&#x139;" horiz-adv-x="524" 
d="M89 0v700h98v-610h325v-90h-423zM65 747l117 132h115l-129 -132h-103z" />
    <glyph glyph-name="lacute" unicode="&#x13a;" horiz-adv-x="227" 
d="M66 0v700h95v-700h-95zM41 747l117 132h115l-129 -132h-103z" />
    <glyph glyph-name="uni013B" unicode="&#x13b;" horiz-adv-x="524" 
d="M89 0v700h98v-610h325v-90h-423zM196 -200l46 143h99l-68 -143h-77z" />
    <glyph glyph-name="uni013C" unicode="&#x13c;" horiz-adv-x="227" 
d="M66 0v700h95v-700h-95zM25 -200l46 143h99l-68 -143h-77z" />
    <glyph glyph-name="Lcaron" unicode="&#x13d;" horiz-adv-x="524" 
d="M89 0v700h98v-610h325v-90h-423zM240 593l46 165h93l-62 -165h-77z" />
    <glyph glyph-name="lcaron" unicode="&#x13e;" horiz-adv-x="227" 
d="M66 0v700h95v-700h-95zM184 534l46 165h93l-62 -165h-77z" />
    <glyph glyph-name="Lslash" unicode="&#x141;" horiz-adv-x="524" 
d="M3 253v84l294 140v-84zM89 0v700h98v-610h325v-90h-423z" />
    <glyph glyph-name="lslash" unicode="&#x142;" horiz-adv-x="283" 
d="M14 250v81l255 126v-80zM94 0v700h94v-700h-94z" />
    <glyph glyph-name="Nacute" unicode="&#x143;" horiz-adv-x="774" 
d="M89 0v700h101l396 -536v536h99v-700h-99l-399 541v-541h-98zM310 741l117 132h115l-129 -132h-103z" />
    <glyph glyph-name="nacute" unicode="&#x144;" 
d="M66 0v500h89l4 -73q25 41 64.5 63t90.5 22q59 0 102.5 -24t67 -74.5t23.5 -132.5v-281h-95v256q0 68 -15.5 103.5t-43 49.5t-63.5 15q-61 0 -95 -43t-34 -121v-260h-95zM206 568l117 132h115l-129 -132h-103z" />
    <glyph glyph-name="uni0145" unicode="&#x145;" horiz-adv-x="774" 
d="M89 0v700h101l396 -536v536h99v-700h-99l-399 541v-541h-98zM299 -200l46 143h99l-68 -143h-77z" />
    <glyph glyph-name="uni0146" unicode="&#x146;" 
d="M66 0v500h89l4 -73q25 41 64.5 63t90.5 22q59 0 102.5 -24t67 -74.5t23.5 -132.5v-281h-95v256q0 68 -15.5 103.5t-43 49.5t-63.5 15q-61 0 -95 -43t-34 -121v-260h-95zM190 -200l46 143h99l-68 -143h-77z" />
    <glyph glyph-name="Ncaron" unicode="&#x147;" horiz-adv-x="774" 
d="M89 0v700h101l396 -536v536h99v-700h-99l-399 541v-541h-98zM333 741v2l126 130h99l-122 -132h-103zM326 741l-122 132h99l126 -130v-2h-103z" />
    <glyph glyph-name="ncaron" unicode="&#x148;" 
d="M66 0v500h89l4 -73q25 41 64.5 63t90.5 22q59 0 102.5 -24t67 -74.5t23.5 -132.5v-281h-95v256q0 68 -15.5 103.5t-43 49.5t-63.5 15q-61 0 -95 -43t-34 -121v-260h-95zM229 568v2l126 130h99l-122 -132h-103zM222 568l-122 132h99l126 -130v-2h-103z" />
    <glyph glyph-name="Eng" unicode="&#x14a;" horiz-adv-x="774" 
d="M526 -213q-43 0 -99 27l37 79q21 -9 37 -13.5t26 -4.5q62 0 62 80v404h96v-408q0 -80 -40.5 -122t-118.5 -42zM89 0v700h101l396 -536v536h99v-700h-99l-399 541v-541h-98z" />
    <glyph glyph-name="eng" unicode="&#x14b;" 
d="M348 -215q-42 0 -98 27l37 79q21 -9 37 -14t26 -5q62 0 62 81v303q0 68 -15.5 103.5t-43 49.5t-63.5 15q-61 0 -95 -43t-34 -121v-260h-95v500h89l4 -73q25 41 64.5 63t90.5 22q59 0 102.5 -24t67 -74.5t23.5 -132.5v-332q0 -80 -40.5 -122t-118.5 -42z" />
    <glyph glyph-name="Omacron" unicode="&#x14c;" horiz-adv-x="779" 
d="M392 -12q-102 0 -181 46t-123.5 128t-44.5 188t44.5 187.5t122.5 128t180 46.5t180 -46.5t122 -128t44 -187.5t-44 -188t-121.5 -128t-178.5 -46zM392 78q72 0 127 35t86 96t31 141q0 79 -31.5 140.5t-87 96.5t-127.5 35t-128 -35t-87.5 -96.5t-31.5 -140.5
q0 -80 32 -141t88.5 -96t128.5 -35zM200 750v84h378v-84h-378z" />
    <glyph glyph-name="omacron" unicode="&#x14d;" horiz-adv-x="580" 
d="M292 -12q-75 0 -132 33.5t-89.5 92.5t-32.5 136t32 136t89 92.5t131 33.5t131 -33.5t89 -92.5t32 -136t-32 -136t-88.5 -92.5t-129.5 -33.5zM292 75q45 0 80 22.5t54.5 61.5t19.5 91t-19.5 91t-55.5 61.5t-81 22.5q-46 0 -81 -22.5t-55 -61.5t-20 -91t20 -91t56 -61.5
t82 -22.5zM133 571v84h312v-84h-312z" />
    <glyph glyph-name="Ohungarumlaut" unicode="&#x150;" horiz-adv-x="779" 
d="M392 -12q-102 0 -181 46t-123.5 128t-44.5 188t44.5 187.5t122.5 128t180 46.5t180 -46.5t122 -128t44 -187.5t-44 -188t-121.5 -128t-178.5 -46zM392 78q72 0 127 35t86 96t31 141q0 79 -31.5 140.5t-87 96.5t-127.5 35t-128 -35t-87.5 -96.5t-31.5 -140.5
q0 -80 32 -141t88.5 -96t128.5 -35zM422 747l100 132h112l-112 -132h-100zM235 747l98 132h113l-112 -132h-99z" />
    <glyph glyph-name="ohungarumlaut" unicode="&#x151;" horiz-adv-x="580" 
d="M292 -12q-75 0 -132 33.5t-89.5 92.5t-32.5 136t32 136t89 92.5t131 33.5t131 -33.5t89 -92.5t32 -136t-32 -136t-88.5 -92.5t-129.5 -33.5zM292 75q45 0 80 22.5t54.5 61.5t19.5 91t-19.5 91t-55.5 61.5t-81 22.5q-46 0 -81 -22.5t-55 -61.5t-20 -91t20 -91t56 -61.5
t82 -22.5zM321 568l100 132h112l-112 -132h-100zM134 568l98 132h113l-112 -132h-99z" />
    <glyph glyph-name="OE" unicode="&#x152;" horiz-adv-x="1127" 
d="M392 -15q-102 0 -181 46.5t-123.5 129t-44.5 189.5t44.5 189.5t122.5 129t179 46.5q94 0 166 -43.5t112.5 -125t40.5 -195.5t-40.5 -196t-111.5 -126t-164 -44zM392 77q69 0 121.5 32t82 93t29.5 148t-30 148t-83.5 93t-121.5 32q-72 0 -127.5 -35t-87 -96.5
t-31.5 -141.5t31.5 -141.5t88 -96.5t128.5 -35zM625 0v700h422v-90h-323v-208h290v-88h-290v-224h325v-90h-424z" />
    <glyph glyph-name="oe" unicode="&#x153;" horiz-adv-x="989" 
d="M292 -12q-75 0 -132 33.5t-89.5 92.5t-32.5 136t32 136t89 92.5t131 33.5t131 -33.5t89 -92.5t32 -136t-32 -136t-88.5 -92.5t-129.5 -33.5zM292 75q45 0 80 22.5t54.5 61.5t19.5 91t-19.5 91t-55.5 61.5t-81 22.5q-46 0 -81 -22.5t-55 -61.5t-20 -91t20 -91t56 -61.5
t82 -22.5zM727 -12q-73 0 -129 33.5t-88 92.5t-32 136t32 136t88.5 92.5t129.5 33.5q69 0 121 -34.5t81.5 -98t29.5 -149.5h-385q5 -74 49.5 -115.5t109.5 -41.5q50 0 83.5 23.5t52.5 59.5l82 -38q-20 -39 -52 -68.5t-75.5 -45.5t-97.5 -16zM581 305h277q-3 40 -21.5 67.5
t-47 42.5t-63.5 15q-34 0 -66 -14.5t-53.5 -42.5t-25.5 -68z" />
    <glyph glyph-name="Racute" unicode="&#x154;" horiz-adv-x="631" 
d="M89 0v700h236q70 0 123.5 -27.5t84 -76t30.5 -112.5q0 -69 -39 -121t-102 -76l169 -287h-111l-156 268h-13h-14h-110v-268h-98zM187 358h147q36 0 64.5 16.5t46 45t17.5 64.5q0 56 -39 91t-101 35h-135v-252zM219 747l117 132h115l-129 -132h-103z" />
    <glyph glyph-name="racute" unicode="&#x155;" horiz-adv-x="349" 
d="M66 0v500h95v-90q30 47 77.5 69.5t99.5 22.5v-90q-45 0 -85.5 -13.5t-66 -44t-25.5 -82.5v-272h-95zM92 568l117 132h115l-129 -132h-103z" />
    <glyph glyph-name="uni0156" unicode="&#x156;" horiz-adv-x="631" 
d="M89 0v700h236q70 0 123.5 -27.5t84 -76t30.5 -112.5q0 -69 -39 -121t-102 -76l169 -287h-111l-156 268h-13h-14h-110v-268h-98zM187 358h147q36 0 64.5 16.5t46 45t17.5 64.5q0 56 -39 91t-101 35h-135v-252zM227 -200l46 143h99l-68 -143h-77z" />
    <glyph glyph-name="uni0157" unicode="&#x157;" horiz-adv-x="349" 
d="M66 0v500h95v-90q30 47 77.5 69.5t99.5 22.5v-90q-45 0 -85.5 -13.5t-66 -44t-25.5 -82.5v-272h-95zM49 -200l46 143h99l-68 -143h-77z" />
    <glyph glyph-name="Rcaron" unicode="&#x158;" horiz-adv-x="631" 
d="M89 0v700h236q70 0 123.5 -27.5t84 -76t30.5 -112.5q0 -69 -39 -121t-102 -76l169 -287h-111l-156 268h-13h-14h-110v-268h-98zM187 358h147q36 0 64.5 16.5t46 45t17.5 64.5q0 56 -39 91t-101 35h-135v-252zM242 747v2l126 130h99l-122 -132h-103zM235 747l-122 132h99
l126 -130v-2h-103z" />
    <glyph glyph-name="rcaron" unicode="&#x159;" horiz-adv-x="349" 
d="M66 0v500h95v-90q30 47 77.5 69.5t99.5 22.5v-90q-45 0 -85.5 -13.5t-66 -44t-25.5 -82.5v-272h-95zM115 568v2l126 130h99l-122 -132h-103zM108 568l-122 132h99l126 -130v-2h-103z" />
    <glyph glyph-name="Sacute" unicode="&#x15a;" horiz-adv-x="612" 
d="M315 -12q-56 0 -101.5 13t-79 35.5t-55.5 50.5t-31 59l95 31q15 -41 57 -71t103 -31q74 0 116.5 29.5t42.5 78.5q0 45 -37 73.5t-98 43.5l-81 21q-48 13 -87.5 37t-62.5 61t-23 89q0 96 62.5 150t180.5 54q68 0 118 -21.5t82.5 -56.5t46.5 -77l-95 -32q-17 45 -58 72.5
t-101 27.5q-63 0 -99.5 -30t-36.5 -82q0 -44 28.5 -67.5t76.5 -35.5l81 -20q98 -24 151.5 -79.5t53.5 -121.5q0 -57 -28.5 -102.5t-84 -72t-136.5 -26.5zM243 747l117 132h115l-129 -132h-103z" />
    <glyph glyph-name="sacute" unicode="&#x15b;" horiz-adv-x="473" 
d="M245 -12q-53 0 -94.5 16t-70 43t-42.5 61l82 36q16 -31 48 -51t71 -20q43 0 71 16t28 45q0 28 -21 44t-61 26l-47 12q-70 19 -108.5 57t-38.5 86q0 73 47 113t139 40q45 0 82.5 -13t64 -37t37.5 -57l-80 -36q-12 30 -41 44.5t-68 14.5q-40 0 -63 -17.5t-23 -48.5
q0 -17 19.5 -32.5t57.5 -25.5l54 -13q49 -12 81 -36.5t48 -55t16 -63.5q0 -45 -24.5 -78.5t-67 -51.5t-96.5 -18zM175 568l117 132h115l-129 -132h-103z" />
    <glyph glyph-name="Scircumflex" unicode="&#x15c;" horiz-adv-x="612" 
d="M315 -12q-56 0 -101.5 13t-79 35.5t-55.5 50.5t-31 59l95 31q15 -41 57 -71t103 -31q74 0 116.5 29.5t42.5 78.5q0 45 -37 73.5t-98 43.5l-81 21q-48 13 -87.5 37t-62.5 61t-23 89q0 96 62.5 150t180.5 54q68 0 118 -21.5t82.5 -56.5t46.5 -77l-95 -32q-17 45 -58 72.5
t-101 27.5q-63 0 -99.5 -30t-36.5 -82q0 -44 28.5 -67.5t76.5 -35.5l81 -20q98 -24 151.5 -79.5t53.5 -121.5q0 -57 -28.5 -102.5t-84 -72t-136.5 -26.5zM393 759l-133 128v4h109l122 -132h-98zM137 759l122 132h109v-4l-134 -128h-97z" />
    <glyph glyph-name="scircumflex" unicode="&#x15d;" horiz-adv-x="473" 
d="M245 -12q-53 0 -94.5 16t-70 43t-42.5 61l82 36q16 -31 48 -51t71 -20q43 0 71 16t28 45q0 28 -21 44t-61 26l-47 12q-70 19 -108.5 57t-38.5 86q0 73 47 113t139 40q45 0 82.5 -13t64 -37t37.5 -57l-80 -36q-12 30 -41 44.5t-68 14.5q-40 0 -63 -17.5t-23 -48.5
q0 -17 19.5 -32.5t57.5 -25.5l54 -13q49 -12 81 -36.5t48 -55t16 -63.5q0 -45 -24.5 -78.5t-67 -51.5t-96.5 -18zM325 580l-133 128v4h109l122 -132h-98zM69 580l122 132h109v-4l-134 -128h-97z" />
    <glyph glyph-name="Scedilla" unicode="&#x15e;" horiz-adv-x="612" 
d="M315 -12q-56 0 -101.5 13t-79 35.5t-55.5 50.5t-31 59l95 31q15 -41 57 -71t103 -31q74 0 116.5 29.5t42.5 78.5q0 45 -37 73.5t-98 43.5l-81 21q-48 13 -87.5 37t-62.5 61t-23 89q0 96 62.5 150t180.5 54q68 0 118 -21.5t82.5 -56.5t46.5 -77l-95 -32q-17 45 -58 72.5
t-101 27.5q-63 0 -99.5 -30t-36.5 -82q0 -44 28.5 -67.5t76.5 -35.5l81 -20q98 -24 151.5 -79.5t53.5 -121.5q0 -57 -28.5 -102.5t-84 -72t-136.5 -26.5zM280 -210q-20 0 -43 5.5t-52 21.5l19 53q16 -8 32.5 -14.5t29.5 -6.5q18 0 32 7t14 27q0 24 -18 35.5t-55 16.5l29 71
l60 -10l-12 -27q37 -13 52.5 -36t15.5 -50q0 -40 -25 -66.5t-79 -26.5z" />
    <glyph glyph-name="scedilla" unicode="&#x15f;" horiz-adv-x="473" 
d="M245 -12q-53 0 -94.5 16t-70 43t-42.5 61l82 36q16 -31 48 -51t71 -20q43 0 71 16t28 45q0 28 -21 44t-61 26l-47 12q-70 19 -108.5 57t-38.5 86q0 73 47 113t139 40q45 0 82.5 -13t64 -37t37.5 -57l-80 -36q-12 30 -41 44.5t-68 14.5q-40 0 -63 -17.5t-23 -48.5
q0 -17 19.5 -32.5t57.5 -25.5l54 -13q49 -12 81 -36.5t48 -55t16 -63.5q0 -45 -24.5 -78.5t-67 -51.5t-96.5 -18zM210 -210q-20 0 -43 5.5t-52 21.5l19 53q16 -8 32.5 -14.5t29.5 -6.5q18 0 32 7t14 27q0 24 -18 35.5t-55 16.5l29 71l60 -10l-12 -27q37 -13 52.5 -36
t15.5 -50q0 -40 -25 -66.5t-79 -26.5z" />
    <glyph glyph-name="Scaron" unicode="&#x160;" horiz-adv-x="612" 
d="M315 -12q-56 0 -101.5 13t-79 35.5t-55.5 50.5t-31 59l95 31q15 -41 57 -71t103 -31q74 0 116.5 29.5t42.5 78.5q0 45 -37 73.5t-98 43.5l-81 21q-48 13 -87.5 37t-62.5 61t-23 89q0 96 62.5 150t180.5 54q68 0 118 -21.5t82.5 -56.5t46.5 -77l-95 -32q-17 45 -58 72.5
t-101 27.5q-63 0 -99.5 -30t-36.5 -82q0 -44 28.5 -67.5t76.5 -35.5l81 -20q98 -24 151.5 -79.5t53.5 -121.5q0 -57 -28.5 -102.5t-84 -72t-136.5 -26.5zM266 747v2l126 130h99l-122 -132h-103zM259 747l-122 132h99l126 -130v-2h-103z" />
    <glyph glyph-name="scaron" unicode="&#x161;" horiz-adv-x="473" 
d="M245 -12q-53 0 -94.5 16t-70 43t-42.5 61l82 36q16 -31 48 -51t71 -20q43 0 71 16t28 45q0 28 -21 44t-61 26l-47 12q-70 19 -108.5 57t-38.5 86q0 73 47 113t139 40q45 0 82.5 -13t64 -37t37.5 -57l-80 -36q-12 30 -41 44.5t-68 14.5q-40 0 -63 -17.5t-23 -48.5
q0 -17 19.5 -32.5t57.5 -25.5l54 -13q49 -12 81 -36.5t48 -55t16 -63.5q0 -45 -24.5 -78.5t-67 -51.5t-96.5 -18zM198 568v2l126 130h99l-122 -132h-103zM191 568l-122 132h99l126 -130v-2h-103z" />
    <glyph glyph-name="Tcaron" unicode="&#x164;" 
d="M231 0v610h-219v90h537v-90h-219v-610h-99zM231 747v2l126 130h99l-122 -132h-103zM224 747l-122 132h99l126 -130v-2h-103z" />
    <glyph glyph-name="tcaron" unicode="&#x165;" horiz-adv-x="393" 
d="M259 -12q-75 0 -116 38.5t-41 110.5v281h-85v82h85v156h95v-156h142v-82h-142v-267q0 -37 18.5 -56.5t53.5 -19.5q10 0 22 4t29 16l36 -74q-26 -17 -49.5 -25t-47.5 -8zM238 561l46 157h93l-62 -157h-77z" />
    <glyph glyph-name="Umacron" unicode="&#x16a;" horiz-adv-x="706" 
d="M351 -15q-81 0 -142.5 33.5t-95.5 94t-34 139.5v448h98v-448q0 -52 22.5 -92t62 -62t91.5 -22t92 22t62 62t22 92v448h99v-448q0 -79 -34.5 -139.5t-97 -94t-145.5 -33.5zM198 750v84h312v-84h-312z" />
    <glyph glyph-name="umacron" unicode="&#x16b;" 
d="M246 -12q-58 0 -101 24t-67 75t-24 132v281h95v-256q0 -67 15.5 -103t43.5 -50t63 -15q61 0 95 43t34 121v260h94v-500h-88l-4 73q-25 -41 -64.5 -63t-91.5 -22zM124 571v84h312v-84h-312z" />
    <glyph glyph-name="Ubreve" unicode="&#x16c;" horiz-adv-x="706" 
d="M351 -15q-81 0 -142.5 33.5t-95.5 94t-34 139.5v448h98v-448q0 -52 22.5 -92t62 -62t91.5 -22t92 22t62 62t22 92v448h99v-448q0 -79 -34.5 -139.5t-97 -94t-145.5 -33.5zM353 740q-50 0 -89.5 17.5t-62 49.5t-22.5 72h90q0 -29 23.5 -47.5t60.5 -18.5t60.5 18.5
t23.5 47.5h90q0 -40 -22 -72t-61 -49.5t-91 -17.5z" />
    <glyph glyph-name="ubreve" unicode="&#x16d;" 
d="M246 -12q-58 0 -101 24t-67 75t-24 132v281h95v-256q0 -67 15.5 -103t43.5 -50t63 -15q61 0 95 43t34 121v260h94v-500h-88l-4 73q-25 -41 -64.5 -63t-91.5 -22zM279 561q-50 0 -89.5 17.5t-62 49.5t-22.5 72h90q0 -29 23.5 -47.5t60.5 -18.5t60.5 18.5t23.5 47.5h90
q0 -40 -22 -72t-61 -49.5t-91 -17.5z" />
    <glyph glyph-name="Uring" unicode="&#x16e;" horiz-adv-x="706" 
d="M351 -15q-81 0 -142.5 33.5t-95.5 94t-34 139.5v448h98v-448q0 -52 22.5 -92t62 -62t91.5 -22t92 22t62 62t22 92v448h99v-448q0 -79 -34.5 -139.5t-97 -94t-145.5 -33.5zM353 730q-27 0 -50.5 13.5t-37.5 35.5t-14 49q0 28 14 50t37.5 35.5t50.5 13.5q28 0 51.5 -13.5
t37 -35.5t13.5 -50q0 -27 -13.5 -49t-37 -35.5t-51.5 -13.5zM353 791q36 0 36 37q0 38 -36 38t-36 -38q0 -37 36 -37z" />
    <glyph glyph-name="uring" unicode="&#x16f;" 
d="M246 -12q-58 0 -101 24t-67 75t-24 132v281h95v-256q0 -67 15.5 -103t43.5 -50t63 -15q61 0 95 43t34 121v260h94v-500h-88l-4 73q-25 -41 -64.5 -63t-91.5 -22zM279 551q-27 0 -50.5 13.5t-37.5 35.5t-14 49q0 28 14 50t37.5 35.5t50.5 13.5q28 0 51.5 -13.5t37 -35.5
t13.5 -50q0 -27 -13.5 -49t-37 -35.5t-51.5 -13.5zM279 612q36 0 36 37q0 38 -36 38t-36 -38q0 -37 36 -37z" />
    <glyph glyph-name="Uhungarumlaut" unicode="&#x170;" horiz-adv-x="706" 
d="M351 -15q-81 0 -142.5 33.5t-95.5 94t-34 139.5v448h98v-448q0 -52 22.5 -92t62 -62t91.5 -22t92 22t62 62t22 92v448h99v-448q0 -79 -34.5 -139.5t-97 -94t-145.5 -33.5zM386 747l100 132h112l-112 -132h-100zM199 747l98 132h113l-112 -132h-99z" />
    <glyph glyph-name="uhungarumlaut" unicode="&#x171;" 
d="M246 -12q-58 0 -101 24t-67 75t-24 132v281h95v-256q0 -67 15.5 -103t43.5 -50t63 -15q61 0 95 43t34 121v260h94v-500h-88l-4 73q-25 -41 -64.5 -63t-91.5 -22zM312 568l100 132h112l-112 -132h-100zM125 568l98 132h113l-112 -132h-99z" />
    <glyph glyph-name="Uogonek" unicode="&#x172;" horiz-adv-x="706" 
d="M351 -15q-81 0 -142.5 33.5t-95.5 94t-34 139.5v448h98v-448q0 -52 22.5 -92t62 -62t91.5 -22t92 22t62 62t22 92v448h99v-448q0 -79 -34.5 -139.5t-97 -94t-145.5 -33.5zM532 -200q-40 0 -70.5 11t-47.5 31.5t-17 50.5q0 33 16 61.5t45 53.5t67 45h20q-26 -23 -41 -46
t-21 -45.5t-6 -43.5t12.5 -33.5t33.5 -12.5q17 0 32 3t27 7l28 -63q-17 -10 -37 -14.5t-41 -4.5z" />
    <glyph glyph-name="uogonek" unicode="&#x173;" 
d="M246 -12q-58 0 -101 24t-67 75t-24 132v281h95v-256q0 -67 15.5 -103t43.5 -50t63 -15q61 0 95 43t34 121v260h94v-500h-88l-4 73q-25 -41 -64.5 -63t-91.5 -22zM448 -212q-36 0 -63.5 11t-42.5 33t-15 54q0 36 28 67t64 56l75 -9q-32 -23 -58 -51t-26 -59q0 -14 9 -21.5
t25 -7.5q15 0 27.5 3.5t17.5 6.5l29 -64q-14 -9 -31.5 -14t-38.5 -5z" />
    <glyph glyph-name="Wcircumflex" unicode="&#x174;" horiz-adv-x="967" 
d="M221 0l-212 700h100l165 -548l160 548h99l157 -545l168 545h99l-215 -700h-105l-154 542l-157 -542h-105zM560 750l-133 128v4h109l122 -132h-98zM304 750l122 132h109v-4l-134 -128h-97z" />
    <glyph glyph-name="wcircumflex" unicode="&#x175;" horiz-adv-x="798" 
d="M180 0l-170 500h96l123 -370l124 370h94l122 -366l124 366h95l-170 -500h-94l-124 376l-125 -376h-95zM477 580l-133 128v4h109l122 -132h-98zM221 580l122 132h109v-4l-134 -128h-97z" />
    <glyph glyph-name="Ycircumflex" unicode="&#x176;" horiz-adv-x="616" 
d="M259 0v293l-250 407h113l186 -306l186 306h114l-250 -406v-294h-99zM385 750l-133 128v4h109l122 -132h-98zM129 750l122 132h109v-4l-134 -128h-97z" />
    <glyph glyph-name="ycircumflex" unicode="&#x177;" horiz-adv-x="540" 
d="M127 -212q-22 0 -48.5 8t-54.5 21l35 78q22 -10 38.5 -15t26.5 -5q25 0 42.5 14t28.5 39l31 75l-218 497h101l162 -388l160 388h102l-237 -562q-19 -46 -40 -80t-51.5 -52t-77.5 -18zM347 580l-133 128v4h109l122 -132h-98zM91 580l122 132h109v-4l-134 -128h-97z" />
    <glyph glyph-name="Ydieresis" unicode="&#x178;" horiz-adv-x="616" 
d="M259 0v293l-250 407h113l186 -306l186 306h114l-250 -406v-294h-99zM433 783q-22 0 -38 16t-16 37q0 22 16 38t38 16t37.5 -16t15.5 -38q0 -21 -15.5 -37t-37.5 -16zM183 783q-22 0 -38 16t-16 37q0 23 16 38.5t38 15.5t37.5 -15.5t15.5 -38.5q0 -21 -15.5 -37t-37.5 -16
z" />
    <glyph glyph-name="Zacute" unicode="&#x179;" horiz-adv-x="638" 
d="M44 0v92l424 516h-421v92h547v-92l-424 -516h421v-92h-547zM247 747l117 132h115l-129 -132h-103z" />
    <glyph glyph-name="zacute" unicode="&#x17a;" horiz-adv-x="488" 
d="M41 0v73l282 346h-282v81h403v-71l-283 -348h285v-81h-405zM170 568l117 132h115l-129 -132h-103z" />
    <glyph glyph-name="Zdotaccent" unicode="&#x17b;" horiz-adv-x="638" 
d="M44 0v92l424 516h-421v92h547v-92l-424 -516h421v-92h-547zM320 785q-23 0 -40 17.5t-17 40.5q0 24 17 40.5t40 16.5q24 0 40.5 -16.5t16.5 -40.5q0 -23 -16.5 -40.5t-40.5 -17.5z" />
    <glyph glyph-name="zdotaccent" unicode="&#x17c;" horiz-adv-x="488" 
d="M41 0v73l282 346h-282v81h403v-71l-283 -348h285v-81h-405zM242 606q-23 0 -40 17.5t-17 40.5q0 24 17 40.5t40 16.5q24 0 40.5 -16.5t16.5 -40.5q0 -23 -16.5 -40.5t-40.5 -17.5z" />
    <glyph glyph-name="Zcaron" unicode="&#x17d;" horiz-adv-x="638" 
d="M44 0v92l424 516h-421v92h547v-92l-424 -516h421v-92h-547zM270 747v2l126 130h99l-122 -132h-103zM263 747l-122 132h99l126 -130v-2h-103z" />
    <glyph glyph-name="zcaron" unicode="&#x17e;" horiz-adv-x="488" 
d="M41 0v73l282 346h-282v81h403v-71l-283 -348h285v-81h-405zM193 568v2l126 130h99l-122 -132h-103zM186 568l-122 132h99l126 -130v-2h-103z" />
    <glyph glyph-name="uni01CD" unicode="&#x1cd;" horiz-adv-x="687" 
d="M9 0l282 700h105l282 -700h-105l-75 187h-309l-75 -187h-105zM223 275h241l-120 301zM294 747v2l126 130h99l-122 -132h-103zM287 747l-122 132h99l126 -130v-2h-103z" />
    <glyph glyph-name="uni01CE" unicode="&#x1ce;" horiz-adv-x="514" 
d="M226 -12q-89 0 -138.5 40.5t-49.5 112.5q0 77 51.5 117.5t143.5 40.5h134q-6 64 -33.5 96.5t-82.5 32.5q-39 0 -67.5 -16t-47.5 -50l-84 32q18 34 45 60.5t65 42t89 15.5q71 0 118 -28t70.5 -81t22.5 -131l-1 -272h-88l-3 64q-22 -36 -58 -56t-86 -20zM234 69
q41 0 71 17.5t47 49t17 72.5v16h-110q-69 0 -97 -21.5t-28 -59.5q0 -35 26.5 -54.5t73.5 -19.5zM202 568v2l126 130h99l-122 -132h-103zM195 568l-122 132h99l126 -130v-2h-103z" />
    <glyph glyph-name="uni0218" unicode="&#x218;" horiz-adv-x="612" 
d="M315 -12q-56 0 -101.5 13t-79 35.5t-55.5 50.5t-31 59l95 31q15 -41 57 -71t103 -31q74 0 116.5 29.5t42.5 78.5q0 45 -37 73.5t-98 43.5l-81 21q-48 13 -87.5 37t-62.5 61t-23 89q0 96 62.5 150t180.5 54q68 0 118 -21.5t82.5 -56.5t46.5 -77l-95 -32q-17 45 -58 72.5
t-101 27.5q-63 0 -99.5 -30t-36.5 -82q0 -44 28.5 -67.5t76.5 -35.5l81 -20q98 -24 151.5 -79.5t53.5 -121.5q0 -57 -28.5 -102.5t-84 -72t-136.5 -26.5zM226 -200l46 143h99l-68 -143h-77z" />
    <glyph glyph-name="uni0219" unicode="&#x219;" horiz-adv-x="473" 
d="M245 -12q-53 0 -94.5 16t-70 43t-42.5 61l82 36q16 -31 48 -51t71 -20q43 0 71 16t28 45q0 28 -21 44t-61 26l-47 12q-70 19 -108.5 57t-38.5 86q0 73 47 113t139 40q45 0 82.5 -13t64 -37t37.5 -57l-80 -36q-12 30 -41 44.5t-68 14.5q-40 0 -63 -17.5t-23 -48.5
q0 -17 19.5 -32.5t57.5 -25.5l54 -13q49 -12 81 -36.5t48 -55t16 -63.5q0 -45 -24.5 -78.5t-67 -51.5t-96.5 -18zM156 -200l46 143h99l-68 -143h-77z" />
    <glyph glyph-name="uni021A" unicode="&#x21a;" 
d="M231 0v610h-219v90h537v-90h-219v-610h-99zM192 -200l46 143h99l-68 -143h-77z" />
    <glyph glyph-name="uni021B" unicode="&#x21b;" horiz-adv-x="384" 
d="M259 -12q-75 0 -116 38.5t-41 110.5v281h-85v82h85v156h95v-156h142v-82h-142v-267q0 -37 18.5 -56.5t53.5 -19.5q10 0 22 4t29 16l36 -74q-26 -17 -49.5 -25t-47.5 -8zM124 -200l46 143h99l-68 -143h-77z" />
    <glyph glyph-name="uni0237" unicode="&#x237;" horiz-adv-x="264" 
d="M43 -215q-43 0 -99 27l37 79q21 -9 37 -14t26 -5q63 0 63 81v547h94v-551q0 -80 -40 -122t-118 -42z" />
    <glyph glyph-name="circumflex" unicode="&#x2c6;" horiz-adv-x="374" 
d="M266 580l-133 128v4h109l122 -132h-98zM10 580l122 132h109v-4l-134 -128h-97z" />
    <glyph glyph-name="caron" unicode="&#x2c7;" horiz-adv-x="374" 
d="M136 568v2l126 130h99l-122 -132h-103zM129 568l-122 132h99l126 -130v-2h-103z" />
    <glyph glyph-name="breve" unicode="&#x2d8;" horiz-adv-x="348" 
d="M174 561q-50 0 -89.5 17.5t-62 49.5t-22.5 72h90q0 -29 23.5 -47.5t60.5 -18.5t60.5 18.5t23.5 47.5h90q0 -40 -22 -72t-61 -49.5t-91 -17.5z" />
    <glyph glyph-name="dotaccent" unicode="&#x2d9;" horiz-adv-x="114" 
d="M57 606q-23 0 -40 17.5t-17 40.5q0 24 17 40.5t40 16.5q24 0 40.5 -16.5t16.5 -40.5q0 -23 -16.5 -40.5t-40.5 -17.5z" />
    <glyph glyph-name="ring" unicode="&#x2da;" horiz-adv-x="368" 
d="M194 551q-28 0 -51.5 13.5t-37.5 35.5t-14 49q0 28 14 50t37.5 35.5t51.5 13.5q27 0 50.5 -13.5t37 -35.5t13.5 -50q0 -27 -13.5 -49t-37 -35.5t-50.5 -13.5zM194 612q35 0 35 37q0 38 -35 38q-37 0 -37 -38q0 -37 37 -37z" />
    <glyph glyph-name="ogonek" unicode="&#x2db;" horiz-adv-x="247" 
d="M155 -212q-36 0 -63.5 11t-42.5 33t-15 54q0 36 28 67t64 56l75 -9q-32 -23 -58 -51t-26 -59q0 -14 9 -21.5t25 -7.5q15 0 27.5 3.5t17.5 6.5l29 -64q-14 -9 -31.5 -14t-38.5 -5z" />
    <glyph glyph-name="tilde" unicode="&#x2dc;" horiz-adv-x="357" 
d="M241 561q-30 0 -48.5 11t-29.5 25t-21 25t-24 11q-15 0 -23.5 -8t-13.5 -29h-71q3 30 16.5 54.5t36.5 38.5t54 14q29 0 47 -11t30 -25t22.5 -25t24.5 -11q17 0 24.5 10.5t10.5 28.5h71q-6 -45 -32 -77t-74 -32z" />
    <glyph glyph-name="hungarumlaut" unicode="&#x2dd;" horiz-adv-x="413" 
d="M198 568l100 132h112l-112 -132h-100zM11 568l98 132h113l-112 -132h-99z" />
    <glyph glyph-name="gravecomb" unicode="&#x300;" horiz-adv-x="0" 
d="M246 568l-131 133h115l119 -133h-103z" />
    <glyph glyph-name="acutecomb" unicode="&#x301;" horiz-adv-x="0" 
d="M233 568l117 132h115l-129 -132h-103z" />
    <glyph glyph-name="uni0302" unicode="&#x302;" horiz-adv-x="0" 
d="M259 580l-133 128v4h109l122 -132h-98zM3 580l122 132h109v-4l-134 -128h-97z" />
    <glyph glyph-name="tildecomb" unicode="&#x303;" horiz-adv-x="0" 
d="M335 561q-30 0 -48.5 11t-29.5 25t-21 25t-24 11q-15 0 -23.5 -8t-13.5 -29h-71q3 30 16.5 54.5t36.5 38.5t54 14q29 0 47 -11t30 -25t22.5 -25t24.5 -11q17 0 24.5 10.5t10.5 28.5h71q-6 -45 -32 -77t-74 -32z" />
    <glyph glyph-name="uni0304" unicode="&#x304;" horiz-adv-x="0" 
d="M-6 571v84h312v-84h-312z" />
    <glyph glyph-name="uni0306" unicode="&#x306;" horiz-adv-x="0" 
d="M174 561q-50 0 -89.5 17.5t-62 49.5t-22.5 72h90q0 -29 23.5 -47.5t60.5 -18.5t60.5 18.5t23.5 47.5h90q0 -40 -22 -72t-61 -49.5t-91 -17.5z" />
    <glyph glyph-name="uni0307" unicode="&#x307;" horiz-adv-x="0" 
d="M57 606q-23 0 -40 17.5t-17 40.5q0 24 17 40.5t40 16.5q24 0 40.5 -16.5t16.5 -40.5q0 -23 -16.5 -40.5t-40.5 -17.5z" />
    <glyph glyph-name="uni0308" unicode="&#x308;" horiz-adv-x="0" 
d="M302 613q-22 0 -38 16t-16 37q0 22 16 38t38 16t37.5 -16t15.5 -38q0 -21 -15.5 -37t-37.5 -16zM52 613q-22 0 -38 16t-16 37q0 23 16 38.5t38 15.5t37.5 -15.5t15.5 -38.5q0 -21 -15.5 -37t-37.5 -16z" />
    <glyph glyph-name="uni030A" unicode="&#x30a;" horiz-adv-x="0" 
d="M149 551q-27 0 -50.5 13.5t-37.5 35.5t-14 49q0 28 14 50t37.5 35.5t50.5 13.5q28 0 51.5 -13.5t37 -35.5t13.5 -50q0 -27 -13.5 -49t-37 -35.5t-51.5 -13.5zM149 612q36 0 36 37q0 38 -36 38t-36 -38q0 -37 36 -37z" />
    <glyph glyph-name="uni030B" unicode="&#x30b;" horiz-adv-x="0" 
d="M188 568l100 132h112l-112 -132h-100zM1 568l98 132h113l-112 -132h-99z" />
    <glyph glyph-name="uni030C" unicode="&#x30c;" horiz-adv-x="0" 
d="M129 568v2l126 130h99l-122 -132h-103zM122 568l-122 132h99l126 -130v-2h-103z" />
    <glyph glyph-name="uni0312" unicode="&#x312;" horiz-adv-x="0" 
d="M160 713l-58 -135h-102l83 135h77z" />
    <glyph glyph-name="uni0326" unicode="&#x326;" horiz-adv-x="0" 
d="M14 -200l46 143h99l-68 -143h-77z" />
    <glyph glyph-name="uni0327" unicode="&#x327;" horiz-adv-x="0" 
d="M266 -210q-20 0 -43 5.5t-52 21.5l19 53q16 -8 32.5 -14.5t29.5 -6.5q18 0 32 7t14 27q0 24 -18 35.5t-55 16.5l29 71l60 -10l-12 -27q37 -13 52.5 -36t15.5 -50q0 -40 -25 -66.5t-79 -26.5z" />
    <glyph glyph-name="uni0328" unicode="&#x328;" horiz-adv-x="0" 
d="M155 -212q-36 0 -63.5 11t-42.5 33t-15 54q0 36 28 67t64 56l75 -9q-32 -23 -58 -51t-26 -59q0 -14 9 -21.5t25 -7.5q15 0 27.5 3.5t17.5 6.5l29 -64q-14 -9 -31.5 -14t-38.5 -5z" />
    <glyph glyph-name="Wgrave" unicode="&#x1e80;" horiz-adv-x="967" 
d="M221 0l-212 700h100l165 -548l160 548h99l157 -545l168 545h99l-215 -700h-105l-154 542l-157 -542h-105zM486 738l-131 133h115l119 -133h-103z" />
    <glyph glyph-name="wgrave" unicode="&#x1e81;" horiz-adv-x="798" 
d="M180 0l-170 500h96l123 -370l124 370h94l122 -366l124 366h95l-170 -500h-94l-124 376l-125 -376h-95zM403 568l-131 133h115l119 -133h-103z" />
    <glyph glyph-name="Wacute" unicode="&#x1e82;" horiz-adv-x="967" 
d="M221 0l-212 700h100l165 -548l160 548h99l157 -545l168 545h99l-215 -700h-105l-154 542l-157 -542h-105zM410 738l117 132h115l-129 -132h-103z" />
    <glyph glyph-name="wacute" unicode="&#x1e83;" horiz-adv-x="798" 
d="M180 0l-170 500h96l123 -370l124 370h94l122 -366l124 366h95l-170 -500h-94l-124 376l-125 -376h-95zM327 568l117 132h115l-129 -132h-103z" />
    <glyph glyph-name="Wdieresis" unicode="&#x1e84;" horiz-adv-x="967" 
d="M221 0l-212 700h100l165 -548l160 548h99l157 -545l168 545h99l-215 -700h-105l-154 542l-157 -542h-105zM608 783q-22 0 -38 16t-16 37q0 22 16 38t38 16t37.5 -16t15.5 -38q0 -21 -15.5 -37t-37.5 -16zM358 783q-22 0 -38 16t-16 37q0 23 16 38.5t38 15.5t37.5 -15.5
t15.5 -38.5q0 -21 -15.5 -37t-37.5 -16z" />
    <glyph glyph-name="wdieresis" unicode="&#x1e85;" horiz-adv-x="798" 
d="M180 0l-170 500h96l123 -370l124 370h94l122 -366l124 366h95l-170 -500h-94l-124 376l-125 -376h-95zM525 613q-22 0 -38 16t-16 37q0 22 16 38t38 16t37.5 -16t15.5 -38q0 -21 -15.5 -37t-37.5 -16zM275 613q-22 0 -38 16t-16 37q0 23 16 38.5t38 15.5t37.5 -15.5
t15.5 -38.5q0 -21 -15.5 -37t-37.5 -16z" />
    <glyph glyph-name="uni1E9E" unicode="&#x1e9e;" horiz-adv-x="595" 
d="M340 -12q-19 0 -52 8.5t-61 33.5l41 78q8 -6 25.5 -17t47.5 -11q55 0 84 31.5t29 86.5q0 53 -31.5 82.5t-93.5 29.5h-61v80l157 186q-20 19 -50.5 33t-77.5 14q-54 0 -81 -28t-27 -78v-517h-100v541q0 81 54.5 126t161.5 45q66 0 113.5 -20t80 -48.5t52.5 -52.5
l-173 -210q84 -9 129 -59t45 -134q0 -94 -54 -147t-158 -53z" />
    <glyph glyph-name="Ygrave" unicode="&#x1ef2;" horiz-adv-x="616" 
d="M259 0v293l-250 407h113l186 -306l186 306h114l-250 -406v-294h-99zM311 738l-131 133h115l119 -133h-103z" />
    <glyph glyph-name="ygrave" unicode="&#x1ef3;" horiz-adv-x="540" 
d="M127 -212q-22 0 -48.5 8t-54.5 21l35 78q22 -10 38.5 -15t26.5 -5q25 0 42.5 14t28.5 39l31 75l-218 497h101l162 -388l160 388h102l-237 -562q-19 -46 -40 -80t-51.5 -52t-77.5 -18zM273 568l-131 133h115l119 -133h-103z" />
    <glyph glyph-name="endash" unicode="&#x2013;" horiz-adv-x="550" 
d="M0 256v83h550v-83h-550z" />
    <glyph glyph-name="emdash" unicode="&#x2014;" horiz-adv-x="1100" 
d="M0 256v83h1100v-83h-1100z" />
    <glyph glyph-name="quoteleft" unicode="&#x2018;" horiz-adv-x="191" 
d="M175 700l-58 -218h-103l83 218h78z" />
    <glyph glyph-name="quoteright" unicode="&#x2019;" horiz-adv-x="191" 
d="M16 482l58 218h103l-84 -218h-77z" />
    <glyph glyph-name="quotesinglbase" unicode="&#x201a;" horiz-adv-x="223" 
d="M37 -115l58 218h103l-84 -218h-77z" />
    <glyph glyph-name="quotedblleft" unicode="&#x201c;" horiz-adv-x="353" 
d="M175 700l-58 -218h-103l83 218h78zM337 700l-59 -218h-102l83 218h78z" />
    <glyph glyph-name="quotedblright" unicode="&#x201d;" horiz-adv-x="353" 
d="M179 482l58 218h102l-83 -218h-77zM17 482l58 218h102l-83 -218h-77z" />
    <glyph glyph-name="quotedblbase" unicode="&#x201e;" horiz-adv-x="339" 
d="M176 -115l58 218h103l-84 -218h-77zM14 -115l58 218h103l-84 -218h-77z" />
    <glyph glyph-name="dagger" unicode="&#x2020;" horiz-adv-x="483" 
d="M193 0l17 460l-14 240h91l-14 -240l16 -460h-96zM26 417v88l215 -14l214 14v-88l-214 14z" />
    <glyph glyph-name="daggerdbl" unicode="&#x2021;" horiz-adv-x="483" 
d="M192 -200l17 237l-11 213l11 210l-14 240h91l-14 -240l11 -210l-11 -213l17 -237h-97zM28 -4v85l215 -13l213 13v-85l-213 12zM26 419v84l214 -12l214 12v-84l-214 12z" />
    <glyph glyph-name="bullet" unicode="&#x2022;" horiz-adv-x="483" 
d="M241 175q-30 0 -54.5 15t-39 39.5t-14.5 54.5t14.5 54.5t39 38.5t54.5 14t55 -14t39.5 -38.5t14.5 -54.5t-14.5 -54.5t-39.5 -39.5t-55 -15z" />
    <glyph glyph-name="ellipsis" unicode="&#x2026;" horiz-adv-x="640" 
d="M109 -14q-25 0 -43.5 18t-18.5 44t18.5 44t43.5 18q26 0 44.5 -18t18.5 -44t-18.5 -44t-44.5 -18zM319 -14q-25 0 -43.5 18t-18.5 44t18.5 44t43.5 18q26 0 44.5 -18t18.5 -44t-18.5 -44t-44.5 -18zM530 -14q-25 0 -43.5 18t-18.5 44t18.5 44t43.5 18q26 0 44.5 -18
t18.5 -44t-18.5 -44t-44.5 -18z" />
    <glyph glyph-name="guilsinglleft" unicode="&#x2039;" horiz-adv-x="370" 
d="M201 96l-152 202l152 202h112l-150 -202l150 -202h-112z" />
    <glyph glyph-name="guilsinglright" unicode="&#x203a;" horiz-adv-x="370" 
d="M169 96h-112l150 202l-150 202h112l153 -202z" />
    <glyph glyph-name="fraction" unicode="&#x2044;" horiz-adv-x="219" 
d="M-174 0l481 700h86l-481 -700h-86z" />
    <glyph glyph-name="uni2070" unicode="&#x2070;" horiz-adv-x="406" 
d="M204 373q-51 0 -90 27.5t-61.5 76.5t-22.5 113q0 65 22 113.5t61 76t90 27.5t89.5 -27.5t61 -76t22.5 -113.5q0 -64 -22 -113t-61 -76.5t-89 -27.5zM204 446q42 0 68 40.5t26 103.5q0 64 -26.5 105t-68.5 41q-40 0 -66 -41t-26 -105q0 -63 26.5 -103.5t66.5 -40.5z" />
    <glyph glyph-name="uni2074" unicode="&#x2074;" horiz-adv-x="393" 
d="M85 496l-58 32l186 272l48 -44zM27 463v65l45 4h300v-69h-345zM222 380v376l-9 44h85v-420h-76z" />
    <glyph glyph-name="uni2075" unicode="&#x2075;" horiz-adv-x="368" 
d="M187 373q-28 0 -58 9.5t-54 28.5t-36 46l73 23q13 -20 31.5 -29t39.5 -9q32 0 52 19.5t20 50.5t-19.5 51.5t-51.5 20.5q-18 0 -34 -8t-25 -21l-72 16l25 229h236v-73h-225l-11 70h79l-32 -233l-44 7q8 14 26 31.5t44.5 30t60.5 12.5q53 0 89 -36t36 -92q0 -64 -42 -104
t-108 -40z" />
    <glyph glyph-name="uni2076" unicode="&#x2076;" horiz-adv-x="358" 
d="M186 373q-56 0 -90.5 26.5t-50 71.5t-15.5 100q0 49 10 91.5t31 75.5t53.5 51t76.5 18q32 0 64.5 -9.5t57.5 -27.5l-40 -58q-19 13 -41 19t-39 6q-47 0 -74 -41.5t-25 -130.5l-16 11q14 33 43.5 53t68.5 20q40 0 71 -19t48.5 -50.5t17.5 -71.5q0 -58 -41.5 -96.5
t-109.5 -38.5zM187 441q30 0 50.5 20t20.5 51t-20.5 51.5t-50.5 20.5q-31 0 -51 -20.5t-20 -51.5q0 -32 20 -51.5t51 -19.5z" />
    <glyph glyph-name="uni2077" unicode="&#x2077;" horiz-adv-x="343" 
d="M63 380l174 356l85 5l-171 -361h-88zM27 727v73h295v-59l-80 -14h-215z" />
    <glyph glyph-name="uni2078" unicode="&#x2078;" horiz-adv-x="388" 
d="M194 373q-75 0 -116.5 32t-41.5 84q0 56 41 91t117 35q75 0 116.5 -35t41.5 -91q0 -52 -41.5 -84t-116.5 -32zM194 439q33 0 54.5 17t21.5 43q0 29 -21.5 47t-54.5 18q-34 0 -55 -18t-21 -47q0 -26 21 -43t55 -17zM194 628q29 0 47.5 16t18.5 40q0 26 -18.5 42.5
t-47.5 16.5t-47.5 -16.5t-18.5 -42.5q0 -24 18.5 -40t47.5 -16zM194 582q-68 0 -106 31t-38 80q0 50 38 82t106 32t106 -32t38 -82q0 -49 -38.5 -80t-105.5 -31z" />
    <glyph glyph-name="uni2079" unicode="&#x2079;" horiz-adv-x="358" 
d="M157 373q-32 0 -64 9.5t-58 27.5l40 58q19 -13 41 -19t38 -6q48 0 74.5 41t25.5 131l16 -11q-14 -33 -43 -53t-69 -20t-71 18.5t-48.5 50.5t-17.5 72q0 58 41 96.5t110 38.5q56 0 90 -27t49.5 -71.5t15.5 -99.5q0 -48 -9.5 -90.5t-30.5 -75.5t-53 -51.5t-77 -18.5z
M171 596q31 0 51 21t20 51q0 31 -20 51t-51 20t-51 -20t-20 -51t20.5 -51.5t50.5 -20.5z" />
    <glyph glyph-name="uni2080" unicode="&#x2080;" horiz-adv-x="406" 
d="M204 -106q-51 0 -90 27.5t-61.5 76.5t-22.5 113q0 65 22 113.5t61 76t90 27.5t89.5 -27.5t61 -76t22.5 -113.5q0 -64 -22 -113t-61 -76.5t-89 -27.5zM204 -33q42 0 68 40.5t26 103.5q0 64 -26.5 105t-68.5 41q-40 0 -66 -41t-26 -105q0 -63 26.5 -103.5t66.5 -40.5z" />
    <glyph glyph-name="uni2081" unicode="&#x2081;" horiz-adv-x="281" 
d="M128 -100v378l8 42h69v-420h-77zM39 189v72q21 -1 48 17t49 42l51 -50q-37 -39 -73 -61.5t-75 -19.5z" />
    <glyph glyph-name="uni2082" unicode="&#x2082;" horiz-adv-x="363" 
d="M114 -51l-79 10q0 18 11 38.5t30 42t44 38.5l65 47q19 14 35.5 33.5t16.5 38.5q0 25 -17.5 41t-49.5 16q-28 0 -45.5 -16t-23.5 -37l-82 14q6 30 26.5 55.5t52 41t71.5 15.5q69 0 109 -36t40 -93q0 -39 -21 -68.5t-58 -56.5l-63 -46q-15 -10 -28.5 -24t-22.5 -28t-11 -26
zM35 -100v59l60 12h229v-71h-289z" />
    <glyph glyph-name="uni2083" unicode="&#x2083;" horiz-adv-x="354" 
d="M181 -106q-56 0 -94 25t-49 65l73 22q9 -16 23.5 -29.5t41.5 -13.5q31 0 49 17.5t18 44.5q0 18 -9.5 32t-29.5 22t-53 8h-25v54h22q48 0 88 -15t63.5 -43t23.5 -67t-19.5 -66t-52 -41.5t-70.5 -14.5zM126 101v52h25q41 0 62.5 14t21.5 40q0 21 -16 36.5t-43 15.5
q-19 0 -36 -9.5t-27 -31.5l-72 21q9 29 29.5 49t48.5 30t59 10q39 0 70 -14.5t49 -40t18 -59.5q0 -37 -23.5 -62.5t-62 -38t-81.5 -12.5h-22z" />
    <glyph glyph-name="uni2084" unicode="&#x2084;" horiz-adv-x="393" 
d="M85 16l-58 32l186 272l48 -44zM27 -17v65l45 4h300v-69h-345zM222 -100v376l-9 44h85v-420h-76z" />
    <glyph glyph-name="uni2085" unicode="&#x2085;" horiz-adv-x="368" 
d="M187 -106q-28 0 -58 9.5t-54 28.5t-36 46l73 23q13 -20 31.5 -29t39.5 -9q32 0 52 19.5t20 50.5t-19.5 51.5t-51.5 20.5q-18 0 -34 -8t-25 -21l-72 16l25 229h236v-73h-225l-11 70h79l-32 -233l-44 7q8 14 26 31.5t44.5 30t60.5 12.5q53 0 89 -36t36 -92q0 -64 -42 -104
t-108 -40z" />
    <glyph glyph-name="uni2086" unicode="&#x2086;" horiz-adv-x="358" 
d="M186 -106q-56 0 -90.5 26.5t-50 71.5t-15.5 100q0 49 10 91.5t31 75.5t53.5 51t76.5 18q32 0 64.5 -9.5t57.5 -27.5l-40 -58q-19 13 -41 19t-39 6q-47 0 -74 -41.5t-25 -130.5l-16 11q14 33 43.5 53t68.5 20q40 0 71 -19t48.5 -50.5t17.5 -71.5q0 -58 -41.5 -96.5
t-109.5 -38.5zM187 -38q30 0 50.5 20t20.5 51t-20.5 51.5t-50.5 20.5q-31 0 -51 -20.5t-20 -51.5q0 -32 20 -51.5t51 -19.5z" />
    <glyph glyph-name="uni2087" unicode="&#x2087;" horiz-adv-x="343" 
d="M63 -100l174 356l85 5l-171 -361h-88zM27 247v73h295v-59l-80 -14h-215z" />
    <glyph glyph-name="uni2088" unicode="&#x2088;" horiz-adv-x="388" 
d="M194 -106q-75 0 -116.5 32t-41.5 84q0 56 41 91t117 35q75 0 116.5 -35t41.5 -91q0 -52 -41.5 -84t-116.5 -32zM194 -40q33 0 54.5 17t21.5 43q0 29 -21.5 47t-54.5 18q-34 0 -55 -18t-21 -47q0 -26 21 -43t55 -17zM194 149q29 0 47.5 16t18.5 40q0 26 -18.5 42.5
t-47.5 16.5t-47.5 -16.5t-18.5 -42.5q0 -24 18.5 -40t47.5 -16zM194 103q-68 0 -106 31t-38 80q0 50 38 82t106 32t106 -32t38 -82q0 -49 -38.5 -80t-105.5 -31z" />
    <glyph glyph-name="uni2089" unicode="&#x2089;" horiz-adv-x="358" 
d="M157 -106q-32 0 -64 9.5t-58 27.5l40 58q19 -13 41 -19t38 -6q48 0 74.5 41t25.5 131l16 -11q-14 -33 -43 -53t-69 -20t-71 18.5t-48.5 50.5t-17.5 72q0 58 41 96.5t110 38.5q56 0 90 -27t49.5 -71.5t15.5 -99.5q0 -48 -9.5 -90.5t-30.5 -75.5t-53 -51.5t-77 -18.5z
M171 117q31 0 51 21t20 51q0 31 -20 51t-51 20t-51 -20t-20 -51t20.5 -51.5t50.5 -20.5z" />
    <glyph glyph-name="Euro" unicode="&#x20ac;" horiz-adv-x="671" 
d="M386 -12q-85 0 -151 46.5t-103 128t-37 187.5t37 187.5t102.5 128t149.5 46.5q55 0 104.5 -23t87.5 -64t59 -95l-85 -40q-15 40 -41 69.5t-58 46t-67 16.5q-55 0 -97.5 -35t-67 -96t-24.5 -141t24.5 -141.5t67.5 -96t100 -34.5q36 0 68 18t57 49.5t40 72.5l86 -39
q-21 -56 -59.5 -99.5t-88 -67.5t-104.5 -24zM17 257v60h442v-60h-442zM17 383v60h442v-60h-442z" />
    <glyph glyph-name="uni20B9" unicode="&#x20b9;" horiz-adv-x="616" 
d="M357 0l-268 258v76h140q49 0 87.5 27.5t49.5 73.5h-277v78h276q-10 46 -46 73.5t-87 27.5h-143v86h448l-3 -79h-124q23 -21 38.5 -48.5t19.5 -59.5h69l-3 -78h-65q-7 -50 -37 -89.5t-75 -63.5t-101 -28l-33 -1l265 -253h-131z" />
    <glyph glyph-name="trademark" unicode="&#x2122;" horiz-adv-x="863" 
d="M606 382l-131 191v-293h-80v420h87l125 -183l123 183h86v-420h-79v294zM135 280v347h-127v73h333v-73h-127v-347h-79z" />
    <glyph glyph-name="oneeighth" unicode="&#x215b;" horiz-adv-x="888" 
d="M128 280v378l8 42h69v-420h-77zM39 569v72q21 -1 48 17t49 42l51 -50q-37 -39 -73 -61.5t-75 -19.5zM107 0l481 700h86l-481 -700h-86zM694 -6q-75 0 -116.5 32t-41.5 84q0 56 41 91t117 35q75 0 116.5 -35t41.5 -91q0 -52 -41.5 -84t-116.5 -32zM694 60q33 0 54.5 17
t21.5 43q0 29 -21.5 47t-54.5 18q-34 0 -55 -18t-21 -47q0 -26 21 -43t55 -17zM694 249q29 0 47.5 16t18.5 40q0 26 -18.5 42.5t-47.5 16.5t-47.5 -16.5t-18.5 -42.5q0 -24 18.5 -40t47.5 -16zM694 203q-68 0 -106 31t-38 80q0 50 38 82t106 32t106 -32t38 -82
q0 -49 -38.5 -80t-105.5 -31z" />
    <glyph glyph-name="threeeighths" unicode="&#x215c;" horiz-adv-x="961" 
d="M181 273q-56 0 -94 25t-49 65l73 22q9 -16 23.5 -29.5t41.5 -13.5q31 0 49 17.5t18 44.5q0 18 -9.5 32t-29.5 22t-53 8h-25v54h22q48 0 88 -15t63.5 -43t23.5 -67t-19.5 -66t-52 -41.5t-70.5 -14.5zM126 480v52h25q41 0 62.5 14t21.5 40q0 21 -16 36.5t-43 15.5
q-19 0 -36 -9.5t-27 -31.5l-72 21q9 29 29.5 49t48.5 30t59 10q39 0 70 -14.5t49 -40t18 -59.5q0 -37 -23.5 -62.5t-62 -38t-81.5 -12.5h-22zM180 0l481 700h86l-481 -700h-86zM767 -6q-75 0 -116.5 32t-41.5 84q0 56 41 91t117 35q75 0 116.5 -35t41.5 -91q0 -52 -41.5 -84
t-116.5 -32zM767 60q33 0 54.5 17t21.5 43q0 29 -21.5 47t-54.5 18q-34 0 -55 -18t-21 -47q0 -26 21 -43t55 -17zM767 249q29 0 47.5 16t18.5 40q0 26 -18.5 42.5t-47.5 16.5t-47.5 -16.5t-18.5 -42.5q0 -24 18.5 -40t47.5 -16zM767 203q-68 0 -106 31t-38 80q0 50 38 82
t106 32t106 -32t38 -82q0 -49 -38.5 -80t-105.5 -31z" />
    <glyph glyph-name="fiveeighths" unicode="&#x215d;" horiz-adv-x="975" 
d="M187 273q-28 0 -58 9.5t-54 28.5t-36 46l73 23q13 -20 31.5 -29t39.5 -9q32 0 52 19.5t20 50.5t-19.5 51.5t-51.5 20.5q-18 0 -34 -8t-25 -21l-72 16l25 229h236v-73h-225l-11 70h79l-32 -233l-44 7q8 14 26 31.5t44.5 30t60.5 12.5q53 0 89 -36t36 -92q0 -64 -42 -104
t-108 -40zM194 0l481 700h86l-481 -700h-86zM781 -6q-75 0 -116.5 32t-41.5 84q0 56 41 91t117 35q75 0 116.5 -35t41.5 -91q0 -52 -41.5 -84t-116.5 -32zM781 60q33 0 54.5 17t21.5 43q0 29 -21.5 47t-54.5 18q-34 0 -55 -18t-21 -47q0 -26 21 -43t55 -17zM781 249
q29 0 47.5 16t18.5 40q0 26 -18.5 42.5t-47.5 16.5t-47.5 -16.5t-18.5 -42.5q0 -24 18.5 -40t47.5 -16zM781 203q-68 0 -106 31t-38 80q0 50 38 82t106 32t106 -32t38 -82q0 -49 -38.5 -80t-105.5 -31z" />
    <glyph glyph-name="seveneighths" unicode="&#x215e;" horiz-adv-x="916" 
d="M63 280l174 356l85 5l-171 -361h-88zM27 627v73h295v-59l-80 -14h-215zM135 0l481 700h86l-481 -700h-86zM722 -6q-75 0 -116.5 32t-41.5 84q0 56 41 91t117 35q75 0 116.5 -35t41.5 -91q0 -52 -41.5 -84t-116.5 -32zM722 60q33 0 54.5 17t21.5 43q0 29 -21.5 47
t-54.5 18q-34 0 -55 -18t-21 -47q0 -26 21 -43t55 -17zM722 249q29 0 47.5 16t18.5 40q0 26 -18.5 42.5t-47.5 16.5t-47.5 -16.5t-18.5 -42.5q0 -24 18.5 -40t47.5 -16zM722 203q-68 0 -106 31t-38 80q0 50 38 82t106 32t106 -32t38 -82q0 -49 -38.5 -80t-105.5 -31z" />
    <glyph glyph-name="arrowleft" unicode="&#x2190;" horiz-adv-x="745" 
d="M140 255l-81 43l296 265l56 -61zM678 257h-550v83h550v-83zM357 34l-298 264l81 44l272 -246z" />
    <glyph glyph-name="arrowup" unicode="&#x2191;" horiz-adv-x="709" 
d="M399 630l-247 -270l-62 55l266 297zM397 0h-84v643h84v-643zM619 413l-62 -54l-246 271l45 82z" />
    <glyph glyph-name="arrowright" unicode="&#x2192;" horiz-adv-x="745" 
d="M605 254l-270 247l55 62l297 -266zM67 256v83h550v-83h-550zM388 34l-55 62l272 246l82 -45z" />
    <glyph glyph-name="arrowdown" unicode="&#x2193;" horiz-adv-x="709" 
d="M399 70l-43 -82l-266 297l62 55zM397 700v-643h-84v643h84zM619 287l-263 -299l-45 82l246 271z" />
    <glyph glyph-name="uni2196" unicode="&#x2196;" horiz-adv-x="696" 
d="M608 254l-59 -59l-441 440l59 59zM173 318h-84v396l84 -30v-366zM485 630h-367l-29 84h396v-84z" />
    <glyph glyph-name="uni2197" unicode="&#x2197;" horiz-adv-x="696" 
d="M147 181l-58 59l440 440l59 -59zM212 615v85h396l-31 -84zM523 304l1 366l84 30v-396h-85z" />
    <glyph glyph-name="uni2198" unicode="&#x2198;" horiz-adv-x="696" 
d="M89 455l58 59l441 -441l-59 -59zM523 391h85v-397l-85 31v366zM211 79l367 -1l30 -84h-397v85z" />
    <glyph glyph-name="uni2199" unicode="&#x2199;" horiz-adv-x="696" 
d="M549 519l59 -59l-440 -440l-59 59zM485 85v-85h-396l30 84zM173 396v-366l-84 -30v396h84z" />
    <glyph glyph-name="minus" unicode="&#x2212;" horiz-adv-x="626" 
d="M121 257v82h383v-82h-383z" />
    <glyph glyph-name="uni2215" unicode="&#x2215;" horiz-adv-x="626" 
d="M33 0l482 700h78l-482 -700h-78z" />
    <glyph glyph-name="notequal" unicode="&#x2260;" horiz-adv-x="626" 
d="M152 71l251 512h83l-250 -512h-84zM113 388v81h400v-81h-400zM113 188v81h400v-81h-400z" />
    <glyph glyph-name="lessequal" unicode="&#x2264;" horiz-adv-x="626" 
d="M484 0h-351v71h351v-71zM484 117l-351 157v84l351 155v-86l-251 -111l251 -114v-85z" />
    <glyph glyph-name="greaterequal" unicode="&#x2265;" horiz-adv-x="626" 
d="M141 0v71h351v-71h-351zM141 117v85l252 114l-252 111v86l351 -155v-84z" />
    <glyph glyph-name="uni004A0301" horiz-adv-x="525" 
d="M207 -12q-41 0 -73.5 12t-57.5 31.5t-42 44t-27 49.5l79 40q19 -39 48.5 -63t72.5 -24q35 0 67 16t53 53.5t21 98.5v454h98v-489q0 -55 -19.5 -96.5t-53 -70t-76.5 -42.5t-90 -14zM323 738l117 132h115l-129 -132h-103z" />
    <glyph glyph-name="I.ss02" horiz-adv-x="393" 
d="M44 0v90h103v520h-103v90h305v-90h-103v-520h103v-90h-305z" />
    <glyph glyph-name="IJ.ss02" horiz-adv-x="918" 
d="M44 0v90h103v520h-103v90h305v-90h-103v-520h103v-90h-305zM600 -12q-41 0 -73.5 12t-57.5 31.5t-42 44t-27 49.5l79 40q19 -39 48.5 -63t72.5 -24q35 0 67 16t53 53.5t21 98.5v454h98v-489q0 -55 -19.5 -96.5t-53 -70t-76.5 -42.5t-90 -14z" />
    <glyph glyph-name="Iacute.ss02" horiz-adv-x="393" 
d="M44 0v90h103v520h-103v90h305v-90h-103v-520h103v-90h-305zM125 743l116 126h115l-128 -126h-103z" />
    <glyph glyph-name="Icircumflex.ss02" horiz-adv-x="393" 
d="M44 0v90h103v520h-103v90h305v-90h-103v-520h103v-90h-305zM275 759l-133 128v4h109l122 -132h-98zM19 759l122 132h109v-4l-134 -128h-97z" />
    <glyph glyph-name="Idieresis.ss02" horiz-adv-x="393" 
d="M272 791q-21 0 -37.5 16t-16.5 38t16.5 38t37.5 16q22 0 38 -16t16 -38t-16 -38t-38 -16zM129 791q-22 0 -38 16t-16 38t16 38t38 16t37.5 -16t15.5 -38t-15.5 -38t-37.5 -16zM44 0v90h103v520h-103v90h305v-90h-103v-520h103v-90h-305z" />
    <glyph glyph-name="Idotaccent.ss02" horiz-adv-x="393" 
d="M44 0v90h103v520h-103v90h305v-90h-103v-520h103v-90h-305zM197 785q-23 0 -40 17.5t-17 40.5q0 24 17 40.5t40 16.5q24 0 40.5 -16.5t16.5 -40.5q0 -23 -16.5 -40.5t-40.5 -17.5z" />
    <glyph glyph-name="Igrave.ss02" horiz-adv-x="393" 
d="M44 0v90h103v520h-103v90h305v-90h-103v-520h103v-90h-305zM200 747l-131 133h115l119 -133h-103z" />
    <glyph glyph-name="Imacron.ss02" horiz-adv-x="393" 
d="M44 0v90h103v520h-103v90h305v-90h-103v-520h103v-90h-305zM41 750v84h312v-84h-312z" />
    <glyph glyph-name="Iogonek.ss02" horiz-adv-x="393" 
d="M44 0v90h103v520h-103v90h305v-90h-103v-520h103v-90h-305zM199 -212q-36 0 -63.5 11t-42.5 33t-15 54q0 36 28 67t64 56l75 -9q-32 -23 -58 -51t-26 -59q0 -14 9 -21.5t25 -7.5q15 0 27.5 3.5t17.5 6.5l29 -64q-14 -9 -31.5 -14t-38.5 -5z" />
    <glyph glyph-name="i.loclTRK" horiz-adv-x="240" 
d="M72 0v500h95v-500h-95zM120 606q-23 0 -40 17.5t-17 40.5q0 24 17 40.5t40 16.5q24 0 40.5 -16.5t16.5 -40.5q0 -23 -16.5 -40.5t-40.5 -17.5z" />
    <glyph glyph-name="uni006A0301" horiz-adv-x="264" 
d="M43 -215q-43 0 -99 27l37 79q21 -9 37 -14t26 -5q63 0 63 81v547h94v-551q0 -80 -40 -122t-118 -42zM81 568l117 132h115l-129 -132h-103z" />
    <glyph glyph-name="a.ss01" horiz-adv-x="588" 
d="M264 -12q-68 0 -118.5 33t-79 92t-28.5 137q0 79 28.5 137.5t79 91.5t118.5 33q53 0 95 -24t69 -68v80h94v-500h-90l-3 81q-27 -44 -69 -68.5t-96 -24.5zM286 74q41 0 72.5 22t50 60.5t19.5 88.5v10q-1 50 -19.5 88.5t-50 60.5t-73.5 22q-44 0 -78 -22.5t-53 -62
t-19 -91.5t19.5 -91.5t53.5 -62t78 -22.5z" />
    <glyph glyph-name="aacute.ss01" horiz-adv-x="588" 
d="M264 -12q-68 0 -118.5 33t-79 92t-28.5 137q0 79 28.5 137.5t79 91.5t118.5 33q53 0 95 -24t69 -68v80h94v-500h-90l-3 81q-27 -44 -69 -68.5t-96 -24.5zM286 74q41 0 72.5 22t50 60.5t19.5 88.5v10q-1 50 -19.5 88.5t-50 60.5t-73.5 22q-44 0 -78 -22.5t-53 -62
t-19 -91.5t19.5 -91.5t53.5 -62t78 -22.5zM211 568l117 132h115l-129 -132h-103z" />
    <glyph glyph-name="abreve.ss01" horiz-adv-x="588" 
d="M264 -12q-68 0 -118.5 33t-79 92t-28.5 137q0 79 28.5 137.5t79 91.5t118.5 33q53 0 95 -24t69 -68v80h94v-500h-90l-3 81q-27 -44 -69 -68.5t-96 -24.5zM286 74q41 0 72.5 22t50 60.5t19.5 88.5v10q-1 50 -19.5 88.5t-50 60.5t-73.5 22q-44 0 -78 -22.5t-53 -62
t-19 -91.5t19.5 -91.5t53.5 -62t78 -22.5zM284 561q-50 0 -89.5 17.5t-62 49.5t-22.5 72h90q0 -29 23.5 -47.5t60.5 -18.5t60.5 18.5t23.5 47.5h90q0 -40 -22 -72t-61 -49.5t-91 -17.5z" />
    <glyph glyph-name="uni01CE.ss01" horiz-adv-x="588" 
d="M264 -12q-68 0 -118.5 33t-79 92t-28.5 137q0 79 28.5 137.5t79 91.5t118.5 33q53 0 95 -24t69 -68v80h94v-500h-90l-3 81q-27 -44 -69 -68.5t-96 -24.5zM286 74q41 0 72.5 22t50 60.5t19.5 88.5v10q-1 50 -19.5 88.5t-50 60.5t-73.5 22q-44 0 -78 -22.5t-53 -62
t-19 -91.5t19.5 -91.5t53.5 -62t78 -22.5zM234 568v2l126 130h99l-122 -132h-103zM227 568l-122 132h99l126 -130v-2h-103z" />
    <glyph glyph-name="acircumflex.ss01" horiz-adv-x="588" 
d="M264 -12q-68 0 -118.5 33t-79 92t-28.5 137q0 79 28.5 137.5t79 91.5t118.5 33q53 0 95 -24t69 -68v80h94v-500h-90l-3 81q-27 -44 -69 -68.5t-96 -24.5zM286 74q41 0 72.5 22t50 60.5t19.5 88.5v10q-1 50 -19.5 88.5t-50 60.5t-73.5 22q-44 0 -78 -22.5t-53 -62
t-19 -91.5t19.5 -91.5t53.5 -62t78 -22.5zM361 580l-133 128v4h109l122 -132h-98zM105 580l122 132h109v-4l-134 -128h-97z" />
    <glyph glyph-name="adieresis.ss01" horiz-adv-x="588" 
d="M264 -12q-68 0 -118.5 33t-79 92t-28.5 137q0 79 28.5 137.5t79 91.5t118.5 33q53 0 95 -24t69 -68v80h94v-500h-90l-3 81q-27 -44 -69 -68.5t-96 -24.5zM286 74q41 0 72.5 22t50 60.5t19.5 88.5v10q-1 50 -19.5 88.5t-50 60.5t-73.5 22q-44 0 -78 -22.5t-53 -62
t-19 -91.5t19.5 -91.5t53.5 -62t78 -22.5zM409 613q-22 0 -38 16t-16 37q0 22 16 38t38 16t37.5 -16t15.5 -38q0 -21 -15.5 -37t-37.5 -16zM159 613q-22 0 -38 16t-16 37q0 23 16 38.5t38 15.5t37.5 -15.5t15.5 -38.5q0 -21 -15.5 -37t-37.5 -16z" />
    <glyph glyph-name="agrave.ss01" horiz-adv-x="588" 
d="M264 -12q-68 0 -118.5 33t-79 92t-28.5 137q0 79 28.5 137.5t79 91.5t118.5 33q53 0 95 -24t69 -68v80h94v-500h-90l-3 81q-27 -44 -69 -68.5t-96 -24.5zM286 74q41 0 72.5 22t50 60.5t19.5 88.5v10q-1 50 -19.5 88.5t-50 60.5t-73.5 22q-44 0 -78 -22.5t-53 -62
t-19 -91.5t19.5 -91.5t53.5 -62t78 -22.5zM287 568l-131 133h115l119 -133h-103z" />
    <glyph glyph-name="amacron.ss01" horiz-adv-x="588" 
d="M264 -12q-68 0 -118.5 33t-79 92t-28.5 137q0 79 28.5 137.5t79 91.5t118.5 33q53 0 95 -24t69 -68v80h94v-500h-90l-3 81q-27 -44 -69 -68.5t-96 -24.5zM286 74q41 0 72.5 22t50 60.5t19.5 88.5v10q-1 50 -19.5 88.5t-50 60.5t-73.5 22q-44 0 -78 -22.5t-53 -62
t-19 -91.5t19.5 -91.5t53.5 -62t78 -22.5zM128 571v84h312v-84h-312z" />
    <glyph glyph-name="aogonek.ss01" horiz-adv-x="588" 
d="M264 -12q-68 0 -118.5 33t-79 92t-28.5 137q0 79 28.5 137.5t79 91.5t118.5 33q53 0 95 -24t69 -68v80h94v-500h-90l-3 81q-27 -44 -69 -68.5t-96 -24.5zM286 74q41 0 72.5 22t50 60.5t19.5 88.5v10q-1 50 -19.5 88.5t-50 60.5t-73.5 22q-44 0 -78 -22.5t-53 -62
t-19 -91.5t19.5 -91.5t53.5 -62t78 -22.5zM475 -212q-36 0 -63.5 11t-42.5 33t-15 54q0 36 28 67t64 56l75 -9q-32 -23 -58 -51t-26 -59q0 -14 9 -21.5t25 -7.5q15 0 27.5 3.5t17.5 6.5l29 -64q-14 -9 -31.5 -14t-38.5 -5z" />
    <glyph glyph-name="aring.ss01" horiz-adv-x="588" 
d="M264 -12q-68 0 -118.5 33t-79 92t-28.5 137q0 79 28.5 137.5t79 91.5t118.5 33q53 0 95 -24t69 -68v80h94v-500h-90l-3 81q-27 -44 -69 -68.5t-96 -24.5zM286 74q41 0 72.5 22t50 60.5t19.5 88.5v10q-1 50 -19.5 88.5t-50 60.5t-73.5 22q-44 0 -78 -22.5t-53 -62
t-19 -91.5t19.5 -91.5t53.5 -62t78 -22.5zM283 551q-27 0 -50.5 13.5t-37.5 35.5t-14 49q0 28 14 50t37.5 35.5t50.5 13.5q28 0 51.5 -13.5t37 -35.5t13.5 -50q0 -27 -13.5 -49t-37 -35.5t-51.5 -13.5zM283 612q36 0 36 37q0 38 -36 38t-36 -38q0 -37 36 -37z" />
    <glyph glyph-name="atilde.ss01" horiz-adv-x="588" 
d="M264 -12q-68 0 -118.5 33t-79 92t-28.5 137q0 79 28.5 137.5t79 91.5t118.5 33q53 0 95 -24t69 -68v80h94v-500h-90l-3 81q-27 -44 -69 -68.5t-96 -24.5zM286 74q41 0 72.5 22t50 60.5t19.5 88.5v10q-1 50 -19.5 88.5t-50 60.5t-73.5 22q-44 0 -78 -22.5t-53 -62
t-19 -91.5t19.5 -91.5t53.5 -62t78 -22.5zM365 561q-30 0 -48.5 11t-29.5 25t-21 25t-24 11q-15 0 -23.5 -8t-13.5 -29h-71q3 30 16.5 54.5t36.5 38.5t54 14q29 0 47 -11t30 -25t22.5 -25t24.5 -11q17 0 24.5 10.5t10.5 28.5h71q-6 -45 -32 -77t-74 -32z" />
    <glyph glyph-name="l.ss02" horiz-adv-x="299" 
d="M207 -12q-67 0 -104 38.5t-37 110.5v563h95v-549q0 -36 14.5 -55t41.5 -19q10 0 20.5 3.5t27.5 14.5l35 -74q-25 -17 -47.5 -25t-45.5 -8z" />
    <glyph glyph-name="lacute.ss02" horiz-adv-x="299" 
d="M207 -12q-67 0 -104 38.5t-37 110.5v563h95v-549q0 -36 14.5 -55t41.5 -19q10 0 20.5 3.5t27.5 14.5l35 -74q-25 -17 -47.5 -25t-45.5 -8zM41 747l117 132h115l-129 -132h-103z" />
    <glyph glyph-name="lcaron.ss02" horiz-adv-x="299" 
d="M207 -12q-67 0 -104 38.5t-37 110.5v563h95v-549q0 -36 14.5 -55t41.5 -19q10 0 20.5 3.5t27.5 14.5l35 -74q-25 -17 -47.5 -25t-45.5 -8zM184 534l46 165h93l-62 -165h-77z" />
    <glyph glyph-name="uni013C.ss02" horiz-adv-x="299" 
d="M207 -12q-67 0 -104 38.5t-37 110.5v563h95v-549q0 -36 14.5 -55t41.5 -19q10 0 20.5 3.5t27.5 14.5l35 -74q-25 -17 -47.5 -25t-45.5 -8zM94 -200l46 143h99l-68 -143h-77z" />
    <glyph glyph-name="lslash.ss02" horiz-adv-x="327" 
d="M14 250v81l255 126v-80zM234 -12q-67 0 -103.5 38.5t-36.5 110.5v563h94v-549q0 -36 14.5 -55t41.5 -19q10 0 20.5 3.5t27.5 14.5l35 -74q-25 -17 -47.5 -25t-45.5 -8z" />
    <glyph glyph-name="zero.ss02" horiz-adv-x="643" 
d="M321 -12q-81 0 -144 46.5t-98.5 128t-35.5 187.5t35.5 187.5t98 128t144.5 46.5t144.5 -46.5t98.5 -128t36 -187.5t-35.5 -187.5t-98.5 -128t-145 -46.5zM321 78q53 0 94.5 35t64.5 96t23 141t-23 141.5t-64.5 96.5t-94.5 35t-94 -35t-64 -96.5t-23 -141.5t23 -141.5
t64 -96t94 -34.5zM108 158l356 409l71 -33l-350 -401z" />
    <glyph glyph-name="zero.tf" horiz-adv-x="626" 
d="M312 -12q-81 0 -144 46.5t-98.5 128t-35.5 187.5t35.5 187.5t98 128t144.5 46.5t144.5 -46.5t98.5 -128t36 -187.5t-35.5 -187.5t-98.5 -128t-145 -46.5zM312 78q53 0 94.5 35t64.5 96t23 141t-23 141.5t-64.5 96.5t-94.5 35t-94 -35t-64 -96.5t-23 -141.5t23 -141.5
t64 -96t94 -34.5z" />
    <glyph glyph-name="one.tf" horiz-adv-x="626" 
d="M145 0v87h400v-87h-400zM300 0v573q-38 -30 -77 -47.5t-78 -16.5v89q21 -1 50.5 14t59.5 39t53 49h87v-700h-95z" />
    <glyph glyph-name="two.tf" horiz-adv-x="626" 
d="M93 0v79q0 31 14.5 64.5t42 66.5t65.5 61l135 100q24 17 43.5 39.5t31 47t11.5 48.5q0 32 -16 58.5t-45 42t-69 15.5q-38 0 -66.5 -14.5t-47.5 -38.5t-27 -51l-101 19q11 46 43 86t82 64.5t113 24.5q72 0 124.5 -26.5t81.5 -73t29 -106.5q0 -58 -31.5 -107t-90.5 -95
l-125 -94q-37 -28 -58.5 -58t-26.5 -64h341v-88h-453z" />
    <glyph glyph-name="three.tf" horiz-adv-x="626" 
d="M308 -12q-54 0 -98 16t-74 44t-46 61l85 39q10 -14 25 -31.5t40 -29.5t62 -12q63 0 100.5 36t37.5 91q0 41 -22 69.5t-64.5 43.5t-103.5 15h-25v83h25q82 0 128 28t46 79q0 29 -15.5 52.5t-43 38t-65.5 14.5q-24 0 -46.5 -7.5t-41.5 -22t-33 -37.5l-82 37q17 37 48 63
t72 40t87 14q63 0 112 -24t77.5 -66t28.5 -95q0 -54 -30 -92.5t-82 -61.5q60 -26 94.5 -71t34.5 -109q0 -62 -31.5 -108.5t-84 -71.5t-115.5 -25z" />
    <glyph glyph-name="four.tf" horiz-adv-x="626" 
d="M113 195l-72 43l314 462l62 -56zM41 161v77l59 10h493v-87h-552zM363 0v640l-7 60h101v-700h-94z" />
    <glyph glyph-name="five.tf" horiz-adv-x="626" 
d="M316 -12q-44 0 -89.5 13.5t-84.5 41t-62 70.5l83 38q32 -40 70 -58.5t79 -18.5q65 0 105 39t40 104q0 63 -39 103t-102 40q-36 0 -69 -15.5t-51 -38.5l-89 20l36 374h379v-90h-293l-21 -207q28 16 62 26t69 10q63 0 112 -28t77.5 -77.5t28.5 -113.5q0 -69 -31 -121
t-85 -81.5t-125 -29.5z" />
    <glyph glyph-name="six.tf" horiz-adv-x="626" 
d="M326 -12q-72 0 -121 27t-78.5 73.5t-42.5 107.5t-13 130q0 87 18 158t53 122t86 78.5t117 27.5q53 0 105 -16.5t93 -45.5l-53 -71q-32 22 -69 33.5t-69 11.5q-95 0 -146 -80.5t-46 -247.5l-20 17q24 59 75.5 94.5t121.5 35.5q68 0 120 -30t81 -81.5t29 -118.5
q0 -65 -30 -116t-84.5 -80t-126.5 -29zM327 74q41 0 73 18t50.5 50.5t18.5 73.5q0 42 -18.5 74.5t-50.5 50.5t-73 18q-42 0 -74.5 -18t-51 -50.5t-18.5 -74.5q0 -41 18.5 -73.5t51 -50.5t74.5 -18z" />
    <glyph glyph-name="seven.tf" horiz-adv-x="626" 
d="M127 0l318 610h-364v90h473v-79l-318 -621h-109z" />
    <glyph glyph-name="eight.tf" horiz-adv-x="626" 
d="M312 -12q-78 0 -135 24.5t-88.5 68t-31.5 101.5q0 62 33.5 109.5t92.5 72.5q-47 23 -74 64t-27 94q0 56 28.5 99t80.5 67t121 24q70 0 122 -24t80.5 -67t28.5 -99q0 -53 -26.5 -94t-74.5 -64q59 -25 92.5 -72.5t33.5 -109.5q0 -58 -31.5 -101.5t-88.5 -68t-136 -24.5z
M312 73q69 0 112.5 33.5t43.5 86.5q0 55 -43.5 89t-112.5 34q-45 0 -80 -15t-54.5 -43.5t-19.5 -64.5q0 -35 19.5 -62.5t54.5 -42.5t80 -15zM312 403q59 0 96.5 30.5t37.5 78.5q0 52 -37.5 84.5t-96.5 32.5q-58 0 -95 -32.5t-37 -84.5q0 -48 37 -78.5t95 -30.5z" />
    <glyph glyph-name="nine.tf" horiz-adv-x="626" 
d="M299 712q73 0 121.5 -27t78.5 -73.5t43 -107.5t13 -130q0 -87 -18.5 -158.5t-53 -122t-85.5 -78t-118 -27.5q-53 0 -104.5 16t-92.5 46l53 71q31 -22 68 -34t70 -12q95 0 146 81t45 248l21 -17q-24 -59 -75.5 -94.5t-122.5 -35.5q-67 0 -119 30t-81.5 81.5t-29.5 117.5
q0 67 30 117.5t84.5 79.5t126.5 29zM299 626q-41 0 -73.5 -18t-51 -50t-18.5 -74t18.5 -74.5t51 -51t73.5 -18.5q42 0 74.5 18.5t51 51t18.5 74.5t-18.5 74t-51 50t-74.5 18z" />
    <glyph glyph-name="zero.tf.ss02" horiz-adv-x="626" 
d="M101 158l357 409l71 -33l-350 -401zM313 -12q-82 0 -145 46.5t-98.5 128t-35.5 187.5t35.5 187.5t98 128t144.5 46.5t145 -46.5t98.5 -128t35.5 -187.5t-35.5 -187.5t-98.5 -128t-144 -46.5zM313 78q53 0 94 35t64 96t23 141t-23 141.5t-64.5 96.5t-94.5 35t-94 -35
t-64 -96.5t-23 -141.5t23 -141.5t64.5 -96t94.5 -34.5z" />
    <glyph glyph-name="zero.dnom" horiz-adv-x="406" 
d="M204 -6q-51 0 -90 27.5t-61.5 76.5t-22.5 113q0 65 22 113.5t61 76t90 27.5t89.5 -27.5t61 -76t22.5 -113.5q0 -64 -22 -113t-61 -76.5t-89 -27.5zM204 67q42 0 68 40.5t26 103.5q0 64 -26.5 105t-68.5 41q-40 0 -66 -41t-26 -105q0 -63 26.5 -103.5t66.5 -40.5z" />
    <glyph glyph-name="one.dnom" horiz-adv-x="281" 
d="M128 0v378l8 42h69v-420h-77zM39 289v72q21 -1 48 17t49 42l51 -50q-37 -39 -73 -61.5t-75 -19.5z" />
    <glyph glyph-name="two.dnom" horiz-adv-x="363" 
d="M114 49l-79 10q0 18 11 38.5t30 42t44 38.5l65 47q19 14 35.5 33.5t16.5 38.5q0 25 -17.5 41t-49.5 16q-28 0 -45.5 -16t-23.5 -37l-82 14q6 30 26.5 55.5t52 41t71.5 15.5q69 0 109 -36t40 -93q0 -39 -21 -68.5t-58 -56.5l-63 -46q-15 -10 -28.5 -24t-22.5 -28t-11 -26z
M35 0v59l60 12h229v-71h-289z" />
    <glyph glyph-name="three.dnom" horiz-adv-x="354" 
d="M181 -6q-56 0 -94 25t-49 65l73 22q9 -16 23.5 -29.5t41.5 -13.5q31 0 49 17.5t18 44.5q0 18 -9.5 32t-29.5 22t-53 8h-25v54h22q48 0 88 -15t63.5 -43t23.5 -67t-19.5 -66t-52 -41.5t-70.5 -14.5zM126 201v52h25q41 0 62.5 14t21.5 40q0 21 -16 36.5t-43 15.5
q-19 0 -36 -9.5t-27 -31.5l-72 21q9 29 29.5 49t48.5 30t59 10q39 0 70 -14.5t49 -40t18 -59.5q0 -37 -23.5 -62.5t-62 -38t-81.5 -12.5h-22z" />
    <glyph glyph-name="four.dnom" horiz-adv-x="393" 
d="M85 116l-58 32l186 272l48 -44zM27 83v65l45 4h300v-69h-345zM222 0v376l-9 44h85v-420h-76z" />
    <glyph glyph-name="five.dnom" horiz-adv-x="368" 
d="M187 -6q-28 0 -58 9.5t-54 28.5t-36 46l73 23q13 -20 31.5 -29t39.5 -9q32 0 52 19.5t20 50.5t-19.5 51.5t-51.5 20.5q-18 0 -34 -8t-25 -21l-72 16l25 229h236v-73h-225l-11 70h79l-32 -233l-44 7q8 14 26 31.5t44.5 30t60.5 12.5q53 0 89 -36t36 -92q0 -64 -42 -104
t-108 -40z" />
    <glyph glyph-name="six.dnom" horiz-adv-x="358" 
d="M186 -6q-56 0 -90.5 26.5t-50 71.5t-15.5 100q0 49 10 91.5t31 75.5t53.5 51t76.5 18q32 0 64.5 -9.5t57.5 -27.5l-40 -58q-19 13 -41 19t-39 6q-47 0 -74 -41.5t-25 -130.5l-16 11q14 33 43.5 53t68.5 20q40 0 71 -19t48.5 -50.5t17.5 -71.5q0 -58 -41.5 -96.5
t-109.5 -38.5zM187 62q30 0 50.5 20t20.5 51t-20.5 51.5t-50.5 20.5q-31 0 -51 -20.5t-20 -51.5q0 -32 20 -51.5t51 -19.5z" />
    <glyph glyph-name="seven.dnom" horiz-adv-x="343" 
d="M63 0l174 356l85 5l-171 -361h-88zM27 347v73h295v-59l-80 -14h-215z" />
    <glyph glyph-name="eight.dnom" horiz-adv-x="388" 
d="M194 -6q-75 0 -116.5 32t-41.5 84q0 56 41 91t117 35q75 0 116.5 -35t41.5 -91q0 -52 -41.5 -84t-116.5 -32zM194 60q33 0 54.5 17t21.5 43q0 29 -21.5 47t-54.5 18q-34 0 -55 -18t-21 -47q0 -26 21 -43t55 -17zM194 249q29 0 47.5 16t18.5 40q0 26 -18.5 42.5
t-47.5 16.5t-47.5 -16.5t-18.5 -42.5q0 -24 18.5 -40t47.5 -16zM194 203q-68 0 -106 31t-38 80q0 50 38 82t106 32t106 -32t38 -82q0 -49 -38.5 -80t-105.5 -31z" />
    <glyph glyph-name="nine.dnom" horiz-adv-x="358" 
d="M157 -6q-32 0 -64 9.5t-58 27.5l40 58q19 -13 41 -19t38 -6q48 0 74.5 41t25.5 131l16 -11q-14 -33 -43 -53t-69 -20t-71 18.5t-48.5 50.5t-17.5 72q0 58 41 96.5t110 38.5q56 0 90 -27t49.5 -71.5t15.5 -99.5q0 -48 -9.5 -90.5t-30.5 -75.5t-53 -51.5t-77 -18.5z
M171 217q31 0 51 21t20 51q0 31 -20 51t-51 20t-51 -20t-20 -51t20.5 -51.5t50.5 -20.5z" />
    <glyph glyph-name="zero.numr" horiz-adv-x="406" 
d="M204 273q-51 0 -90 27.5t-61.5 76.5t-22.5 113q0 65 22 113.5t61 76t90 27.5t89.5 -27.5t61 -76t22.5 -113.5q0 -64 -22 -113t-61 -76.5t-89 -27.5zM204 346q42 0 68 40.5t26 103.5q0 64 -26.5 105t-68.5 41q-40 0 -66 -41t-26 -105q0 -63 26.5 -103.5t66.5 -40.5z" />
    <glyph glyph-name="one.numr" horiz-adv-x="281" 
d="M128 280v378l8 42h69v-420h-77zM39 569v72q21 -1 48 17t49 42l51 -50q-37 -39 -73 -61.5t-75 -19.5z" />
    <glyph glyph-name="two.numr" horiz-adv-x="363" 
d="M114 329l-79 10q0 18 11 38.5t30 42t44 38.5l65 47q19 14 35.5 33.5t16.5 38.5q0 25 -17.5 41t-49.5 16q-28 0 -45.5 -16t-23.5 -37l-82 14q6 30 26.5 55.5t52 41t71.5 15.5q69 0 109 -36t40 -93q0 -39 -21 -68.5t-58 -56.5l-63 -46q-15 -10 -28.5 -24t-22.5 -28t-11 -26
zM35 280v59l60 12h229v-71h-289z" />
    <glyph glyph-name="three.numr" horiz-adv-x="354" 
d="M181 273q-56 0 -94 25t-49 65l73 22q9 -16 23.5 -29.5t41.5 -13.5q31 0 49 17.5t18 44.5q0 18 -9.5 32t-29.5 22t-53 8h-25v54h22q48 0 88 -15t63.5 -43t23.5 -67t-19.5 -66t-52 -41.5t-70.5 -14.5zM126 480v52h25q41 0 62.5 14t21.5 40q0 21 -16 36.5t-43 15.5
q-19 0 -36 -9.5t-27 -31.5l-72 21q9 29 29.5 49t48.5 30t59 10q39 0 70 -14.5t49 -40t18 -59.5q0 -37 -23.5 -62.5t-62 -38t-81.5 -12.5h-22z" />
    <glyph glyph-name="four.numr" horiz-adv-x="393" 
d="M85 396l-58 32l186 272l48 -44zM27 363v65l45 4h300v-69h-345zM222 280v376l-9 44h85v-420h-76z" />
    <glyph glyph-name="five.numr" horiz-adv-x="368" 
d="M187 273q-28 0 -58 9.5t-54 28.5t-36 46l73 23q13 -20 31.5 -29t39.5 -9q32 0 52 19.5t20 50.5t-19.5 51.5t-51.5 20.5q-18 0 -34 -8t-25 -21l-72 16l25 229h236v-73h-225l-11 70h79l-32 -233l-44 7q8 14 26 31.5t44.5 30t60.5 12.5q53 0 89 -36t36 -92q0 -64 -42 -104
t-108 -40z" />
    <glyph glyph-name="six.numr" horiz-adv-x="358" 
d="M186 273q-56 0 -90.5 26.5t-50 71.5t-15.5 100q0 49 10 91.5t31 75.5t53.5 51t76.5 18q32 0 64.5 -9.5t57.5 -27.5l-40 -58q-19 13 -41 19t-39 6q-47 0 -74 -41.5t-25 -130.5l-16 11q14 33 43.5 53t68.5 20q40 0 71 -19t48.5 -50.5t17.5 -71.5q0 -58 -41.5 -96.5
t-109.5 -38.5zM187 341q30 0 50.5 20t20.5 51t-20.5 51.5t-50.5 20.5q-31 0 -51 -20.5t-20 -51.5q0 -32 20 -51.5t51 -19.5z" />
    <glyph glyph-name="seven.numr" horiz-adv-x="343" 
d="M63 280l174 356l85 5l-171 -361h-88zM27 627v73h295v-59l-80 -14h-215z" />
    <glyph glyph-name="eight.numr" horiz-adv-x="388" 
d="M194 273q-75 0 -116.5 32t-41.5 84q0 56 41 91t117 35q75 0 116.5 -35t41.5 -91q0 -52 -41.5 -84t-116.5 -32zM194 339q33 0 54.5 17t21.5 43q0 29 -21.5 47t-54.5 18q-34 0 -55 -18t-21 -47q0 -26 21 -43t55 -17zM194 528q29 0 47.5 16t18.5 40q0 26 -18.5 42.5
t-47.5 16.5t-47.5 -16.5t-18.5 -42.5q0 -24 18.5 -40t47.5 -16zM194 482q-68 0 -106 31t-38 80q0 50 38 82t106 32t106 -32t38 -82q0 -49 -38.5 -80t-105.5 -31z" />
    <glyph glyph-name="nine.numr" horiz-adv-x="358" 
d="M157 273q-32 0 -64 9.5t-58 27.5l40 58q19 -13 41 -19t38 -6q48 0 74.5 41t25.5 131l16 -11q-14 -33 -43 -53t-69 -20t-71 18.5t-48.5 50.5t-17.5 72q0 58 41 96.5t110 38.5q56 0 90 -27t49.5 -71.5t15.5 -99.5q0 -48 -9.5 -90.5t-30.5 -75.5t-53 -51.5t-77 -18.5z
M171 496q31 0 51 21t20 51q0 31 -20 51t-51 20t-51 -20t-20 -51t20.5 -51.5t50.5 -20.5z" />
    <glyph glyph-name="periodcentered.loclCAT" horiz-adv-x="113" 
d="M56 254q-25 0 -43.5 18t-18.5 44t18.5 44t43.5 18q26 0 44.5 -18t18.5 -44t-18.5 -44t-44.5 -18z" />
    <glyph glyph-name="periodcentered.loclCAT.case" horiz-adv-x="0" 
d="M-63 300q-25 0 -43.5 18t-18.5 44t18.5 44t43.5 18q26 0 44.5 -18t18.5 -44t-18.5 -44t-44.5 -18z" />
    <glyph glyph-name="uni030C.alt" horiz-adv-x="0" 
d="M21 534l46 165h93l-62 -165h-77z" />
    <glyph glyph-name="uni0328.alt" horiz-adv-x="0" 
d="M152 -212q-40 0 -70.5 11t-47.5 31.5t-17 50.5q0 33 16 61.5t45 53.5t67 45h20q-26 -23 -41 -46t-21 -45.5t-6 -43.5t12.5 -33.5t33.5 -12.5q17 0 32 3t27 7l28 -63q-17 -10 -37 -14.5t-41 -4.5z" />
    <glyph glyph-name="uni0304.narrow" horiz-adv-x="0" 
d="M18 571v84h264v-84h-264z" />
    </font>
</defs>
</svg>
