<svg width="724" height="179" viewBox="0 0 724 179" fill="none" xmlns="http://www.w3.org/2000/svg">
<path fill-rule="evenodd" clip-rule="evenodd" d="M54.8062 111.866C55.9259 112.091 57.0362 112.337 58.137 112.606C68.3154 122.927 82.0444 131.549 100 137.931C80.4018 131.792 65.6108 122.869 54.8062 111.866ZM0 122.766C9.41396 121.575 17.0998 118.978 24.1242 116.538C42.8112 135.192 73.6536 142.48 100 137.931C67.1182 154.369 34.4991 153.684 0 122.766ZM98.8709 136.673C99.2515 137.089 99.6279 137.508 100 137.931L98.8709 136.673ZM99.9115 137.835C99.5614 137.45 99.2145 137.063 98.8709 136.673L99.9115 137.835Z" fill="#FF837F"/>
<path fill-rule="evenodd" clip-rule="evenodd" d="M10.5742 85.5037C25.1629 92.5311 36.2914 94.8282 46.2597 97.3071C56.5586 114.507 73.7702 128.608 100 137.931C62.9666 142.885 18.0305 124.41 10.5742 85.5037ZM89.1642 124.021C90.2398 125.27 91.331 126.576 92.4474 127.959C94.7834 131.427 97.3061 134.756 100 137.931C96.0448 133.598 92.4192 128.948 89.1642 124.021Z" fill="#FF837F"/>
<path d="M38.2384 30.9553C49.3669 50.0225 62.0378 55.278 73.2198 65.75C73.2334 67.2069 73.2714 68.6705 73.3404 70.139C74.5551 96.0721 84.4135 119.555 100 137.931C46.3463 116.635 32.1835 76.2182 38.2384 30.9553Z" fill="#FF837F"/>
<path d="M100.106 140.288L111.001 159.16C114.523 165.259 112.413 173.128 106.316 176.65C104.361 177.778 102.223 178.328 100.106 178.354C97.9879 178.328 95.8512 177.778 93.8955 176.649C87.7969 173.128 85.6894 165.259 89.2089 159.16L100.106 140.288Z" fill="#FF837F"/>
<path d="M100 0C85.2907 19.0866 76.5419 43.0047 76.5419 68.965C76.5419 94.9273 85.2907 118.844 100 137.931C114.71 118.844 123.459 94.9273 123.459 68.965C123.459 43.0047 114.71 19.0866 100 0Z" fill="#FF837F"/>
<path fill-rule="evenodd" clip-rule="evenodd" d="M100 137.931C117.956 131.549 131.685 122.927 141.864 112.606C142.964 112.337 144.074 112.091 145.195 111.866C134.39 122.869 119.598 131.792 100 137.931ZM100 137.931C126.346 142.48 157.19 135.192 175.877 116.538C182.901 118.978 190.586 121.575 200 122.766C165.502 153.684 132.882 154.369 100 137.931ZM100 137.931C100.372 137.508 100.749 137.089 101.129 136.673L100 137.931ZM101.129 136.673C100.786 137.062 100.439 137.449 100.089 137.834L101.129 136.673Z" fill="#FF837F"/>
<path fill-rule="evenodd" clip-rule="evenodd" d="M100 137.931C126.231 128.608 143.441 114.507 153.74 97.3071C163.709 94.8282 174.838 92.5311 189.427 85.5037C181.97 124.41 137.033 142.885 100 137.931ZM100 137.931C102.695 134.756 105.218 131.427 107.554 127.959C108.669 126.576 109.761 125.27 110.837 124.021C107.582 128.948 103.956 133.598 100 137.931Z" fill="#FF837F"/>
<path d="M161.763 30.9553C150.633 50.0225 137.962 55.278 126.78 65.75C126.768 67.2075 126.728 68.6705 126.66 70.139C125.445 96.0721 115.587 119.555 100 137.931C153.654 116.635 167.817 76.2182 161.763 30.9553Z" fill="#FF837F"/>
<path d="M278.48 129.909C274.597 129.909 271.125 129.573 268.064 128.901C265.003 128.229 261.643 127.333 257.984 126.213C255.744 125.391 254.064 124.943 252.944 124.869L253.84 104.597H261.008L262.912 119.157C264.181 120.351 266.235 121.434 269.072 122.405C271.984 123.301 275.157 123.749 278.592 123.749C284.267 123.749 288.56 122.479 291.472 119.941C294.459 117.402 295.952 113.893 295.952 109.413C295.952 106.501 295.131 103.999 293.488 101.909C291.92 99.8181 289.792 98.0261 287.104 96.5328C284.491 95.0394 280.869 93.2848 276.24 91.2688C272.059 89.4021 268.4 87.4981 265.264 85.5568C262.203 83.6154 259.515 81.0394 257.2 77.8288C254.96 74.5434 253.84 70.6234 253.84 66.0688C253.84 61.9621 254.923 58.3034 257.088 55.0928C259.328 51.8074 262.501 49.2314 266.608 47.3648C270.789 45.4981 275.643 44.5648 281.168 44.5648C284.603 44.5648 287.627 44.8261 290.24 45.3488C292.928 45.8714 295.952 46.5808 299.312 47.4768C300.805 47.9994 302.075 48.3354 303.12 48.4848L302.448 67.3008H295.616L293.376 53.5248C292.629 52.7781 291.061 52.0688 288.672 51.3968C286.357 50.7248 283.819 50.3888 281.056 50.3888C275.904 50.3888 271.984 51.4714 269.296 53.6368C266.683 55.8021 265.376 58.9381 265.376 63.0448C265.376 66.0314 266.16 68.5328 267.728 70.5488C269.371 72.5648 271.387 74.2821 273.776 75.7008C276.165 77.1194 279.973 79.0608 285.2 81.5248C290.053 83.8394 294.011 85.9301 297.072 87.7968C300.133 89.6634 302.747 92.1274 304.912 95.1888C307.152 98.1754 308.272 101.759 308.272 105.941C308.272 109.898 307.152 113.706 304.912 117.365C302.747 121.023 299.387 124.047 294.832 126.437C290.352 128.751 284.901 129.909 278.48 129.909ZM345.092 129.909C336.057 129.909 329.151 126.959 324.372 121.061C319.668 115.162 317.316 107.285 317.316 97.4288C317.316 90.9328 318.548 85.2208 321.012 80.2928C323.476 75.3648 326.911 71.5568 331.316 68.8688C335.796 66.1808 340.873 64.8368 346.548 64.8368C353.492 64.8368 358.868 66.7781 362.676 70.6608C366.559 74.4688 368.612 79.9568 368.836 87.1248C368.836 91.6794 368.575 95.1514 368.052 97.5408H329.524C329.673 104.933 331.391 110.906 334.676 115.461C337.961 119.941 342.628 122.181 348.676 122.181C351.663 122.181 354.761 121.658 357.972 120.613C361.257 119.493 363.796 118.186 365.588 116.693L367.716 121.621C365.551 123.861 362.34 125.802 358.084 127.445C353.828 129.087 349.497 129.909 345.092 129.909ZM356.516 91.6048C356.74 90.0368 356.852 88.4314 356.852 86.7888C356.777 81.9354 355.732 78.1274 353.716 75.3648C351.775 72.5274 348.676 71.1088 344.42 71.1088C340.089 71.1088 336.617 72.6768 334.004 75.8128C331.465 78.9488 330.009 84.2128 329.636 91.6048H356.516ZM378.686 123.189L387.086 122.517V75.1408L379.022 73.1248V67.0768L394.478 65.0608H394.702L397.166 67.0768V69.0928L396.83 77.8288H397.166C397.913 76.5594 399.257 74.9168 401.198 72.9008C403.139 70.8848 405.641 69.0554 408.702 67.4128C411.763 65.6954 415.086 64.8368 418.67 64.8368C420.163 64.8368 421.395 65.0234 422.366 65.3968V77.9408C421.843 77.5674 420.985 77.2314 419.79 76.9328C418.67 76.5594 417.401 76.3728 415.982 76.3728C409.785 76.3728 404.035 78.2768 398.734 82.0848V122.405L412.958 123.301V128.677H378.686V123.189ZM457.311 129.909C448.276 129.909 441.369 126.959 436.591 121.061C431.887 115.162 429.535 107.285 429.535 97.4288C429.535 90.9328 430.767 85.2208 433.231 80.2928C435.695 75.3648 439.129 71.5568 443.535 68.8688C448.015 66.1808 453.092 64.8368 458.767 64.8368C465.711 64.8368 471.087 66.7781 474.895 70.6608C478.777 74.4688 480.831 79.9568 481.055 87.1248C481.055 91.6794 480.793 95.1514 480.271 97.5408H441.743C441.892 104.933 443.609 110.906 446.895 115.461C450.18 119.941 454.847 122.181 460.895 122.181C463.881 122.181 466.98 121.658 470.191 120.613C473.476 119.493 476.015 118.186 477.807 116.693L479.935 121.621C477.769 123.861 474.559 125.802 470.303 127.445C466.047 129.087 461.716 129.909 457.311 129.909ZM468.735 91.6048C468.959 90.0368 469.071 88.4314 469.071 86.7888C468.996 81.9354 467.951 78.1274 465.935 75.3648C463.993 72.5274 460.895 71.1088 456.639 71.1088C452.308 71.1088 448.836 72.6768 446.223 75.8128C443.684 78.9488 442.228 84.2128 441.855 91.6048H468.735ZM497.401 75.1408L489.337 73.1248V67.0768L505.353 65.0608H505.689L508.041 67.0768V71.7808L507.929 74.4688C510.617 72.0794 514.163 69.9141 518.569 67.9728C522.974 66.0314 527.193 65.0608 531.225 65.0608C535.929 65.0608 539.55 65.9568 542.089 67.7488C544.702 69.5408 546.531 72.3034 547.577 76.0368C548.622 79.6954 549.145 84.6608 549.145 90.9328V122.293L556.985 123.077V128.677H530.441V123.189L537.385 122.293V90.8208C537.385 86.4154 537.086 82.9808 536.489 80.5168C535.891 77.9781 534.771 76.1114 533.129 74.9168C531.486 73.6474 529.097 73.0128 525.961 73.0128C523.273 73.0128 520.398 73.6848 517.337 75.0288C514.275 76.3728 511.55 77.9408 509.161 79.7328V122.181L516.777 123.189V128.677H490.345V123.189L497.401 122.181V75.1408ZM578.272 55.3168C575.882 55.3168 574.09 54.6448 572.896 53.3008C571.701 51.9568 571.104 50.2394 571.104 48.1488C571.104 45.7594 571.813 43.7808 573.232 42.2128C574.725 40.6448 576.741 39.8608 579.28 39.8608C581.818 39.8608 583.685 40.5328 584.88 41.8768C586.074 43.2208 586.672 44.9381 586.672 47.0288C586.672 49.5674 585.925 51.5834 584.432 53.0768C583.013 54.5701 580.997 55.3168 578.384 55.3168H578.272ZM573.792 75.1408L565.28 73.1248V67.1888L582.64 65.0608H582.864L585.44 67.0768V122.293L594.4 123.189V128.677H564.72V123.189L573.792 122.181V75.1408ZM597.2 66.5168H623.185V71.7808L615.233 73.2368L626.545 105.493L631.249 119.717L635.281 105.941L646.593 73.2368L638.977 71.7808V66.5168H661.713V71.7808L655.889 73.2368L634.273 129.573H624.753L602.241 73.2368L597.2 71.7808V66.5168ZM666.009 111.877C666.009 104.858 669.518 99.7061 676.537 96.4208C683.555 93.0608 692.441 91.2688 703.193 91.0448V87.9088C703.193 84.3994 702.819 81.6368 702.073 79.6208C701.326 77.6048 700.019 76.1488 698.153 75.2528C696.361 74.2821 693.785 73.7968 690.425 73.7968C686.617 73.7968 683.182 74.3568 680.121 75.4768C677.134 76.5221 674.147 77.8288 671.161 79.3968L668.361 73.5728C669.331 72.7514 671.123 71.6688 673.737 70.3248C676.35 68.9808 679.374 67.7861 682.809 66.7408C686.243 65.6954 689.678 65.1728 693.113 65.1728C698.414 65.1728 702.595 65.9194 705.657 67.4128C708.793 68.8314 711.033 71.1461 712.377 74.3568C713.721 77.5674 714.393 81.8608 714.393 87.2368V123.189H721.001V128.117C719.507 128.49 717.603 128.863 715.289 129.237C713.049 129.61 711.07 129.797 709.353 129.797C707.262 129.797 705.843 129.461 705.097 128.789C704.35 128.191 703.977 126.81 703.977 124.645V120.949C701.737 123.189 698.974 125.242 695.689 127.109C692.478 128.975 688.819 129.909 684.713 129.909C679.337 129.909 674.857 128.378 671.273 125.317C667.763 122.181 666.009 117.701 666.009 111.877ZM689.529 122.293C691.47 122.293 693.71 121.695 696.249 120.501C698.787 119.306 701.102 117.887 703.193 116.245V96.9808C695.054 96.9808 688.894 98.2501 684.713 100.789C680.606 103.253 678.553 106.501 678.553 110.533C678.553 114.565 679.523 117.551 681.465 119.493C683.481 121.359 686.169 122.293 689.529 122.293Z" fill="#1E2528"/>
</svg>
