<svg width="749" height="169" viewBox="0 0 749 169" fill="none" xmlns="http://www.w3.org/2000/svg">
<path fill-rule="evenodd" clip-rule="evenodd" d="M206.869 133.429C208.039 132.974 209.326 132.354 210.576 131.586C207.031 135.381 202.506 138.166 197.876 140.431C193.141 142.746 188.136 144.839 182.944 145.854C177.831 146.851 172.534 146.781 167.346 146.836C156.601 146.949 146.469 145.674 137.871 139.064C139.871 138.221 141.836 137.194 143.751 135.961C146.221 134.371 148.649 132.544 150.956 130.526C159.974 140.196 174.916 140.609 187.069 138.449C193.666 137.279 200.606 135.866 206.869 133.429ZM142.659 144.659C143.574 146.936 143.411 149.309 142.896 151.729C142.596 153.134 142.246 154.954 141.019 155.894C139.904 156.746 138.234 156.791 136.894 156.749C135.556 156.706 134.076 156.256 132.786 156.834C131.224 157.531 130.144 159.479 129.021 160.689C125.514 164.471 121.299 167.509 115.864 166.299C111.174 165.254 108.071 161.879 105.471 158.146C105.269 157.756 105.069 157.364 104.891 156.964C111.111 153.251 116.631 148.029 120.211 141.719C125.609 142.239 130.996 141.604 136.166 139.726C138.034 141.749 140.246 143.366 142.659 144.659ZM92.4562 110.391C98.4712 110.201 104.501 111.309 110.531 111.106C113.281 111.011 116.014 110.686 118.676 109.979C120.281 109.554 121.866 108.876 123.509 108.639C125.649 108.329 127.441 109.009 129.519 109.266C132.726 109.669 135.694 108.554 138.826 108.076C142.394 107.531 146.006 107.554 149.606 107.491C154.244 107.411 159.651 107.411 163.856 105.151C163.915 105.178 163.976 105.197 164.041 105.209C160.359 115.276 154.624 123.916 145.956 130.629C140.899 134.549 135.244 137.789 128.829 138.716C122.599 139.616 116.206 138.569 110.361 136.329C104.499 134.081 98.8037 130.676 94.5912 125.966C93.7162 124.988 92.9154 123.955 92.1887 122.869C91.5862 121.461 91.0762 120.009 90.6287 118.546C90.2012 117.154 89.5787 115.619 89.4637 114.159C89.2587 111.546 90.7912 111.029 92.4562 110.391ZM136.951 159.264C138.329 159.291 139.736 159.129 140.971 158.564C140.681 159.051 140.364 159.526 139.996 159.974C137.186 163.399 132.789 165.006 128.764 166.534C126.536 167.379 124.369 167.994 122.221 168.211C124.946 167.436 127.449 165.834 129.639 163.694C130.516 162.836 131.339 161.924 132.144 160.999C133.591 159.329 134.846 159.219 136.951 159.264ZM154.394 79.2711C156.512 78.5378 158.596 77.7386 160.646 76.8736C160.976 76.9436 161.326 76.8386 161.539 76.4836C167.619 73.8536 173.414 70.6686 179.011 67.0286C180.939 65.7736 182.841 64.4811 184.724 63.1611C185.616 62.5336 186.831 61.3336 187.849 61.0261C190.141 60.3336 190.469 63.3511 190.339 64.9136C189.934 69.8136 186.256 73.5811 183.206 77.1036C179.431 81.4636 175.884 86.0186 172.624 90.7761C169.821 94.8686 167.206 99.9161 163.259 103.034C163.084 103.171 162.989 103.349 162.946 103.541C157.366 105.919 149.706 104.604 144.069 104.794C140.529 104.914 137.211 105.611 133.731 106.141C129.941 106.719 126.374 104.944 122.614 105.706C121.456 105.941 120.329 106.249 119.204 106.561C120.291 105.456 121.266 104.219 122.176 102.896C124.746 99.1661 127.189 95.3711 130.284 92.0386C136.779 85.0411 145.631 82.2936 154.394 79.2711ZM104.494 153.541C102.349 153.756 100.096 153.651 98.2087 153.541C94.7212 153.336 91.2637 152.764 87.9337 151.691C81.3787 149.581 75.4887 145.834 70.8662 140.724C70.5512 140.376 69.9587 140.094 69.4937 140.359C64.3812 143.246 59.4087 143.836 53.7537 143.749C53.1937 141.014 53.2862 138.169 54.2012 135.489C54.8187 133.681 55.7612 131.976 57.0062 130.526C58.0437 129.321 59.3437 128.489 60.5012 127.454C60.9796 127.414 61.4571 127.364 61.9337 127.306C66.2037 126.766 70.1912 125.341 74.2037 123.849C77.7062 122.544 84.0287 119.536 87.8987 121.321C88.8362 123.231 89.9987 125.039 91.3287 126.684C95.3387 131.649 100.819 135.351 106.589 137.984C110.321 139.684 114.139 140.846 117.969 141.439C114.176 146.419 109.789 150.369 104.494 153.541ZM99.0712 155.821C99.4629 155.819 99.8621 155.817 100.269 155.814C92.3362 159.656 83.9862 162.646 75.0787 161.139C66.6337 159.709 58.4987 155.621 54.9212 147.419C54.7446 147.012 54.5829 146.599 54.4362 146.181C59.6012 146.814 65.1962 145.276 69.7062 142.876C74.7837 148.229 81.1512 152.159 88.2612 154.214C91.7762 155.231 95.4087 155.831 99.0712 155.821ZM118.916 30.1436C118.204 28.7186 117.349 27.3086 116.434 25.9461C118.654 24.0736 120.596 21.9036 122.891 20.1036C125.279 18.2286 128.601 15.2361 131.704 14.8536C135.316 14.4061 137.901 18.4061 139.439 21.1211C140.884 23.6736 141.266 26.5261 142.256 29.1736C142.23 29.4653 142.214 29.7411 142.209 30.0011C142.121 34.5086 142.911 39.0436 142.936 43.5636C142.964 48.3836 142.451 53.1761 141.664 57.9236C137.554 49.5986 131.731 42.0761 125.616 35.1586C123.626 32.9061 121.509 31.0311 118.916 30.1436ZM87.1537 48.5886C93.2487 41.8211 101.286 36.7811 110.031 34.2286C112.909 33.3886 116.199 32.4236 119.041 33.8561C121.294 34.9911 123.024 37.1586 124.691 38.9836C128.319 42.9586 131.756 47.1086 134.749 51.5886C137.586 55.8361 140.019 60.3561 141.794 65.1536C142.759 67.7611 143.509 70.4361 144.026 73.1686C144.324 74.7461 145.326 78.0236 144.394 79.8086C141.709 80.8836 139.081 82.0786 136.574 83.5386C131.701 86.3761 127.751 90.3386 124.516 94.9311C121.549 99.1411 119.176 104.596 114.844 107.641C114.256 107.754 113.664 107.851 113.059 107.914C112.485 107.97 111.911 108.015 111.336 108.049C111.926 103.894 109.039 99.8411 106.171 96.9661C102.369 93.1561 97.6287 90.4936 93.4337 87.1611C88.7187 83.4136 84.2712 79.6411 79.0112 76.6486C78.0079 76.0803 76.9996 75.5228 75.9862 74.9761C74.5687 69.7736 76.8962 64.8111 79.2287 60.1886C81.3437 55.9936 84.0087 52.0811 87.1537 48.5886ZM161.071 46.1111C162.899 41.1636 163.639 35.8536 164.139 30.6286C164.254 29.4361 163.991 26.2111 165.946 26.0661C167.014 25.9861 168.279 27.6286 168.841 28.3111C170.551 30.3811 171.729 32.8436 172.731 35.3161C174.616 39.9711 176.281 44.9036 177.324 49.8186C178.419 54.9786 178.129 59.6961 177.301 64.7636C173.279 67.3936 169.139 69.8461 164.826 71.9736C164.123 72.3203 163.413 72.6528 162.696 72.9711C164.654 65.5586 163.899 57.9936 162.154 50.4511C161.821 49.0186 161.466 47.5661 161.071 46.1111ZM93.5012 28.3486C93.6037 27.5386 93.7537 26.6186 93.8587 25.6686C96.1862 21.7411 104.124 17.9711 108.464 20.1636C112.006 21.9536 113.891 26.1511 116.136 29.6061C115.666 29.5836 115.184 29.5811 114.681 29.6186C110.319 29.9511 105.791 31.6911 101.861 33.5211C98.4487 35.1086 95.2012 37.0586 92.1912 39.3236C92.3512 35.6411 93.0337 32.0161 93.5012 28.3486ZM74.3137 36.2661C71.1437 31.4136 68.3362 26.4586 65.8537 21.2536C65.9354 21.2986 66.0187 21.3436 66.1037 21.3886C67.6612 22.2411 69.0412 23.3686 70.5937 24.2286C73.2587 25.7086 75.7612 26.6111 77.9987 28.5011C76.5887 30.9536 75.3562 33.5561 74.3137 36.2661ZM92.5262 19.4361C92.2062 19.1186 91.8737 18.8711 91.5337 18.6761C92.9162 17.0386 94.2262 15.3586 95.9162 13.8936C98.1712 11.9436 100.551 10.1436 103.031 8.49113C105.676 6.72863 108.409 5.09613 111.246 3.66363C114.074 2.23863 117.224 0.528628 120.386 0.0861275C126.919 -0.823872 132.564 5.67863 136.409 10.0861C139.874 14.0586 143.494 18.6061 146.131 23.3386C146.125 23.3386 146.119 23.3386 146.114 23.3386C144.949 23.4636 144.111 24.1311 143.516 25.0386C142.744 22.6661 141.489 20.3386 140.449 18.5486C138.866 15.8211 136.716 13.1086 133.414 12.5411C129.844 11.9261 126.389 14.5636 123.676 16.5611C120.701 18.7511 117.554 21.5011 115.579 24.7086C114.876 23.7161 114.156 22.7561 113.454 21.8436C111.829 19.7336 109.784 17.8311 107.044 17.4461C104.104 17.0336 100.646 18.1861 98.0012 19.3811C96.3187 20.1411 94.9262 21.0886 93.8812 22.3761C93.7187 21.2636 93.3262 20.2361 92.5262 19.4361ZM211.054 117.941C212.564 119.344 214.109 121.051 214.589 123.021C213.449 124.869 212.569 126.471 210.664 127.941C208.481 129.624 205.964 130.646 203.351 131.464C197.581 133.269 191.634 134.894 185.674 135.929C179.791 136.949 173.769 137.329 167.856 136.326C161.891 135.316 156.959 132.864 151.984 129.606C157.064 124.961 161.476 119.361 164.316 113.171C164.461 113.226 164.624 113.244 164.806 113.209C170.724 111.991 176.321 109.791 181.514 106.849C192.111 108.164 202.976 110.451 211.054 117.941ZM42.9812 62.6661C42.7812 65.1761 42.6012 67.6061 42.6212 69.9986C42.1637 69.2061 41.7187 68.4136 41.3437 67.6161C40.1712 65.1186 39.1662 62.5436 38.3187 59.9186C36.4562 54.1436 35.3962 48.1211 34.9862 42.0711C34.9579 41.6745 34.9312 41.2728 34.9062 40.8661C35.2187 42.0886 35.5587 43.2836 35.9112 44.4236C36.8037 47.3286 37.9437 50.1611 39.3162 52.8711C40.3162 54.8461 41.4262 57.3736 43.0612 59.0511C42.9562 60.3561 43.0562 61.7386 42.9812 62.6661ZM53.1862 40.9411C52.6762 33.1561 53.0812 25.2611 54.9837 17.6736C55.4512 15.8061 55.9987 13.9311 56.6812 12.1261C56.8862 11.5811 57.1012 11.0486 57.3812 10.7336C59.4912 13.1461 59.5537 26.1936 59.6612 28.2186C59.9687 34.0286 60.2262 39.8536 61.3712 45.5711C62.4087 50.7386 64.0137 55.8036 66.0512 60.6586C67.6712 64.5161 69.4087 68.9461 71.7512 72.6611C68.9287 71.0761 66.1762 69.3861 63.6687 67.3111C61.0187 65.1161 58.7787 62.3836 56.2237 60.0811C55.9437 59.3036 55.6587 58.5261 55.4712 57.6986C55.0712 55.9211 54.7862 54.1061 54.5012 52.3061C53.9012 48.5386 53.4362 44.7486 53.1862 40.9411ZM78.4787 35.1961C79.6237 32.4986 80.9437 29.8661 82.6887 27.5011C83.6737 26.1661 88.6962 19.9086 90.4937 22.8136C91.1737 23.9086 90.5312 26.7436 90.4112 27.9361C90.2412 29.6286 90.0012 31.3111 89.8162 33.0011C89.5087 35.7886 89.3737 38.5011 89.7787 41.2536C86.8962 43.6936 84.2737 46.4386 81.9812 49.4386C78.8112 53.5886 76.2637 58.4261 74.3462 63.2711C74.0337 64.0636 73.7462 64.8861 73.5012 65.7311C72.6162 55.3261 74.3312 44.9786 78.4787 35.1961ZM186.009 58.8011C185.069 59.3411 184.161 59.9561 183.266 60.5961C183.999 58.8111 184.364 56.8086 184.814 54.9511C185.015 54.1111 185.202 53.2686 185.374 52.4236C189.346 49.8686 193.749 49.1911 198.414 48.8136C203.309 48.4186 210.806 47.7911 215.021 50.9486C217.571 52.8586 216.001 55.7536 215.131 58.3286C215.046 58.5861 214.949 58.8411 214.861 59.0961C208.534 68.0561 202.134 77.0236 193.666 84.1336C189.569 87.5711 185.256 90.7686 180.759 93.6636C177.286 95.8986 173.596 97.7336 170.004 99.7286C171.244 98.2386 172.359 96.5961 173.541 94.8036C176.621 90.1361 179.931 85.6211 183.494 81.3111C186.806 77.3011 190.859 73.4986 192.526 68.4336C193.564 65.2811 193.924 60.2611 190.461 58.4036C188.954 57.5936 187.426 57.9886 186.009 58.8011ZM144.996 27.1311L147.536 26.3561C147.998 26.7811 148.435 27.2278 148.849 27.6961C149.335 28.2328 149.799 28.7886 150.239 29.3636C151.264 30.6961 152.201 32.1011 153.026 33.5661C156.254 39.2811 158.116 45.6711 159.806 51.9761C161.786 59.3661 162.146 66.6311 160.274 73.9961C155.911 75.7611 151.394 77.1761 146.979 78.8111C147.269 77.3336 147.091 75.6461 146.909 74.2336C146.296 69.5136 144.791 64.8461 142.876 60.5061C142.791 60.3161 142.705 60.127 142.616 59.9386C142.691 59.8736 142.756 59.7911 142.796 59.6786C145.146 53.0361 145.299 45.9211 145.001 38.9386C144.916 36.9536 144.776 34.9761 144.626 32.9986C144.516 31.5836 143.869 28.2561 144.996 27.1311ZM206.926 73.4786C208.374 71.7411 209.871 69.9711 211.304 68.1436C209.751 71.6211 208.006 75.0161 206.046 78.2786C196.739 93.7561 182.641 105.684 165.281 110.886C166.271 108.316 166.986 105.659 167.364 102.934C172.389 101.289 177.141 98.3436 181.609 95.5736C186.574 92.4911 191.311 89.0586 195.754 85.2636C199.914 81.7086 203.434 77.6786 206.926 73.4786ZM153.169 28.7636C152.456 27.8561 151.404 26.4711 150.194 25.3236C154.646 21.4611 159.426 18.2586 165.066 16.3261C167.754 15.4061 171.919 13.9011 174.704 14.8261C177.701 15.8186 179.569 20.1261 180.626 22.8986C182.796 28.5761 183.741 35.1061 184.186 41.1436C184.474 45.0211 184.101 48.8486 183.314 52.6461C182.646 55.8636 182.009 59.4686 180.304 62.3711C181.351 57.5461 180.519 52.1211 179.379 47.5536C177.854 41.4461 175.916 34.8786 172.694 29.4336C171.054 26.6611 165.419 20.0111 162.439 25.3811C161.076 27.8361 161.516 31.7336 161.166 34.4636C160.831 37.0861 160.359 39.6861 159.944 42.2936C158.374 37.4311 156.271 32.7036 153.169 28.7636ZM61.2762 19.9261C61.1737 19.0561 61.0812 17.2261 60.7987 15.3086C61.9637 18.0861 63.1562 20.8536 64.4487 23.5736C66.9237 28.7811 69.6812 33.9761 73.6112 38.2036C70.4137 47.5011 69.4712 57.8511 71.4487 67.3561C71.3021 67.0711 71.1596 66.7861 71.0212 66.5011C69.6846 63.7178 68.4637 60.8853 67.3587 58.0036C64.9987 51.8386 63.3162 45.4961 62.6087 38.9261C61.9287 32.6111 62.0162 26.2336 61.2762 19.9261ZM69.0637 122.376C59.6087 125.451 50.0337 124.861 40.7337 121.451C32.0587 118.271 23.1612 113.499 16.3912 107.144C13.0862 104.041 10.4137 100.296 8.10873 96.4111C7.15623 94.8086 6.27122 93.1336 5.36872 91.4686C9.76622 94.6386 15.2987 96.6261 20.0937 98.5736C25.4187 100.737 30.7446 102.899 36.0712 105.061C40.8362 106.996 45.5287 109.224 50.7612 109.384C53.8562 109.479 56.9312 109.111 60.0012 109.719C63.3462 110.376 66.5862 111.769 69.7712 112.966C74.4337 114.721 79.0037 116.691 83.5937 118.616C82.6912 118.681 81.7912 118.814 80.9462 118.954C76.8687 119.621 72.9787 121.104 69.0637 122.376ZM44.4962 55.8211C44.2479 55.9695 44.0379 56.157 43.8662 56.3836C43.0887 55.0536 42.1762 53.7686 41.4962 52.4511C40.1737 49.8836 39.0587 47.2111 38.1662 44.4636C36.2987 38.7286 36.1837 33.0436 35.2437 27.1936C35.4837 25.8786 35.8062 24.6011 36.2437 23.3861C37.4487 20.0636 39.8362 17.3611 43.3987 16.6136C46.6037 15.9411 49.6062 16.9336 52.7237 17.3136C50.9687 24.4386 50.5112 31.8486 50.8612 39.1711C51.0762 43.6736 51.5987 48.1586 52.3462 52.6011C52.5912 54.0611 52.7662 55.9161 53.1437 57.7036C52.2062 57.1136 51.2087 56.6061 50.1212 56.2136C48.5362 55.6436 46.0662 54.9086 44.4962 55.8211ZM45.0412 72.1436C44.8337 69.1086 45.2362 66.0236 45.4787 62.9986C45.5721 61.8236 45.6662 60.6478 45.7612 59.4711C45.8237 58.6711 45.6312 58.2586 46.2787 57.9836C46.8187 57.7561 48.9237 58.4636 49.1337 58.5386C54.0737 60.2811 57.1962 65.1461 60.9437 68.5211C68.4062 75.2411 78.3087 78.2811 86.1387 84.4736C90.6437 88.0386 95.1187 91.5086 99.7587 94.8986C104.301 98.2136 108.916 102.316 109.544 108.116C106.729 108.174 103.911 108.006 101.104 107.826C97.5237 107.599 86.7712 105.469 85.5112 110.686C85.4662 110.879 85.4304 111.077 85.4037 111.279C77.1537 107.076 67.8962 104.611 60.5712 98.8211C56.4862 95.5911 53.4712 91.2936 50.8412 86.8511C48.1687 82.3336 45.4087 77.4936 45.0412 72.1436ZM0.00372953 78.7761C-0.19877 72.0761 7.89373 73.4686 12.3937 74.0286C23.2962 75.3886 33.9662 78.5861 44.7462 80.6961C46.8462 85.5586 49.7587 90.3761 52.9712 94.5511C56.8987 99.6536 61.9412 103.226 67.6987 106.019C73.3987 108.784 79.3612 111.636 85.4337 113.634C85.6287 115.124 86.0912 116.634 86.5212 117.924C82.7862 116.039 78.9412 114.371 75.0912 112.736C70.6612 110.856 66.1787 108.779 61.5187 107.536C57.0387 106.344 52.5387 107.299 48.0287 106.541C43.1212 105.719 38.5362 103.619 33.9612 101.756C29.4696 99.9278 24.9779 98.0986 20.4862 96.2686C15.9362 94.4161 11.1437 92.7436 7.09873 89.8911C3.49123 87.3486 0.14373 83.3961 0.00372953 78.7761Z" fill="url(#paint0_linear_38_8)"/>
<path d="M295.676 124.837C291.644 124.837 288.023 124.501 284.812 123.829C281.602 123.157 278.018 122.261 274.06 121.141C271.447 120.395 269.692 119.984 268.796 119.909L269.804 99.1895H278.876L281.34 113.637C282.311 114.683 284.028 115.616 286.492 116.437C289.031 117.259 291.906 117.669 295.116 117.669C300.119 117.669 303.852 116.587 306.316 114.421C308.855 112.181 310.124 109.083 310.124 105.125C310.124 102.512 309.378 100.272 307.884 98.4055C306.391 96.4641 304.338 94.7468 301.724 93.2535C299.111 91.6855 295.527 89.8935 290.972 87.8775C284.775 85.0401 279.623 81.6801 275.516 77.7975C271.484 73.8401 269.468 68.5015 269.468 61.7815C269.468 57.6001 270.551 53.8295 272.716 50.4695C274.882 47.0348 278.092 44.3468 282.348 42.4055C286.679 40.3895 291.943 39.3815 298.14 39.3815C301.799 39.3815 305.01 39.6428 307.772 40.1655C310.61 40.6881 313.671 41.3975 316.956 42.2935C318.898 42.8161 320.354 43.1521 321.324 43.3015L320.652 62.9015H311.692L309.34 49.1255C308.668 48.4535 307.324 47.8188 305.308 47.2215C303.292 46.5495 301.052 46.2135 298.588 46.2135C294.108 46.2135 290.711 47.2588 288.396 49.3495C286.156 51.3655 285.036 54.0908 285.036 57.5255C285.036 60.2881 285.858 62.6775 287.5 64.6935C289.218 66.7095 291.271 68.4268 293.66 69.8455C296.05 71.1895 299.82 73.1308 304.972 75.6695C309.154 77.6855 312.738 79.6641 315.724 81.6055C318.711 83.5468 321.287 86.0855 323.452 89.2215C325.618 92.2828 326.7 95.9041 326.7 100.085C326.7 104.192 325.655 108.112 323.564 111.845C321.548 115.579 318.188 118.677 313.484 121.141C308.855 123.605 302.919 124.837 295.676 124.837ZM363.161 124.837C353.305 124.837 345.95 121.963 341.097 116.213C336.318 110.389 333.929 102.475 333.929 92.4695C333.929 85.7495 335.161 79.9255 337.625 74.9975C340.163 70.0695 343.71 66.2988 348.265 63.6855C352.819 61.0721 358.083 59.7655 364.057 59.7655C371.523 59.7655 377.273 61.7441 381.305 65.7015C385.337 69.5841 387.427 75.1468 387.577 82.3895C387.577 87.3175 387.278 90.9761 386.681 93.3655H350.281C350.579 100.16 352.185 105.461 355.097 109.269C358.009 113.003 362.153 114.869 367.529 114.869C370.441 114.869 373.427 114.384 376.489 113.413C379.625 112.443 382.089 111.285 383.881 109.941L386.681 116.101C384.665 118.267 381.379 120.283 376.825 122.149C372.345 123.941 367.79 124.837 363.161 124.837ZM371.897 86.6455C372.046 84.5548 372.121 82.9495 372.121 81.8295C372.121 71.8988 368.798 66.9335 362.153 66.9335C358.494 66.9335 355.657 68.3895 353.641 71.3015C351.625 74.2135 350.505 79.3281 350.281 86.6455H371.897ZM396.515 116.997L403.907 116.101V71.9735L396.739 69.9575V62.2295L414.099 59.8775H414.435L417.235 62.1175V64.5815L416.899 73.6535H417.235C417.757 72.1601 418.989 70.3308 420.931 68.1655C422.872 65.9255 425.299 63.9841 428.211 62.3415C431.197 60.6241 434.408 59.7655 437.843 59.7655C439.485 59.7655 440.904 59.9895 442.099 60.4375V77.2375C439.859 75.6695 437.133 74.8855 433.923 74.8855C428.472 74.8855 423.731 76.3415 419.699 79.2535V115.989L432.691 116.997V123.605H396.515V116.997ZM477.458 124.837C467.602 124.837 460.247 121.963 455.394 116.213C450.615 110.389 448.226 102.475 448.226 92.4695C448.226 85.7495 449.458 79.9255 451.922 74.9975C454.46 70.0695 458.007 66.2988 462.562 63.6855C467.116 61.0721 472.38 59.7655 478.354 59.7655C485.82 59.7655 491.57 61.7441 495.602 65.7015C499.634 69.5841 501.724 75.1468 501.874 82.3895C501.874 87.3175 501.575 90.9761 500.978 93.3655H464.578C464.876 100.16 466.482 105.461 469.394 109.269C472.306 113.003 476.45 114.869 481.826 114.869C484.738 114.869 487.724 114.384 490.786 113.413C493.922 112.443 496.386 111.285 498.178 109.941L500.978 116.101C498.962 118.267 495.676 120.283 491.122 122.149C486.642 123.941 482.087 124.837 477.458 124.837ZM486.194 86.6455C486.343 84.5548 486.418 82.9495 486.418 81.8295C486.418 71.8988 483.095 66.9335 476.45 66.9335C472.791 66.9335 469.954 68.3895 467.938 71.3015C465.922 74.2135 464.802 79.3281 464.578 86.6455H486.194ZM517.084 71.9735L509.916 69.9575V62.2295L528.508 59.8775H528.844L531.644 62.1175V66.4855L531.532 69.1735C534.145 66.7095 537.542 64.5815 541.724 62.7895C545.905 60.9975 550.124 60.1015 554.38 60.1015C558.934 60.1015 562.481 60.9601 565.02 62.6775C567.633 64.3201 569.5 66.9335 570.62 70.5175C571.74 74.1015 572.3 78.9548 572.3 85.0775V115.989L579.132 116.885V123.605H550.236V116.885L556.284 115.989V85.0775C556.284 81.1948 556.022 78.1708 555.5 76.0055C554.977 73.7655 554.006 72.1601 552.588 71.1895C551.244 70.1441 549.302 69.6215 546.764 69.6215C542.508 69.6215 537.953 71.4508 533.1 75.1095V115.877L539.82 116.885V123.605H510.588V116.885L517.084 115.877V71.9735ZM600.374 51.1415C597.686 51.1415 595.558 50.3575 593.99 48.7895C592.422 47.2215 591.638 45.2055 591.638 42.7415C591.638 39.9041 592.534 37.5521 594.326 35.6855C596.118 33.8188 598.507 32.8855 601.494 32.8855C604.481 32.8855 606.758 33.7068 608.326 35.3495C609.894 36.9175 610.678 38.8961 610.678 41.2855C610.678 44.2721 609.782 46.6615 607.99 48.4535C606.198 50.2455 603.697 51.1415 600.486 51.1415H600.374ZM594.438 71.9735L586.486 69.8455V62.3415L606.982 59.8775H607.206L610.342 62.1175V115.989L617.846 116.885V123.605H586.598V116.885L594.438 115.877V71.9735ZM620.162 61.3335H649.73V67.8295L642.338 69.2855L652.53 99.7495L656.114 111.621L659.138 100.085L669.106 69.2855L662.05 67.8295V61.3335H686.69V67.8295L680.866 69.2855L660.034 124.501H647.042L624.754 69.2855L620.162 67.8295V61.3335ZM688.627 106.133C688.627 99.3388 692.024 94.2241 698.819 90.7895C705.688 87.3548 714.536 85.6001 725.363 85.5255V82.9495C725.363 79.8881 725.027 77.4988 724.355 75.7815C723.757 74.0641 722.6 72.7948 720.883 71.9735C719.24 71.0775 716.813 70.6295 713.603 70.6295C709.944 70.6295 706.659 71.1148 703.747 72.0855C700.835 72.9815 697.811 74.1761 694.675 75.6695L691.203 68.5015C692.323 67.5308 694.189 66.3735 696.803 65.0295C699.491 63.6855 702.664 62.5281 706.323 61.5575C709.981 60.5121 713.752 59.9895 717.635 59.9895C723.384 59.9895 727.864 60.7361 731.075 62.2295C734.36 63.7228 736.712 66.1121 738.131 69.3975C739.549 72.6828 740.259 77.0881 740.259 82.6135V116.885H746.307V123.157C744.813 123.531 742.685 123.904 739.923 124.277C737.16 124.651 734.733 124.837 732.643 124.837C730.104 124.837 728.387 124.464 727.491 123.717C726.669 122.971 726.259 121.44 726.259 119.125V116.101C724.243 118.341 721.629 120.357 718.419 122.149C715.208 123.941 711.587 124.837 707.555 124.837C704.12 124.837 700.947 124.128 698.035 122.709C695.197 121.216 692.92 119.088 691.203 116.325C689.485 113.488 688.627 110.091 688.627 106.133ZM714.723 115.541C716.291 115.541 718.083 115.093 720.099 114.197C722.115 113.227 723.869 112.069 725.363 110.725V92.3575C718.643 92.3575 713.603 93.5148 710.243 95.8295C706.957 98.0695 705.315 100.981 705.315 104.565C705.315 108.149 706.136 110.875 707.779 112.741C709.496 114.608 711.811 115.541 714.723 115.541Z" fill="white"/>
<defs>
<linearGradient id="paint0_linear_38_8" x1="173.58" y1="-13.6486" x2="173.58" y2="171.277" gradientUnits="userSpaceOnUse">
<stop offset="0.92" stop-color="#FF817E"/>
</linearGradient>
</defs>
</svg>
